ISO-10303-21;
HEADER;
FILE_DESCRIPTION(('Open CASCADE Model'),'2;1');
FILE_NAME('Open CASCADE Shape Model','2026-07-09T12:30:59',('Author'),(
    'Open CASCADE'),'Open CASCADE STEP processor 7.8','Open CASCADE 7.8'
  ,'Unknown');
FILE_SCHEMA(('AUTOMOTIVE_DESIGN { 1 0 10303 214 1 1 1 1 }'));
ENDSEC;
DATA;
#1 = APPLICATION_PROTOCOL_DEFINITION('international standard',
  'automotive_design',2000,#2);
#2 = APPLICATION_CONTEXT(
  'core data for automotive mechanical design processes');
#3 = SHAPE_DEFINITION_REPRESENTATION(#4,#10);
#4 = PRODUCT_DEFINITION_SHAPE('','',#5);
#5 = PRODUCT_DEFINITION('design','',#6,#9);
#6 = PRODUCT_DEFINITION_FORMATION('','',#7);
#7 = PRODUCT('axle_top','axle_top','',(#8));
#8 = PRODUCT_CONTEXT('',#2,'mechanical');
#9 = PRODUCT_DEFINITION_CONTEXT('part definition',#2,'design');
#10 = ADVANCED_BREP_SHAPE_REPRESENTATION('',(#11,#15),#993);
#11 = AXIS2_PLACEMENT_3D('',#12,#13,#14);
#12 = CARTESIAN_POINT('',(0.,0.,0.));
#13 = DIRECTION('',(0.,0.,1.));
#14 = DIRECTION('',(1.,0.,-0.));
#15 = MANIFOLD_SOLID_BREP('',#16);
#16 = CLOSED_SHELL('',(#17,#313,#364,#390,#417,#444,#471,#476,#531,#570,
    #962,#966));
#17 = ADVANCED_FACE('',(#18),#32,.T.);
#18 = FACE_BOUND('',#19,.F.);
#19 = EDGE_LOOP('',(#20,#50,#79,#105,#138,#164,#193,#214,#242,#263,#285,
    #286));
#20 = ORIENTED_EDGE('',*,*,#21,.F.);
#21 = EDGE_CURVE('',#22,#24,#26,.T.);
#22 = VERTEX_POINT('',#23);
#23 = CARTESIAN_POINT('',(3.975,0.,14.));
#24 = VERTEX_POINT('',#25);
#25 = CARTESIAN_POINT('',(3.975,0.,41.));
#26 = SEAM_CURVE('',#27,(#31,#43),.PCURVE_S1.);
#27 = LINE('',#28,#29);
#28 = CARTESIAN_POINT('',(3.975,0.,14.));
#29 = VECTOR('',#30,1.);
#30 = DIRECTION('',(0.,0.,1.));
#31 = PCURVE('',#32,#37);
#32 = CYLINDRICAL_SURFACE('',#33,3.975);
#33 = AXIS2_PLACEMENT_3D('',#34,#35,#36);
#34 = CARTESIAN_POINT('',(0.,0.,14.));
#35 = DIRECTION('',(-0.,-0.,-1.));
#36 = DIRECTION('',(1.,0.,0.));
#37 = DEFINITIONAL_REPRESENTATION('',(#38),#42);
#38 = LINE('',#39,#40);
#39 = CARTESIAN_POINT('',(-6.28318530718,0.));
#40 = VECTOR('',#41,1.);
#41 = DIRECTION('',(-0.,-1.));
#42 = ( GEOMETRIC_REPRESENTATION_CONTEXT(2) 
PARAMETRIC_REPRESENTATION_CONTEXT() REPRESENTATION_CONTEXT('2D SPACE',''
  ) );
#43 = PCURVE('',#32,#44);
#44 = DEFINITIONAL_REPRESENTATION('',(#45),#49);
#45 = LINE('',#46,#47);
#46 = CARTESIAN_POINT('',(-0.,0.));
#47 = VECTOR('',#48,1.);
#48 = DIRECTION('',(-0.,-1.));
#49 = ( GEOMETRIC_REPRESENTATION_CONTEXT(2) 
PARAMETRIC_REPRESENTATION_CONTEXT() REPRESENTATION_CONTEXT('2D SPACE',''
  ) );
#50 = ORIENTED_EDGE('',*,*,#51,.F.);
#51 = EDGE_CURVE('',#52,#22,#54,.T.);
#52 = VERTEX_POINT('',#53);
#53 = CARTESIAN_POINT('',(0.5,-3.943428077194,14.));
#54 = SURFACE_CURVE('',#55,(#60,#67),.PCURVE_S1.);
#55 = CIRCLE('',#56,3.975);
#56 = AXIS2_PLACEMENT_3D('',#57,#58,#59);
#57 = CARTESIAN_POINT('',(0.,0.,14.));
#58 = DIRECTION('',(0.,0.,1.));
#59 = DIRECTION('',(1.,0.,0.));
#60 = PCURVE('',#32,#61);
#61 = DEFINITIONAL_REPRESENTATION('',(#62),#66);
#62 = LINE('',#63,#64);
#63 = CARTESIAN_POINT('',(-0.,0.));
#64 = VECTOR('',#65,1.);
#65 = DIRECTION('',(-1.,0.));
#66 = ( GEOMETRIC_REPRESENTATION_CONTEXT(2) 
PARAMETRIC_REPRESENTATION_CONTEXT() REPRESENTATION_CONTEXT('2D SPACE',''
  ) );
#67 = PCURVE('',#68,#73);
#68 = PLANE('',#69);
#69 = AXIS2_PLACEMENT_3D('',#70,#71,#72);
#70 = CARTESIAN_POINT('',(-2.580075721772E-16,9.739347231142E-18,14.));
#71 = DIRECTION('',(0.,0.,1.));
#72 = DIRECTION('',(1.,0.,-0.));
#73 = DEFINITIONAL_REPRESENTATION('',(#74),#78);
#74 = CIRCLE('',#75,3.975);
#75 = AXIS2_PLACEMENT_2D('',#76,#77);
#76 = CARTESIAN_POINT('',(2.580075721772E-16,-9.739347231142E-18));
#77 = DIRECTION('',(1.,0.));
#78 = ( GEOMETRIC_REPRESENTATION_CONTEXT(2) 
PARAMETRIC_REPRESENTATION_CONTEXT() REPRESENTATION_CONTEXT('2D SPACE',''
  ) );
#79 = ORIENTED_EDGE('',*,*,#80,.F.);
#80 = EDGE_CURVE('',#81,#52,#83,.T.);
#81 = VERTEX_POINT('',#82);
#82 = CARTESIAN_POINT('',(0.5,-3.943428077194,37.));
#83 = SURFACE_CURVE('',#84,(#88,#94),.PCURVE_S1.);
#84 = LINE('',#85,#86);
#85 = CARTESIAN_POINT('',(0.5,-3.943428077194,14.));
#86 = VECTOR('',#87,1.);
#87 = DIRECTION('',(-0.,-0.,-1.));
#88 = PCURVE('',#32,#89);
#89 = DEFINITIONAL_REPRESENTATION('',(#90),#93);
#90 = B_SPLINE_CURVE_WITH_KNOTS('',1,(#91,#92),.UNSPECIFIED.,.F.,.F.,(2,
    2),(-25.3,5.999999999062E-07),.PIECEWISE_BEZIER_KNOTS.);
#91 = CARTESIAN_POINT('',(-4.838509229541,-25.3));
#92 = CARTESIAN_POINT('',(-4.838509229541,5.999999999062E-07));
#93 = ( GEOMETRIC_REPRESENTATION_CONTEXT(2) 
PARAMETRIC_REPRESENTATION_CONTEXT() REPRESENTATION_CONTEXT('2D SPACE',''
  ) );
#94 = PCURVE('',#95,#100);
#95 = PLANE('',#96);
#96 = AXIS2_PLACEMENT_3D('',#97,#98,#99);
#97 = CARTESIAN_POINT('',(0.5,-10.725,14.));
#98 = DIRECTION('',(-1.,0.,0.));
#99 = DIRECTION('',(0.,1.,0.));
#100 = DEFINITIONAL_REPRESENTATION('',(#101),#104);
#101 = B_SPLINE_CURVE_WITH_KNOTS('',1,(#102,#103),.UNSPECIFIED.,.F.,.F.,
  (2,2),(-25.3,5.999999999062E-07),.PIECEWISE_BEZIER_KNOTS.);
#102 = CARTESIAN_POINT('',(6.781571922806,-25.3));
#103 = CARTESIAN_POINT('',(6.781571922806,5.999999999062E-07));
#104 = ( GEOMETRIC_REPRESENTATION_CONTEXT(2) 
PARAMETRIC_REPRESENTATION_CONTEXT() REPRESENTATION_CONTEXT('2D SPACE',''
  ) );
#105 = ORIENTED_EDGE('',*,*,#106,.T.);
#106 = EDGE_CURVE('',#81,#107,#109,.T.);
#107 = VERTEX_POINT('',#108);
#108 = CARTESIAN_POINT('',(-0.5,-3.943428077194,37.));
#109 = SURFACE_CURVE('',#110,(#115,#122),.PCURVE_S1.);
#110 = CIRCLE('',#111,3.975);
#111 = AXIS2_PLACEMENT_3D('',#112,#113,#114);
#112 = CARTESIAN_POINT('',(0.,0.,37.));
#113 = DIRECTION('',(0.,0.,-1.));
#114 = DIRECTION('',(1.,0.,0.));
#115 = PCURVE('',#32,#116);
#116 = DEFINITIONAL_REPRESENTATION('',(#117),#121);
#117 = LINE('',#118,#119);
#118 = CARTESIAN_POINT('',(-6.28318530718,-23.));
#119 = VECTOR('',#120,1.);
#120 = DIRECTION('',(1.,-0.));
#121 = ( GEOMETRIC_REPRESENTATION_CONTEXT(2) 
PARAMETRIC_REPRESENTATION_CONTEXT() REPRESENTATION_CONTEXT('2D SPACE',''
  ) );
#122 = PCURVE('',#123,#128);
#123 = PLANE('',#124);
#124 = AXIS2_PLACEMENT_3D('',#125,#126,#127);
#125 = CARTESIAN_POINT('',(0.,0.,37.));
#126 = DIRECTION('',(0.,0.,1.));
#127 = DIRECTION('',(1.,0.,-0.));
#128 = DEFINITIONAL_REPRESENTATION('',(#129),#137);
#129 = ( BOUNDED_CURVE() B_SPLINE_CURVE(2,(#130,#131,#132,#133,#134,#135
,#136),.UNSPECIFIED.,.T.,.F.) B_SPLINE_CURVE_WITH_KNOTS((1,2,2,2,2,1),(
    -2.094395102393,0.,2.094395102393,4.188790204786,6.28318530718,
8.377580409573),.UNSPECIFIED.) CURVE() GEOMETRIC_REPRESENTATION_ITEM() 
RATIONAL_B_SPLINE_CURVE((1.,0.5,1.,0.5,1.,0.5,1.)) REPRESENTATION_ITEM(
  '') );
#130 = CARTESIAN_POINT('',(3.975,0.));
#131 = CARTESIAN_POINT('',(3.975,-6.884901960086));
#132 = CARTESIAN_POINT('',(-1.9875,-3.442450980043));
#133 = CARTESIAN_POINT('',(-7.95,-9.735942053221E-16));
#134 = CARTESIAN_POINT('',(-1.9875,3.442450980043));
#135 = CARTESIAN_POINT('',(3.975,6.884901960086));
#136 = CARTESIAN_POINT('',(3.975,0.));
#137 = ( GEOMETRIC_REPRESENTATION_CONTEXT(2) 
PARAMETRIC_REPRESENTATION_CONTEXT() REPRESENTATION_CONTEXT('2D SPACE',''
  ) );
#138 = ORIENTED_EDGE('',*,*,#139,.T.);
#139 = EDGE_CURVE('',#107,#140,#142,.T.);
#140 = VERTEX_POINT('',#141);
#141 = CARTESIAN_POINT('',(-0.5,-3.943428077194,14.));
#142 = SURFACE_CURVE('',#143,(#147,#153),.PCURVE_S1.);
#143 = LINE('',#144,#145);
#144 = CARTESIAN_POINT('',(-0.5,-3.943428077194,14.));
#145 = VECTOR('',#146,1.);
#146 = DIRECTION('',(-0.,-0.,-1.));
#147 = PCURVE('',#32,#148);
#148 = DEFINITIONAL_REPRESENTATION('',(#149),#152);
#149 = B_SPLINE_CURVE_WITH_KNOTS('',1,(#150,#151),.UNSPECIFIED.,.F.,.F.,
  (2,2),(-25.3,5.999999999062E-07),.PIECEWISE_BEZIER_KNOTS.);
#150 = CARTESIAN_POINT('',(-4.586268731228,-25.3));
#151 = CARTESIAN_POINT('',(-4.586268731228,5.999999999062E-07));
#152 = ( GEOMETRIC_REPRESENTATION_CONTEXT(2) 
PARAMETRIC_REPRESENTATION_CONTEXT() REPRESENTATION_CONTEXT('2D SPACE',''
  ) );
#153 = PCURVE('',#154,#159);
#154 = PLANE('',#155);
#155 = AXIS2_PLACEMENT_3D('',#156,#157,#158);
#156 = CARTESIAN_POINT('',(-0.5,10.725,14.));
#157 = DIRECTION('',(1.,0.,-0.));
#158 = DIRECTION('',(0.,-1.,0.));
#159 = DEFINITIONAL_REPRESENTATION('',(#160),#163);
#160 = B_SPLINE_CURVE_WITH_KNOTS('',1,(#161,#162),.UNSPECIFIED.,.F.,.F.,
  (2,2),(-25.3,5.999999999062E-07),.PIECEWISE_BEZIER_KNOTS.);
#161 = CARTESIAN_POINT('',(14.668428077194,-25.3));
#162 = CARTESIAN_POINT('',(14.668428077194,5.999999999062E-07));
#163 = ( GEOMETRIC_REPRESENTATION_CONTEXT(2) 
PARAMETRIC_REPRESENTATION_CONTEXT() REPRESENTATION_CONTEXT('2D SPACE',''
  ) );
#164 = ORIENTED_EDGE('',*,*,#165,.F.);
#165 = EDGE_CURVE('',#166,#140,#168,.T.);
#166 = VERTEX_POINT('',#167);
#167 = CARTESIAN_POINT('',(-0.5,3.943428077194,14.));
#168 = SURFACE_CURVE('',#169,(#174,#181),.PCURVE_S1.);
#169 = CIRCLE('',#170,3.975);
#170 = AXIS2_PLACEMENT_3D('',#171,#172,#173);
#171 = CARTESIAN_POINT('',(0.,0.,14.));
#172 = DIRECTION('',(0.,0.,1.));
#173 = DIRECTION('',(1.,0.,0.));
#174 = PCURVE('',#32,#175);
#175 = DEFINITIONAL_REPRESENTATION('',(#176),#180);
#176 = LINE('',#177,#178);
#177 = CARTESIAN_POINT('',(-0.,0.));
#178 = VECTOR('',#179,1.);
#179 = DIRECTION('',(-1.,0.));
#180 = ( GEOMETRIC_REPRESENTATION_CONTEXT(2) 
PARAMETRIC_REPRESENTATION_CONTEXT() REPRESENTATION_CONTEXT('2D SPACE',''
  ) );
#181 = PCURVE('',#182,#187);
#182 = PLANE('',#183);
#183 = AXIS2_PLACEMENT_3D('',#184,#185,#186);
#184 = CARTESIAN_POINT('',(-2.580075721772E-16,9.739347231142E-18,14.));
#185 = DIRECTION('',(0.,0.,1.));
#186 = DIRECTION('',(1.,0.,-0.));
#187 = DEFINITIONAL_REPRESENTATION('',(#188),#192);
#188 = CIRCLE('',#189,3.975);
#189 = AXIS2_PLACEMENT_2D('',#190,#191);
#190 = CARTESIAN_POINT('',(2.580075721772E-16,-9.739347231142E-18));
#191 = DIRECTION('',(1.,0.));
#192 = ( GEOMETRIC_REPRESENTATION_CONTEXT(2) 
PARAMETRIC_REPRESENTATION_CONTEXT() REPRESENTATION_CONTEXT('2D SPACE',''
  ) );
#193 = ORIENTED_EDGE('',*,*,#194,.F.);
#194 = EDGE_CURVE('',#195,#166,#197,.T.);
#195 = VERTEX_POINT('',#196);
#196 = CARTESIAN_POINT('',(-0.5,3.943428077194,37.));
#197 = SURFACE_CURVE('',#198,(#202,#208),.PCURVE_S1.);
#198 = LINE('',#199,#200);
#199 = CARTESIAN_POINT('',(-0.5,3.943428077194,14.));
#200 = VECTOR('',#201,1.);
#201 = DIRECTION('',(-0.,-0.,-1.));
#202 = PCURVE('',#32,#203);
#203 = DEFINITIONAL_REPRESENTATION('',(#204),#207);
#204 = B_SPLINE_CURVE_WITH_KNOTS('',1,(#205,#206),.UNSPECIFIED.,.F.,.F.,
  (2,2),(-25.3,5.999999999062E-07),.PIECEWISE_BEZIER_KNOTS.);
#205 = CARTESIAN_POINT('',(-1.696916575952,-25.3));
#206 = CARTESIAN_POINT('',(-1.696916575952,5.999999999062E-07));
#207 = ( GEOMETRIC_REPRESENTATION_CONTEXT(2) 
PARAMETRIC_REPRESENTATION_CONTEXT() REPRESENTATION_CONTEXT('2D SPACE',''
  ) );
#208 = PCURVE('',#154,#209);
#209 = DEFINITIONAL_REPRESENTATION('',(#210),#213);
#210 = B_SPLINE_CURVE_WITH_KNOTS('',1,(#211,#212),.UNSPECIFIED.,.F.,.F.,
  (2,2),(-25.3,5.999999999062E-07),.PIECEWISE_BEZIER_KNOTS.);
#211 = CARTESIAN_POINT('',(6.781571922806,-25.3));
#212 = CARTESIAN_POINT('',(6.781571922806,5.999999999062E-07));
#213 = ( GEOMETRIC_REPRESENTATION_CONTEXT(2) 
PARAMETRIC_REPRESENTATION_CONTEXT() REPRESENTATION_CONTEXT('2D SPACE',''
  ) );
#214 = ORIENTED_EDGE('',*,*,#215,.T.);
#215 = EDGE_CURVE('',#195,#216,#218,.T.);
#216 = VERTEX_POINT('',#217);
#217 = CARTESIAN_POINT('',(0.5,3.943428077194,37.));
#218 = SURFACE_CURVE('',#219,(#224,#231),.PCURVE_S1.);
#219 = CIRCLE('',#220,3.975);
#220 = AXIS2_PLACEMENT_3D('',#221,#222,#223);
#221 = CARTESIAN_POINT('',(0.,0.,37.));
#222 = DIRECTION('',(0.,0.,-1.));
#223 = DIRECTION('',(1.,0.,0.));
#224 = PCURVE('',#32,#225);
#225 = DEFINITIONAL_REPRESENTATION('',(#226),#230);
#226 = LINE('',#227,#228);
#227 = CARTESIAN_POINT('',(-6.28318530718,-23.));
#228 = VECTOR('',#229,1.);
#229 = DIRECTION('',(1.,-0.));
#230 = ( GEOMETRIC_REPRESENTATION_CONTEXT(2) 
PARAMETRIC_REPRESENTATION_CONTEXT() REPRESENTATION_CONTEXT('2D SPACE',''
  ) );
#231 = PCURVE('',#123,#232);
#232 = DEFINITIONAL_REPRESENTATION('',(#233),#241);
#233 = ( BOUNDED_CURVE() B_SPLINE_CURVE(2,(#234,#235,#236,#237,#238,#239
,#240),.UNSPECIFIED.,.T.,.F.) B_SPLINE_CURVE_WITH_KNOTS((1,2,2,2,2,1),(
    -2.094395102393,0.,2.094395102393,4.188790204786,6.28318530718,
8.377580409573),.UNSPECIFIED.) CURVE() GEOMETRIC_REPRESENTATION_ITEM() 
RATIONAL_B_SPLINE_CURVE((1.,0.5,1.,0.5,1.,0.5,1.)) REPRESENTATION_ITEM(
  '') );
#234 = CARTESIAN_POINT('',(3.975,0.));
#235 = CARTESIAN_POINT('',(3.975,-6.884901960086));
#236 = CARTESIAN_POINT('',(-1.9875,-3.442450980043));
#237 = CARTESIAN_POINT('',(-7.95,-9.735942053221E-16));
#238 = CARTESIAN_POINT('',(-1.9875,3.442450980043));
#239 = CARTESIAN_POINT('',(3.975,6.884901960086));
#240 = CARTESIAN_POINT('',(3.975,0.));
#241 = ( GEOMETRIC_REPRESENTATION_CONTEXT(2) 
PARAMETRIC_REPRESENTATION_CONTEXT() REPRESENTATION_CONTEXT('2D SPACE',''
  ) );
#242 = ORIENTED_EDGE('',*,*,#243,.T.);
#243 = EDGE_CURVE('',#216,#244,#246,.T.);
#244 = VERTEX_POINT('',#245);
#245 = CARTESIAN_POINT('',(0.5,3.943428077194,14.));
#246 = SURFACE_CURVE('',#247,(#251,#257),.PCURVE_S1.);
#247 = LINE('',#248,#249);
#248 = CARTESIAN_POINT('',(0.5,3.943428077194,14.));
#249 = VECTOR('',#250,1.);
#250 = DIRECTION('',(-0.,-0.,-1.));
#251 = PCURVE('',#32,#252);
#252 = DEFINITIONAL_REPRESENTATION('',(#253),#256);
#253 = B_SPLINE_CURVE_WITH_KNOTS('',1,(#254,#255),.UNSPECIFIED.,.F.,.F.,
  (2,2),(-25.3,5.999999999062E-07),.PIECEWISE_BEZIER_KNOTS.);
#254 = CARTESIAN_POINT('',(-1.444676077638,-25.3));
#255 = CARTESIAN_POINT('',(-1.444676077638,5.999999999062E-07));
#256 = ( GEOMETRIC_REPRESENTATION_CONTEXT(2) 
PARAMETRIC_REPRESENTATION_CONTEXT() REPRESENTATION_CONTEXT('2D SPACE',''
  ) );
#257 = PCURVE('',#95,#258);
#258 = DEFINITIONAL_REPRESENTATION('',(#259),#262);
#259 = B_SPLINE_CURVE_WITH_KNOTS('',1,(#260,#261),.UNSPECIFIED.,.F.,.F.,
  (2,2),(-25.3,5.999999999062E-07),.PIECEWISE_BEZIER_KNOTS.);
#260 = CARTESIAN_POINT('',(14.668428077194,-25.3));
#261 = CARTESIAN_POINT('',(14.668428077194,5.999999999062E-07));
#262 = ( GEOMETRIC_REPRESENTATION_CONTEXT(2) 
PARAMETRIC_REPRESENTATION_CONTEXT() REPRESENTATION_CONTEXT('2D SPACE',''
  ) );
#263 = ORIENTED_EDGE('',*,*,#264,.F.);
#264 = EDGE_CURVE('',#22,#244,#265,.T.);
#265 = SURFACE_CURVE('',#266,(#271,#278),.PCURVE_S1.);
#266 = CIRCLE('',#267,3.975);
#267 = AXIS2_PLACEMENT_3D('',#268,#269,#270);
#268 = CARTESIAN_POINT('',(0.,0.,14.));
#269 = DIRECTION('',(0.,0.,1.));
#270 = DIRECTION('',(1.,0.,0.));
#271 = PCURVE('',#32,#272);
#272 = DEFINITIONAL_REPRESENTATION('',(#273),#277);
#273 = LINE('',#274,#275);
#274 = CARTESIAN_POINT('',(-0.,0.));
#275 = VECTOR('',#276,1.);
#276 = DIRECTION('',(-1.,0.));
#277 = ( GEOMETRIC_REPRESENTATION_CONTEXT(2) 
PARAMETRIC_REPRESENTATION_CONTEXT() REPRESENTATION_CONTEXT('2D SPACE',''
  ) );
#278 = PCURVE('',#68,#279);
#279 = DEFINITIONAL_REPRESENTATION('',(#280),#284);
#280 = CIRCLE('',#281,3.975);
#281 = AXIS2_PLACEMENT_2D('',#282,#283);
#282 = CARTESIAN_POINT('',(2.580075721772E-16,-9.739347231142E-18));
#283 = DIRECTION('',(1.,0.));
#284 = ( GEOMETRIC_REPRESENTATION_CONTEXT(2) 
PARAMETRIC_REPRESENTATION_CONTEXT() REPRESENTATION_CONTEXT('2D SPACE',''
  ) );
#285 = ORIENTED_EDGE('',*,*,#21,.T.);
#286 = ORIENTED_EDGE('',*,*,#287,.T.);
#287 = EDGE_CURVE('',#24,#24,#288,.T.);
#288 = SURFACE_CURVE('',#289,(#294,#301),.PCURVE_S1.);
#289 = CIRCLE('',#290,3.975);
#290 = AXIS2_PLACEMENT_3D('',#291,#292,#293);
#291 = CARTESIAN_POINT('',(0.,0.,41.));
#292 = DIRECTION('',(0.,0.,1.));
#293 = DIRECTION('',(1.,0.,0.));
#294 = PCURVE('',#32,#295);
#295 = DEFINITIONAL_REPRESENTATION('',(#296),#300);
#296 = LINE('',#297,#298);
#297 = CARTESIAN_POINT('',(-0.,-27.));
#298 = VECTOR('',#299,1.);
#299 = DIRECTION('',(-1.,0.));
#300 = ( GEOMETRIC_REPRESENTATION_CONTEXT(2) 
PARAMETRIC_REPRESENTATION_CONTEXT() REPRESENTATION_CONTEXT('2D SPACE',''
  ) );
#301 = PCURVE('',#302,#307);
#302 = CONICAL_SURFACE('',#303,3.975,0.785398163397);
#303 = AXIS2_PLACEMENT_3D('',#304,#305,#306);
#304 = CARTESIAN_POINT('',(0.,0.,41.));
#305 = DIRECTION('',(0.,0.,1.));
#306 = DIRECTION('',(1.,0.,0.));
#307 = DEFINITIONAL_REPRESENTATION('',(#308),#312);
#308 = LINE('',#309,#310);
#309 = CARTESIAN_POINT('',(0.,0.));
#310 = VECTOR('',#311,1.);
#311 = DIRECTION('',(1.,0.));
#312 = ( GEOMETRIC_REPRESENTATION_CONTEXT(2) 
PARAMETRIC_REPRESENTATION_CONTEXT() REPRESENTATION_CONTEXT('2D SPACE',''
  ) );
#313 = ADVANCED_FACE('',(#314),#302,.T.);
#314 = FACE_BOUND('',#315,.T.);
#315 = EDGE_LOOP('',(#316,#317,#337,#363));
#316 = ORIENTED_EDGE('',*,*,#287,.T.);
#317 = ORIENTED_EDGE('',*,*,#318,.T.);
#318 = EDGE_CURVE('',#24,#319,#321,.T.);
#319 = VERTEX_POINT('',#320);
#320 = CARTESIAN_POINT('',(4.975,0.,42.));
#321 = SEAM_CURVE('',#322,(#325,#331),.PCURVE_S1.);
#322 = B_SPLINE_CURVE_WITH_KNOTS('',1,(#323,#324),.UNSPECIFIED.,.F.,.F.,
  (2,2),(0.,1.),.PIECEWISE_BEZIER_KNOTS.);
#323 = CARTESIAN_POINT('',(3.975,0.,41.));
#324 = CARTESIAN_POINT('',(4.975,0.,42.));
#325 = PCURVE('',#302,#326);
#326 = DEFINITIONAL_REPRESENTATION('',(#327),#330);
#327 = B_SPLINE_CURVE_WITH_KNOTS('',1,(#328,#329),.UNSPECIFIED.,.F.,.F.,
  (2,2),(0.,1.),.PIECEWISE_BEZIER_KNOTS.);
#328 = CARTESIAN_POINT('',(6.28318530718,0.));
#329 = CARTESIAN_POINT('',(6.28318530718,1.));
#330 = ( GEOMETRIC_REPRESENTATION_CONTEXT(2) 
PARAMETRIC_REPRESENTATION_CONTEXT() REPRESENTATION_CONTEXT('2D SPACE',''
  ) );
#331 = PCURVE('',#302,#332);
#332 = DEFINITIONAL_REPRESENTATION('',(#333),#336);
#333 = B_SPLINE_CURVE_WITH_KNOTS('',1,(#334,#335),.UNSPECIFIED.,.F.,.F.,
  (2,2),(0.,1.),.PIECEWISE_BEZIER_KNOTS.);
#334 = CARTESIAN_POINT('',(0.,0.));
#335 = CARTESIAN_POINT('',(0.,1.));
#336 = ( GEOMETRIC_REPRESENTATION_CONTEXT(2) 
PARAMETRIC_REPRESENTATION_CONTEXT() REPRESENTATION_CONTEXT('2D SPACE',''
  ) );
#337 = ORIENTED_EDGE('',*,*,#338,.F.);
#338 = EDGE_CURVE('',#319,#319,#339,.T.);
#339 = SURFACE_CURVE('',#340,(#345,#352),.PCURVE_S1.);
#340 = CIRCLE('',#341,4.975);
#341 = AXIS2_PLACEMENT_3D('',#342,#343,#344);
#342 = CARTESIAN_POINT('',(0.,0.,42.));
#343 = DIRECTION('',(0.,0.,1.));
#344 = DIRECTION('',(1.,0.,0.));
#345 = PCURVE('',#302,#346);
#346 = DEFINITIONAL_REPRESENTATION('',(#347),#351);
#347 = LINE('',#348,#349);
#348 = CARTESIAN_POINT('',(0.,1.));
#349 = VECTOR('',#350,1.);
#350 = DIRECTION('',(1.,0.));
#351 = ( GEOMETRIC_REPRESENTATION_CONTEXT(2) 
PARAMETRIC_REPRESENTATION_CONTEXT() REPRESENTATION_CONTEXT('2D SPACE',''
  ) );
#352 = PCURVE('',#353,#358);
#353 = CYLINDRICAL_SURFACE('',#354,4.975);
#354 = AXIS2_PLACEMENT_3D('',#355,#356,#357);
#355 = CARTESIAN_POINT('',(0.,0.,42.));
#356 = DIRECTION('',(-0.,-0.,-1.));
#357 = DIRECTION('',(1.,0.,0.));
#358 = DEFINITIONAL_REPRESENTATION('',(#359),#362);
#359 = B_SPLINE_CURVE_WITH_KNOTS('',1,(#360,#361),.UNSPECIFIED.,.F.,.F.,
  (2,2),(0.,6.28318530718),.PIECEWISE_BEZIER_KNOTS.);
#360 = CARTESIAN_POINT('',(0.,0.));
#361 = CARTESIAN_POINT('',(-6.28318530718,0.));
#362 = ( GEOMETRIC_REPRESENTATION_CONTEXT(2) 
PARAMETRIC_REPRESENTATION_CONTEXT() REPRESENTATION_CONTEXT('2D SPACE',''
  ) );
#363 = ORIENTED_EDGE('',*,*,#318,.F.);
#364 = ADVANCED_FACE('',(#365),#68,.F.);
#365 = FACE_BOUND('',#366,.F.);
#366 = EDGE_LOOP('',(#367,#368,#369));
#367 = ORIENTED_EDGE('',*,*,#51,.T.);
#368 = ORIENTED_EDGE('',*,*,#264,.T.);
#369 = ORIENTED_EDGE('',*,*,#370,.F.);
#370 = EDGE_CURVE('',#52,#244,#371,.T.);
#371 = SURFACE_CURVE('',#372,(#376,#383),.PCURVE_S1.);
#372 = LINE('',#373,#374);
#373 = CARTESIAN_POINT('',(0.5,-10.725,14.));
#374 = VECTOR('',#375,1.);
#375 = DIRECTION('',(0.,1.,0.));
#376 = PCURVE('',#68,#377);
#377 = DEFINITIONAL_REPRESENTATION('',(#378),#382);
#378 = LINE('',#379,#380);
#379 = CARTESIAN_POINT('',(0.5,-10.725));
#380 = VECTOR('',#381,1.);
#381 = DIRECTION('',(0.,1.));
#382 = ( GEOMETRIC_REPRESENTATION_CONTEXT(2) 
PARAMETRIC_REPRESENTATION_CONTEXT() REPRESENTATION_CONTEXT('2D SPACE',''
  ) );
#383 = PCURVE('',#95,#384);
#384 = DEFINITIONAL_REPRESENTATION('',(#385),#389);
#385 = LINE('',#386,#387);
#386 = CARTESIAN_POINT('',(0.,0.));
#387 = VECTOR('',#388,1.);
#388 = DIRECTION('',(1.,0.));
#389 = ( GEOMETRIC_REPRESENTATION_CONTEXT(2) 
PARAMETRIC_REPRESENTATION_CONTEXT() REPRESENTATION_CONTEXT('2D SPACE',''
  ) );
#390 = ADVANCED_FACE('',(#391),#95,.T.);
#391 = FACE_BOUND('',#392,.T.);
#392 = EDGE_LOOP('',(#393,#394,#395,#416));
#393 = ORIENTED_EDGE('',*,*,#370,.F.);
#394 = ORIENTED_EDGE('',*,*,#80,.F.);
#395 = ORIENTED_EDGE('',*,*,#396,.T.);
#396 = EDGE_CURVE('',#81,#216,#397,.T.);
#397 = SURFACE_CURVE('',#398,(#402,#409),.PCURVE_S1.);
#398 = LINE('',#399,#400);
#399 = CARTESIAN_POINT('',(0.5,-10.725,37.));
#400 = VECTOR('',#401,1.);
#401 = DIRECTION('',(0.,1.,0.));
#402 = PCURVE('',#95,#403);
#403 = DEFINITIONAL_REPRESENTATION('',(#404),#408);
#404 = LINE('',#405,#406);
#405 = CARTESIAN_POINT('',(0.,-23.));
#406 = VECTOR('',#407,1.);
#407 = DIRECTION('',(1.,0.));
#408 = ( GEOMETRIC_REPRESENTATION_CONTEXT(2) 
PARAMETRIC_REPRESENTATION_CONTEXT() REPRESENTATION_CONTEXT('2D SPACE',''
  ) );
#409 = PCURVE('',#123,#410);
#410 = DEFINITIONAL_REPRESENTATION('',(#411),#415);
#411 = LINE('',#412,#413);
#412 = CARTESIAN_POINT('',(0.5,-10.725));
#413 = VECTOR('',#414,1.);
#414 = DIRECTION('',(0.,1.));
#415 = ( GEOMETRIC_REPRESENTATION_CONTEXT(2) 
PARAMETRIC_REPRESENTATION_CONTEXT() REPRESENTATION_CONTEXT('2D SPACE',''
  ) );
#416 = ORIENTED_EDGE('',*,*,#243,.T.);
#417 = ADVANCED_FACE('',(#418),#123,.F.);
#418 = FACE_BOUND('',#419,.F.);
#419 = EDGE_LOOP('',(#420,#441,#442,#443));
#420 = ORIENTED_EDGE('',*,*,#421,.T.);
#421 = EDGE_CURVE('',#195,#107,#422,.T.);
#422 = SURFACE_CURVE('',#423,(#427,#434),.PCURVE_S1.);
#423 = LINE('',#424,#425);
#424 = CARTESIAN_POINT('',(-0.5,10.725,37.));
#425 = VECTOR('',#426,1.);
#426 = DIRECTION('',(0.,-1.,0.));
#427 = PCURVE('',#123,#428);
#428 = DEFINITIONAL_REPRESENTATION('',(#429),#433);
#429 = LINE('',#430,#431);
#430 = CARTESIAN_POINT('',(-0.5,10.725));
#431 = VECTOR('',#432,1.);
#432 = DIRECTION('',(0.,-1.));
#433 = ( GEOMETRIC_REPRESENTATION_CONTEXT(2) 
PARAMETRIC_REPRESENTATION_CONTEXT() REPRESENTATION_CONTEXT('2D SPACE',''
  ) );
#434 = PCURVE('',#154,#435);
#435 = DEFINITIONAL_REPRESENTATION('',(#436),#440);
#436 = LINE('',#437,#438);
#437 = CARTESIAN_POINT('',(0.,-23.));
#438 = VECTOR('',#439,1.);
#439 = DIRECTION('',(1.,0.));
#440 = ( GEOMETRIC_REPRESENTATION_CONTEXT(2) 
PARAMETRIC_REPRESENTATION_CONTEXT() REPRESENTATION_CONTEXT('2D SPACE',''
  ) );
#441 = ORIENTED_EDGE('',*,*,#106,.F.);
#442 = ORIENTED_EDGE('',*,*,#396,.T.);
#443 = ORIENTED_EDGE('',*,*,#215,.F.);
#444 = ADVANCED_FACE('',(#445),#154,.T.);
#445 = FACE_BOUND('',#446,.T.);
#446 = EDGE_LOOP('',(#447,#468,#469,#470));
#447 = ORIENTED_EDGE('',*,*,#448,.F.);
#448 = EDGE_CURVE('',#166,#140,#449,.T.);
#449 = SURFACE_CURVE('',#450,(#454,#461),.PCURVE_S1.);
#450 = LINE('',#451,#452);
#451 = CARTESIAN_POINT('',(-0.5,10.725,14.));
#452 = VECTOR('',#453,1.);
#453 = DIRECTION('',(0.,-1.,0.));
#454 = PCURVE('',#154,#455);
#455 = DEFINITIONAL_REPRESENTATION('',(#456),#460);
#456 = LINE('',#457,#458);
#457 = CARTESIAN_POINT('',(0.,0.));
#458 = VECTOR('',#459,1.);
#459 = DIRECTION('',(1.,0.));
#460 = ( GEOMETRIC_REPRESENTATION_CONTEXT(2) 
PARAMETRIC_REPRESENTATION_CONTEXT() REPRESENTATION_CONTEXT('2D SPACE',''
  ) );
#461 = PCURVE('',#182,#462);
#462 = DEFINITIONAL_REPRESENTATION('',(#463),#467);
#463 = LINE('',#464,#465);
#464 = CARTESIAN_POINT('',(-0.5,10.725));
#465 = VECTOR('',#466,1.);
#466 = DIRECTION('',(0.,-1.));
#467 = ( GEOMETRIC_REPRESENTATION_CONTEXT(2) 
PARAMETRIC_REPRESENTATION_CONTEXT() REPRESENTATION_CONTEXT('2D SPACE',''
  ) );
#468 = ORIENTED_EDGE('',*,*,#194,.F.);
#469 = ORIENTED_EDGE('',*,*,#421,.T.);
#470 = ORIENTED_EDGE('',*,*,#139,.T.);
#471 = ADVANCED_FACE('',(#472),#182,.F.);
#472 = FACE_BOUND('',#473,.F.);
#473 = EDGE_LOOP('',(#474,#475));
#474 = ORIENTED_EDGE('',*,*,#448,.F.);
#475 = ORIENTED_EDGE('',*,*,#165,.T.);
#476 = ADVANCED_FACE('',(#477),#353,.T.);
#477 = FACE_BOUND('',#478,.F.);
#478 = EDGE_LOOP('',(#479,#502,#529,#530));
#479 = ORIENTED_EDGE('',*,*,#480,.T.);
#480 = EDGE_CURVE('',#319,#481,#483,.T.);
#481 = VERTEX_POINT('',#482);
#482 = CARTESIAN_POINT('',(4.975,0.,43.));
#483 = SEAM_CURVE('',#484,(#488,#495),.PCURVE_S1.);
#484 = LINE('',#485,#486);
#485 = CARTESIAN_POINT('',(4.975,0.,42.));
#486 = VECTOR('',#487,1.);
#487 = DIRECTION('',(0.,0.,1.));
#488 = PCURVE('',#353,#489);
#489 = DEFINITIONAL_REPRESENTATION('',(#490),#494);
#490 = LINE('',#491,#492);
#491 = CARTESIAN_POINT('',(-0.,0.));
#492 = VECTOR('',#493,1.);
#493 = DIRECTION('',(-0.,-1.));
#494 = ( GEOMETRIC_REPRESENTATION_CONTEXT(2) 
PARAMETRIC_REPRESENTATION_CONTEXT() REPRESENTATION_CONTEXT('2D SPACE',''
  ) );
#495 = PCURVE('',#353,#496);
#496 = DEFINITIONAL_REPRESENTATION('',(#497),#501);
#497 = LINE('',#498,#499);
#498 = CARTESIAN_POINT('',(-6.28318530718,0.));
#499 = VECTOR('',#500,1.);
#500 = DIRECTION('',(-0.,-1.));
#501 = ( GEOMETRIC_REPRESENTATION_CONTEXT(2) 
PARAMETRIC_REPRESENTATION_CONTEXT() REPRESENTATION_CONTEXT('2D SPACE',''
  ) );
#502 = ORIENTED_EDGE('',*,*,#503,.T.);
#503 = EDGE_CURVE('',#481,#481,#504,.T.);
#504 = SURFACE_CURVE('',#505,(#510,#517),.PCURVE_S1.);
#505 = CIRCLE('',#506,4.975);
#506 = AXIS2_PLACEMENT_3D('',#507,#508,#509);
#507 = CARTESIAN_POINT('',(0.,0.,43.));
#508 = DIRECTION('',(0.,0.,1.));
#509 = DIRECTION('',(1.,0.,0.));
#510 = PCURVE('',#353,#511);
#511 = DEFINITIONAL_REPRESENTATION('',(#512),#516);
#512 = LINE('',#513,#514);
#513 = CARTESIAN_POINT('',(-0.,-1.));
#514 = VECTOR('',#515,1.);
#515 = DIRECTION('',(-1.,0.));
#516 = ( GEOMETRIC_REPRESENTATION_CONTEXT(2) 
PARAMETRIC_REPRESENTATION_CONTEXT() REPRESENTATION_CONTEXT('2D SPACE',''
  ) );
#517 = PCURVE('',#518,#523);
#518 = PLANE('',#519);
#519 = AXIS2_PLACEMENT_3D('',#520,#521,#522);
#520 = CARTESIAN_POINT('',(-1.374311690994E-16,7.177507734028E-17,43.));
#521 = DIRECTION('',(0.,0.,1.));
#522 = DIRECTION('',(1.,0.,-0.));
#523 = DEFINITIONAL_REPRESENTATION('',(#524),#528);
#524 = CIRCLE('',#525,4.975);
#525 = AXIS2_PLACEMENT_2D('',#526,#527);
#526 = CARTESIAN_POINT('',(1.374311690994E-16,-7.177507734028E-17));
#527 = DIRECTION('',(1.,0.));
#528 = ( GEOMETRIC_REPRESENTATION_CONTEXT(2) 
PARAMETRIC_REPRESENTATION_CONTEXT() REPRESENTATION_CONTEXT('2D SPACE',''
  ) );
#529 = ORIENTED_EDGE('',*,*,#480,.F.);
#530 = ORIENTED_EDGE('',*,*,#338,.F.);
#531 = ADVANCED_FACE('',(#532,#535),#518,.T.);
#532 = FACE_BOUND('',#533,.T.);
#533 = EDGE_LOOP('',(#534));
#534 = ORIENTED_EDGE('',*,*,#503,.T.);
#535 = FACE_BOUND('',#536,.T.);
#536 = EDGE_LOOP('',(#537));
#537 = ORIENTED_EDGE('',*,*,#538,.T.);
#538 = EDGE_CURVE('',#539,#539,#541,.T.);
#539 = VERTEX_POINT('',#540);
#540 = CARTESIAN_POINT('',(3.975,0.,43.));
#541 = SURFACE_CURVE('',#542,(#547,#558),.PCURVE_S1.);
#542 = CIRCLE('',#543,3.975);
#543 = AXIS2_PLACEMENT_3D('',#544,#545,#546);
#544 = CARTESIAN_POINT('',(0.,0.,43.));
#545 = DIRECTION('',(0.,0.,-1.));
#546 = DIRECTION('',(1.,0.,0.));
#547 = PCURVE('',#518,#548);
#548 = DEFINITIONAL_REPRESENTATION('',(#549),#557);
#549 = ( BOUNDED_CURVE() B_SPLINE_CURVE(2,(#550,#551,#552,#553,#554,#555
,#556),.UNSPECIFIED.,.T.,.F.) B_SPLINE_CURVE_WITH_KNOTS((1,2,2,2,2,1),(
    -2.094395102393,0.,2.094395102393,4.188790204786,6.28318530718,
8.377580409573),.UNSPECIFIED.) CURVE() GEOMETRIC_REPRESENTATION_ITEM() 
RATIONAL_B_SPLINE_CURVE((1.,0.5,1.,0.5,1.,0.5,1.)) REPRESENTATION_ITEM(
  '') );
#550 = CARTESIAN_POINT('',(3.975,-7.177507734028E-17));
#551 = CARTESIAN_POINT('',(3.975,-6.884901960086));
#552 = CARTESIAN_POINT('',(-1.9875,-3.442450980043));
#553 = CARTESIAN_POINT('',(-7.95,-1.045369282662E-15));
#554 = CARTESIAN_POINT('',(-1.9875,3.442450980043));
#555 = CARTESIAN_POINT('',(3.975,6.884901960086));
#556 = CARTESIAN_POINT('',(3.975,-7.177507734028E-17));
#557 = ( GEOMETRIC_REPRESENTATION_CONTEXT(2) 
PARAMETRIC_REPRESENTATION_CONTEXT() REPRESENTATION_CONTEXT('2D SPACE',''
  ) );
#558 = PCURVE('',#559,#564);
#559 = CYLINDRICAL_SURFACE('',#560,3.975);
#560 = AXIS2_PLACEMENT_3D('',#561,#562,#563);
#561 = CARTESIAN_POINT('',(0.,0.,14.));
#562 = DIRECTION('',(-0.,-0.,-1.));
#563 = DIRECTION('',(1.,0.,0.));
#564 = DEFINITIONAL_REPRESENTATION('',(#565),#569);
#565 = LINE('',#566,#567);
#566 = CARTESIAN_POINT('',(-6.28318530718,-29.));
#567 = VECTOR('',#568,1.);
#568 = DIRECTION('',(1.,-0.));
#569 = ( GEOMETRIC_REPRESENTATION_CONTEXT(2) 
PARAMETRIC_REPRESENTATION_CONTEXT() REPRESENTATION_CONTEXT('2D SPACE',''
  ) );
#570 = ADVANCED_FACE('',(#571,#625,#796),#559,.T.);
#571 = FACE_BOUND('',#572,.F.);
#572 = EDGE_LOOP('',(#573,#596,#597,#598));
#573 = ORIENTED_EDGE('',*,*,#574,.F.);
#574 = EDGE_CURVE('',#539,#575,#577,.T.);
#575 = VERTEX_POINT('',#576);
#576 = CARTESIAN_POINT('',(3.975,0.,63.5));
#577 = SEAM_CURVE('',#578,(#582,#589),.PCURVE_S1.);
#578 = LINE('',#579,#580);
#579 = CARTESIAN_POINT('',(3.975,0.,14.));
#580 = VECTOR('',#581,1.);
#581 = DIRECTION('',(0.,0.,1.));
#582 = PCURVE('',#559,#583);
#583 = DEFINITIONAL_REPRESENTATION('',(#584),#588);
#584 = LINE('',#585,#586);
#585 = CARTESIAN_POINT('',(-6.28318530718,0.));
#586 = VECTOR('',#587,1.);
#587 = DIRECTION('',(-0.,-1.));
#588 = ( GEOMETRIC_REPRESENTATION_CONTEXT(2) 
PARAMETRIC_REPRESENTATION_CONTEXT() REPRESENTATION_CONTEXT('2D SPACE',''
  ) );
#589 = PCURVE('',#559,#590);
#590 = DEFINITIONAL_REPRESENTATION('',(#591),#595);
#591 = LINE('',#592,#593);
#592 = CARTESIAN_POINT('',(-0.,0.));
#593 = VECTOR('',#594,1.);
#594 = DIRECTION('',(-0.,-1.));
#595 = ( GEOMETRIC_REPRESENTATION_CONTEXT(2) 
PARAMETRIC_REPRESENTATION_CONTEXT() REPRESENTATION_CONTEXT('2D SPACE',''
  ) );
#596 = ORIENTED_EDGE('',*,*,#538,.T.);
#597 = ORIENTED_EDGE('',*,*,#574,.T.);
#598 = ORIENTED_EDGE('',*,*,#599,.T.);
#599 = EDGE_CURVE('',#575,#575,#600,.T.);
#600 = SURFACE_CURVE('',#601,(#606,#613),.PCURVE_S1.);
#601 = CIRCLE('',#602,3.975);
#602 = AXIS2_PLACEMENT_3D('',#603,#604,#605);
#603 = CARTESIAN_POINT('',(0.,0.,63.5));
#604 = DIRECTION('',(0.,0.,1.));
#605 = DIRECTION('',(1.,0.,0.));
#606 = PCURVE('',#559,#607);
#607 = DEFINITIONAL_REPRESENTATION('',(#608),#612);
#608 = LINE('',#609,#610);
#609 = CARTESIAN_POINT('',(-0.,-49.5));
#610 = VECTOR('',#611,1.);
#611 = DIRECTION('',(-1.,0.));
#612 = ( GEOMETRIC_REPRESENTATION_CONTEXT(2) 
PARAMETRIC_REPRESENTATION_CONTEXT() REPRESENTATION_CONTEXT('2D SPACE',''
  ) );
#613 = PCURVE('',#614,#619);
#614 = PLANE('',#615);
#615 = AXIS2_PLACEMENT_3D('',#616,#617,#618);
#616 = CARTESIAN_POINT('',(-2.580075721772E-16,9.739347231142E-18,63.5)
  );
#617 = DIRECTION('',(0.,0.,1.));
#618 = DIRECTION('',(1.,0.,-0.));
#619 = DEFINITIONAL_REPRESENTATION('',(#620),#624);
#620 = CIRCLE('',#621,3.975);
#621 = AXIS2_PLACEMENT_2D('',#622,#623);
#622 = CARTESIAN_POINT('',(2.580075721772E-16,-9.739347231142E-18));
#623 = DIRECTION('',(1.,0.));
#624 = ( GEOMETRIC_REPRESENTATION_CONTEXT(2) 
PARAMETRIC_REPRESENTATION_CONTEXT() REPRESENTATION_CONTEXT('2D SPACE',''
  ) );
#625 = FACE_BOUND('',#626,.F.);
#626 = EDGE_LOOP('',(#627));
#627 = ORIENTED_EDGE('',*,*,#628,.T.);
#628 = EDGE_CURVE('',#629,#629,#631,.T.);
#629 = VERTEX_POINT('',#630);
#630 = CARTESIAN_POINT('',(-2.939152317954E-16,3.975,59.7));
#631 = SURFACE_CURVE('',#632,(#683,#737),.PCURVE_S1.);
#632 = B_SPLINE_CURVE_WITH_KNOTS('',7,(#633,#634,#635,#636,#637,#638,
    #639,#640,#641,#642,#643,#644,#645,#646,#647,#648,#649,#650,#651,
    #652,#653,#654,#655,#656,#657,#658,#659,#660,#661,#662,#663,#664,
    #665,#666,#667,#668,#669,#670,#671,#672,#673,#674,#675,#676,#677,
    #678,#679,#680,#681,#682),.UNSPECIFIED.,.T.,.F.,(8,6,6,6,6,6,6,6,8),
  (0.,0.126032899527,0.271466017073,0.433251004777,0.580637059617,
    0.676649051616,0.782232542852,0.898911666145,1.),.UNSPECIFIED.);
#633 = CARTESIAN_POINT('',(0.,3.975,59.7));
#634 = CARTESIAN_POINT('',(0.143089867062,3.975,59.7));
#635 = CARTESIAN_POINT('',(0.283807293316,3.96899042207,59.680094122664)
  );
#636 = CARTESIAN_POINT('',(0.418778308428,3.957331592745,59.64146990344)
  );
#637 = CARTESIAN_POINT('',(0.544953163833,3.941160625131,59.58602378554)
  );
#638 = CARTESIAN_POINT('',(0.659743831673,3.922229033339,59.516358464901
    ));
#639 = CARTESIAN_POINT('',(0.761234916028,3.902451834265,59.435821358819
    ));
#640 = CARTESIAN_POINT('',(0.949258386239,3.861368220119,59.247797888609
    ));
#641 = CARTESIAN_POINT('',(1.03312505261,3.8398492872,59.136029787032));
#642 = CARTESIAN_POINT('',(1.100007411212,3.820696636219,59.016247302707
    ));
#643 = CARTESIAN_POINT('',(1.15002272877,3.805367351052,58.890842251163)
  );
#644 = CARTESIAN_POINT('',(1.18332179673,3.794822868685,58.7618260432));
#645 = CARTESIAN_POINT('',(1.2,3.789541528998,58.630976479383));
#646 = CARTESIAN_POINT('',(1.2,3.789541528998,58.354297092271));
#647 = CARTESIAN_POINT('',(1.179360624654,3.796077194871,58.208796413857
    ));
#648 = CARTESIAN_POINT('',(1.138183121097,3.809116553397,58.065795479704
    ));
#649 = CARTESIAN_POINT('',(1.076293474911,3.827935560328,57.927730135347
    ));
#650 = CARTESIAN_POINT('',(0.993452852352,3.851070661875,57.797455303386
    ));
#651 = CARTESIAN_POINT('',(0.889523111207,3.876273918707,57.678474042574
    ));
#652 = CARTESIAN_POINT('',(0.651385192098,3.922971514984,57.481469222823
    ));
#653 = CARTESIAN_POINT('',(0.517031579883,3.945313518114,57.397711403395
    ));
#654 = CARTESIAN_POINT('',(0.364807950586,3.964617373984,57.332978401049
    ));
#655 = CARTESIAN_POINT('',(0.200248191836,3.97723788545,57.293015359642)
  );
#656 = CARTESIAN_POINT('',(3.016255010516E-02,3.980925774175,
    57.280783073964));
#657 = CARTESIAN_POINT('',(-0.138252086564,3.975841177673,
    57.296574056859));
#658 = CARTESIAN_POINT('',(-0.402771491515,3.95592586295,57.364491096521
    ));
#659 = CARTESIAN_POINT('',(-0.504285706873,3.945060187265,
    57.402204685481));
#660 = CARTESIAN_POINT('',(-0.601612652831,3.931575203477,
    57.450481663107));
#661 = CARTESIAN_POINT('',(-0.693458163125,3.916083291505,
    57.508762346134));
#662 = CARTESIAN_POINT('',(-0.778608540334,3.899385049998,
    57.576288748015));
#663 = CARTESIAN_POINT('',(-0.855967872821,3.882386651959,
    57.652110012656));
#664 = CARTESIAN_POINT('',(-1.00010747639,3.847913071302,57.826344862841
    ));
#665 = CARTESIAN_POINT('',(-1.06516250973,3.830536468925,57.926375916552
    ));
#666 = CARTESIAN_POINT('',(-1.118458316054,3.815020205444,
    58.033658529854));
#667 = CARTESIAN_POINT('',(-1.159054950965,3.802508734551,58.14647137826
    ));
#668 = CARTESIAN_POINT('',(-1.186340880135,3.793866203988,
    58.263015393457));
#669 = CARTESIAN_POINT('',(-1.2,3.789541528998,58.381471735487));
#670 = CARTESIAN_POINT('',(-1.2,3.789541528998,58.630984245992));
#671 = CARTESIAN_POINT('',(-1.183319831489,3.794823489988,
    58.761834053708));
#672 = CARTESIAN_POINT('',(-1.150020220071,3.805368148768,
    58.890846471318));
#673 = CARTESIAN_POINT('',(-1.100006435053,3.820696819079,
    59.016247012254));
#674 = CARTESIAN_POINT('',(-1.033126570475,3.839848792584,
    59.136026837373));
#675 = CARTESIAN_POINT('',(-0.949260950838,3.861367659747,59.24779532401
    ));
#676 = CARTESIAN_POINT('',(-0.76125535044,3.902447369293,59.435800924407
    ));
#677 = CARTESIAN_POINT('',(-0.659761484581,3.922226296293,
    59.516350630488));
#678 = CARTESIAN_POINT('',(-0.544949277636,3.941162853538,
    59.586033506041));
#679 = CARTESIAN_POINT('',(-0.418746660218,3.957336875363,
    59.641487358655));
#680 = CARTESIAN_POINT('',(-0.28375740029,3.968994024923,59.680106071033
    ));
#681 = CARTESIAN_POINT('',(-0.143046925203,3.975,59.7));
#682 = CARTESIAN_POINT('',(0.,3.975,59.7));
#683 = PCURVE('',#559,#684);
#684 = DEFINITIONAL_REPRESENTATION('',(#685),#736);
#685 = B_SPLINE_CURVE_WITH_KNOTS('',7,(#686,#687,#688,#689,#690,#691,
    #692,#693,#694,#695,#696,#697,#698,#699,#700,#701,#702,#703,#704,
    #705,#706,#707,#708,#709,#710,#711,#712,#713,#714,#715,#716,#717,
    #718,#719,#720,#721,#722,#723,#724,#725,#726,#727,#728,#729,#730,
    #731,#732,#733,#734,#735),.UNSPECIFIED.,.T.,.F.,(8,6,6,6,6,6,6,6,8),
  (0.,0.126032899527,0.271466017073,0.433251004777,0.580637059617,
    0.676649051616,0.782232542852,0.898911666145,1.),.UNSPECIFIED.);
#686 = CARTESIAN_POINT('',(-1.570796326795,-45.7));
#687 = CARTESIAN_POINT('',(-1.534798875962,-45.7));
#688 = CARTESIAN_POINT('',(-1.499398215487,-45.68009412266));
#689 = CARTESIAN_POINT('',(-1.465367319887,-45.64146990344));
#690 = CARTESIAN_POINT('',(-1.433407302036,-45.58602378554));
#691 = CARTESIAN_POINT('',(-1.404159312775,-45.5163584649));
#692 = CARTESIAN_POINT('',(-1.378153438785,-45.43582135881));
#693 = CARTESIAN_POINT('',(-1.329735935188,-45.2477978886));
#694 = CARTESIAN_POINT('',(-1.307968111403,-45.13602978703));
#695 = CARTESIAN_POINT('',(-1.290473083002,-45.0162473027));
#696 = CARTESIAN_POINT('',(-1.277313329948,-44.89084225116));
#697 = CARTESIAN_POINT('',(-1.268526282471,-44.7618260432));
#698 = CARTESIAN_POINT('',(-1.264125160042,-44.63097647938));
#699 = CARTESIAN_POINT('',(-1.264125160042,-44.35429709227));
#700 = CARTESIAN_POINT('',(-1.269571591504,-44.20879641385));
#701 = CARTESIAN_POINT('',(-1.280437536721,-44.0657954797));
#702 = CARTESIAN_POINT('',(-1.296710467213,-43.92773013534));
#703 = CARTESIAN_POINT('',(-1.318334784491,-43.79745530338));
#704 = CARTESIAN_POINT('',(-1.345212043619,-43.67847404257));
#705 = CARTESIAN_POINT('',(-1.406261932216,-43.48146922282));
#706 = CARTESIAN_POINT('',(-1.440511213145,-43.39771140339));
#707 = CARTESIAN_POINT('',(-1.479066975192,-43.33297840104));
#708 = CARTESIAN_POINT('',(-1.52048323194,-43.29301535964));
#709 = CARTESIAN_POINT('',(-1.56318822441,-43.28078307396));
#710 = CARTESIAN_POINT('',(-1.605533387793,-43.29657405685));
#711 = CARTESIAN_POINT('',(-1.672267487001,-43.36449109652));
#712 = CARTESIAN_POINT('',(-1.69793882946,-43.40220468548));
#713 = CARTESIAN_POINT('',(-1.722638877701,-43.4504816631));
#714 = CARTESIAN_POINT('',(-1.746054959328,-43.50876234613));
#715 = CARTESIAN_POINT('',(-1.767875089855,-43.57628874801));
#716 = CARTESIAN_POINT('',(-1.787797466672,-43.65211001265));
#717 = CARTESIAN_POINT('',(-1.825081684885,-43.82634486284));
#718 = CARTESIAN_POINT('',(-1.842015504217,-43.92637591655));
#719 = CARTESIAN_POINT('',(-1.855976176816,-44.03365852985));
#720 = CARTESIAN_POINT('',(-1.866662318405,-44.14647137826));
#721 = CARTESIAN_POINT('',(-1.873863246819,-44.26301539345));
#722 = CARTESIAN_POINT('',(-1.877467493548,-44.38147173548));
#723 = CARTESIAN_POINT('',(-1.877467493548,-44.63098424599));
#724 = CARTESIAN_POINT('',(-1.873065851665,-44.7618340537));
#725 = CARTESIAN_POINT('',(-1.864278663193,-44.89084647131));
#726 = CARTESIAN_POINT('',(-1.851119321524,-45.01624701225));
#727 = CARTESIAN_POINT('',(-1.833624942325,-45.13602683737));
#728 = CARTESIAN_POINT('',(-1.811857378806,-45.24779532401));
#729 = CARTESIAN_POINT('',(-1.763444476824,-45.4358009244));
#730 = CARTESIAN_POINT('',(-1.737437827121,-45.51635063048));
#731 = CARTESIAN_POINT('',(-1.708184286612,-45.58603350604));
#732 = CARTESIAN_POINT('',(-1.676217299617,-45.64148735865));
#733 = CARTESIAN_POINT('',(-1.642181887471,-45.68010607103));
#734 = CARTESIAN_POINT('',(-1.606782974645,-45.7));
#735 = CARTESIAN_POINT('',(-1.570796326795,-45.7));
#736 = ( GEOMETRIC_REPRESENTATION_CONTEXT(2) 
PARAMETRIC_REPRESENTATION_CONTEXT() REPRESENTATION_CONTEXT('2D SPACE',''
  ) );
#737 = PCURVE('',#738,#743);
#738 = CYLINDRICAL_SURFACE('',#739,1.2);
#739 = AXIS2_PLACEMENT_3D('',#740,#741,#742);
#740 = CARTESIAN_POINT('',(0.,-5.,58.5));
#741 = DIRECTION('',(0.,1.,0.));
#742 = DIRECTION('',(0.,-0.,1.));
#743 = DEFINITIONAL_REPRESENTATION('',(#744),#795);
#744 = B_SPLINE_CURVE_WITH_KNOTS('',7,(#745,#746,#747,#748,#749,#750,
    #751,#752,#753,#754,#755,#756,#757,#758,#759,#760,#761,#762,#763,
    #764,#765,#766,#767,#768,#769,#770,#771,#772,#773,#774,#775,#776,
    #777,#778,#779,#780,#781,#782,#783,#784,#785,#786,#787,#788,#789,
    #790,#791,#792,#793,#794),.UNSPECIFIED.,.F.,.F.,(8,6,6,6,6,6,6,6,8),
  (0.,0.126032899527,0.271466017073,0.433251004777,0.580637059617,
    0.676649051616,0.782232542852,0.898911666145,1.),.UNSPECIFIED.);
#745 = CARTESIAN_POINT('',(0.,8.975));
#746 = CARTESIAN_POINT('',(0.119241555885,8.975));
#747 = CARTESIAN_POINT('',(0.236506025563,8.96899042207));
#748 = CARTESIAN_POINT('',(0.351751312308,8.957331592745));
#749 = CARTESIAN_POINT('',(0.464791151597,8.941160625131));
#750 = CARTESIAN_POINT('',(0.575260935291,8.922229033339));
#751 = CARTESIAN_POINT('',(0.682522115397,8.902451834265));
#752 = CARTESIAN_POINT('',(0.904109900077,8.861368220119));
#753 = CARTESIAN_POINT('',(1.019388896868,8.8398492872));
#754 = CARTESIAN_POINT('',(1.132114001918,8.820696636219));
#755 = CARTESIAN_POINT('',(1.242970348932,8.805367351052));
#756 = CARTESIAN_POINT('',(1.352608043005,8.794822868685));
#757 = CARTESIAN_POINT('',(1.461649260642,8.789541528998));
#758 = CARTESIAN_POINT('',(1.692215416569,8.789541528998));
#759 = CARTESIAN_POINT('',(1.813465747382,8.796077194871));
#760 = CARTESIAN_POINT('',(1.935557930932,8.809116553397));
#761 = CARTESIAN_POINT('',(2.059345432606,8.827935560328));
#762 = CARTESIAN_POINT('',(2.185733890921,8.851070661875));
#763 = CARTESIAN_POINT('',(2.315668116904,8.876273918707));
#764 = CARTESIAN_POINT('',(2.573221465642,8.922971514984));
#765 = CARTESIAN_POINT('',(2.703981124344,8.945313518114));
#766 = CARTESIAN_POINT('',(2.839125865415,8.964617373984));
#767 = CARTESIAN_POINT('',(2.976874077527,8.97723788545));
#768 = CARTESIAN_POINT('',(3.115902590826,8.980925774175));
#769 = CARTESIAN_POINT('',(3.255110716732,8.975841177673));
#770 = CARTESIAN_POINT('',(3.482693485363,8.95592586295));
#771 = CARTESIAN_POINT('',(3.57244665609,8.945060187265));
#772 = CARTESIAN_POINT('',(3.662191531524,8.931575203477));
#773 = CARTESIAN_POINT('',(3.751945083827,8.916083291505));
#774 = CARTESIAN_POINT('',(3.841715459451,8.899385049998));
#775 = CARTESIAN_POINT('',(3.931491924033,8.882386651959));
#776 = CARTESIAN_POINT('',(4.119932174539,8.847913071302));
#777 = CARTESIAN_POINT('',(4.218717310995,8.830536468925));
#778 = CARTESIAN_POINT('',(4.317485162985,8.815020205444));
#779 = CARTESIAN_POINT('',(4.416206639326,8.802508734551));
#780 = CARTESIAN_POINT('',(4.514902265887,8.793866203988));
#781 = CARTESIAN_POINT('',(4.613615426624,8.789541528998));
#782 = CARTESIAN_POINT('',(4.821542518712,8.789541528998));
#783 = CARTESIAN_POINT('',(4.930583928816,8.794823489988));
#784 = CARTESIAN_POINT('',(5.040218867686,8.805368148768));
#785 = CARTESIAN_POINT('',(5.151071482812,8.82069681908));
#786 = CARTESIAN_POINT('',(5.263793782494,8.839848792584));
#787 = CARTESIAN_POINT('',(5.379072384694,8.861367659747));
#788 = CARTESIAN_POINT('',(5.600639109597,8.902447369293));
#789 = CARTESIAN_POINT('',(5.707909357868,8.922226296293));
#790 = CARTESIAN_POINT('',(5.818400902604,8.941162853538));
#791 = CARTESIAN_POINT('',(5.931462838738,8.957336875363));
#792 = CARTESIAN_POINT('',(6.046720864238,8.968994024923));
#793 = CARTESIAN_POINT('',(6.163979536177,8.975));
#794 = CARTESIAN_POINT('',(6.28318530718,8.975));
#795 = ( GEOMETRIC_REPRESENTATION_CONTEXT(2) 
PARAMETRIC_REPRESENTATION_CONTEXT() REPRESENTATION_CONTEXT('2D SPACE',''
  ) );
#796 = FACE_BOUND('',#797,.F.);
#797 = EDGE_LOOP('',(#798));
#798 = ORIENTED_EDGE('',*,*,#799,.F.);
#799 = EDGE_CURVE('',#800,#800,#802,.T.);
#800 = VERTEX_POINT('',#801);
#801 = CARTESIAN_POINT('',(-2.939152317954E-16,-3.975,59.7));
#802 = SURFACE_CURVE('',#803,(#854,#908),.PCURVE_S1.);
#803 = B_SPLINE_CURVE_WITH_KNOTS('',7,(#804,#805,#806,#807,#808,#809,
    #810,#811,#812,#813,#814,#815,#816,#817,#818,#819,#820,#821,#822,
    #823,#824,#825,#826,#827,#828,#829,#830,#831,#832,#833,#834,#835,
    #836,#837,#838,#839,#840,#841,#842,#843,#844,#845,#846,#847,#848,
    #849,#850,#851,#852,#853),.UNSPECIFIED.,.T.,.F.,(8,6,6,6,6,6,6,6,8),
  (0.,0.126032899058,0.271466016063,0.433251003165,0.580637057456,
    0.676649049098,0.782232539942,0.898911664101,1.),.UNSPECIFIED.);
#804 = CARTESIAN_POINT('',(-4.440892098501E-16,-3.975,59.7));
#805 = CARTESIAN_POINT('',(0.143089867062,-3.975,59.7));
#806 = CARTESIAN_POINT('',(0.283807293316,-3.96899042207,59.680094122664
    ));
#807 = CARTESIAN_POINT('',(0.418778308428,-3.957331592745,59.64146990344
    ));
#808 = CARTESIAN_POINT('',(0.544953163833,-3.941160625131,59.58602378554
    ));
#809 = CARTESIAN_POINT('',(0.659743831673,-3.922229033339,
    59.516358464901));
#810 = CARTESIAN_POINT('',(0.761234916028,-3.902451834265,
    59.435821358819));
#811 = CARTESIAN_POINT('',(0.949258386239,-3.861368220119,
    59.247797888609));
#812 = CARTESIAN_POINT('',(1.03312505261,-3.8398492872,59.136029787033)
  );
#813 = CARTESIAN_POINT('',(1.100007411213,-3.820696636219,
    59.016247302706));
#814 = CARTESIAN_POINT('',(1.15002272877,-3.805367351052,58.890842251164
    ));
#815 = CARTESIAN_POINT('',(1.18332179673,-3.794822868685,58.7618260432)
  );
#816 = CARTESIAN_POINT('',(1.2,-3.789541528998,58.630976479383));
#817 = CARTESIAN_POINT('',(1.2,-3.789541528998,58.354297092271));
#818 = CARTESIAN_POINT('',(1.179360624654,-3.796077194871,
    58.208796413857));
#819 = CARTESIAN_POINT('',(1.138183121097,-3.809116553397,
    58.065795479704));
#820 = CARTESIAN_POINT('',(1.076293474911,-3.827935560328,
    57.927730135347));
#821 = CARTESIAN_POINT('',(0.993452852353,-3.851070661875,
    57.797455303386));
#822 = CARTESIAN_POINT('',(0.889523111207,-3.876273918707,
    57.678474042574));
#823 = CARTESIAN_POINT('',(0.651385192098,-3.922971514984,
    57.481469222823));
#824 = CARTESIAN_POINT('',(0.517031579882,-3.945313518114,
    57.397711403395));
#825 = CARTESIAN_POINT('',(0.364807950586,-3.964617373984,
    57.332978401049));
#826 = CARTESIAN_POINT('',(0.200248191835,-3.97723788545,57.293015359642
    ));
#827 = CARTESIAN_POINT('',(3.016255010535E-02,-3.980925774175,
    57.280783073964));
#828 = CARTESIAN_POINT('',(-0.138252086564,-3.975841177673,
    57.296574056859));
#829 = CARTESIAN_POINT('',(-0.402771491515,-3.95592586295,
    57.364491096521));
#830 = CARTESIAN_POINT('',(-0.504285706873,-3.945060187265,
    57.402204685481));
#831 = CARTESIAN_POINT('',(-0.601612652831,-3.931575203477,
    57.450481663107));
#832 = CARTESIAN_POINT('',(-0.693458163125,-3.916083291505,
    57.508762346134));
#833 = CARTESIAN_POINT('',(-0.778608540334,-3.899385049998,
    57.576288748015));
#834 = CARTESIAN_POINT('',(-0.855967872821,-3.882386651959,
    57.652110012656));
#835 = CARTESIAN_POINT('',(-1.00010747639,-3.847913071302,
    57.826344862841));
#836 = CARTESIAN_POINT('',(-1.06516250973,-3.830536468925,
    57.926375916552));
#837 = CARTESIAN_POINT('',(-1.118458316054,-3.815020205444,
    58.033658529854));
#838 = CARTESIAN_POINT('',(-1.159054950965,-3.802508734551,
    58.14647137826));
#839 = CARTESIAN_POINT('',(-1.186340880135,-3.793866203988,
    58.263015393457));
#840 = CARTESIAN_POINT('',(-1.2,-3.789541528998,58.381471735487));
#841 = CARTESIAN_POINT('',(-1.2,-3.789541528998,58.630984247452));
#842 = CARTESIAN_POINT('',(-1.183319831106,-3.794823490051,
    58.761834049992));
#843 = CARTESIAN_POINT('',(-1.150020221951,-3.805368148389,
    58.890846474247));
#844 = CARTESIAN_POINT('',(-1.100006431421,-3.820696819869,
    59.016247013248));
#845 = CARTESIAN_POINT('',(-1.033126573806,-3.839848791846,
    59.136026834592));
#846 = CARTESIAN_POINT('',(-0.949260949548,-3.861367660029,59.2477953253
    ));
#847 = CARTESIAN_POINT('',(-0.76125535044,-3.902447369293,
    59.435800924407));
#848 = CARTESIAN_POINT('',(-0.659761484581,-3.922226296293,
    59.516350630488));
#849 = CARTESIAN_POINT('',(-0.544949277636,-3.941162853538,
    59.586033506041));
#850 = CARTESIAN_POINT('',(-0.418746660218,-3.957336875363,
    59.641487358655));
#851 = CARTESIAN_POINT('',(-0.28375740029,-3.968994024923,
    59.680106071033));
#852 = CARTESIAN_POINT('',(-0.143046925203,-3.975,59.7));
#853 = CARTESIAN_POINT('',(-4.440892098501E-16,-3.975,59.7));
#854 = PCURVE('',#559,#855);
#855 = DEFINITIONAL_REPRESENTATION('',(#856),#907);
#856 = B_SPLINE_CURVE_WITH_KNOTS('',7,(#857,#858,#859,#860,#861,#862,
    #863,#864,#865,#866,#867,#868,#869,#870,#871,#872,#873,#874,#875,
    #876,#877,#878,#879,#880,#881,#882,#883,#884,#885,#886,#887,#888,
    #889,#890,#891,#892,#893,#894,#895,#896,#897,#898,#899,#900,#901,
    #902,#903,#904,#905,#906),.UNSPECIFIED.,.T.,.F.,(8,6,6,6,6,6,6,6,8),
  (0.,0.126032899058,0.271466016063,0.433251003165,0.580637057456,
    0.676649049098,0.782232539942,0.898911664101,1.),.UNSPECIFIED.);
#857 = CARTESIAN_POINT('',(-4.712388980385,-45.7));
#858 = CARTESIAN_POINT('',(-4.748386431218,-45.7));
#859 = CARTESIAN_POINT('',(-4.783787091693,-45.68009412266));
#860 = CARTESIAN_POINT('',(-4.817817987293,-45.64146990344));
#861 = CARTESIAN_POINT('',(-4.849778005144,-45.58602378554));
#862 = CARTESIAN_POINT('',(-4.879025994405,-45.5163584649));
#863 = CARTESIAN_POINT('',(-4.905031868394,-45.43582135881));
#864 = CARTESIAN_POINT('',(-4.953449371991,-45.2477978886));
#865 = CARTESIAN_POINT('',(-4.975217195777,-45.13602978703));
#866 = CARTESIAN_POINT('',(-4.992712224178,-45.0162473027));
#867 = CARTESIAN_POINT('',(-5.005871977232,-44.89084225116));
#868 = CARTESIAN_POINT('',(-5.014659024708,-44.7618260432));
#869 = CARTESIAN_POINT('',(-5.019060147138,-44.63097647938));
#870 = CARTESIAN_POINT('',(-5.019060147138,-44.35429709227));
#871 = CARTESIAN_POINT('',(-5.013613715676,-44.20879641385));
#872 = CARTESIAN_POINT('',(-5.002747770459,-44.0657954797));
#873 = CARTESIAN_POINT('',(-4.986474839967,-43.92773013534));
#874 = CARTESIAN_POINT('',(-4.964850522688,-43.79745530338));
#875 = CARTESIAN_POINT('',(-4.937973263561,-43.67847404257));
#876 = CARTESIAN_POINT('',(-4.876923374963,-43.48146922282));
#877 = CARTESIAN_POINT('',(-4.842674094034,-43.39771140339));
#878 = CARTESIAN_POINT('',(-4.804118331988,-43.33297840104));
#879 = CARTESIAN_POINT('',(-4.762702075239,-43.29301535964));
#880 = CARTESIAN_POINT('',(-4.71999708277,-43.28078307396));
#881 = CARTESIAN_POINT('',(-4.677651919387,-43.29657405685));
#882 = CARTESIAN_POINT('',(-4.610917820178,-43.36449109652));
#883 = CARTESIAN_POINT('',(-4.585246477719,-43.40220468548));
#884 = CARTESIAN_POINT('',(-4.560546429478,-43.4504816631));
#885 = CARTESIAN_POINT('',(-4.537130347852,-43.50876234613));
#886 = CARTESIAN_POINT('',(-4.515310217324,-43.57628874801));
#887 = CARTESIAN_POINT('',(-4.495387840508,-43.65211001265));
#888 = CARTESIAN_POINT('',(-4.458103622294,-43.82634486284));
#889 = CARTESIAN_POINT('',(-4.441169802963,-43.92637591655));
#890 = CARTESIAN_POINT('',(-4.427209130364,-44.03365852985));
#891 = CARTESIAN_POINT('',(-4.416522988775,-44.14647137826));
#892 = CARTESIAN_POINT('',(-4.409322060361,-44.26301539345));
#893 = CARTESIAN_POINT('',(-4.405717813632,-44.38147173548));
#894 = CARTESIAN_POINT('',(-4.405717813632,-44.63098424745));
#895 = CARTESIAN_POINT('',(-4.410119455611,-44.76183404999));
#896 = CARTESIAN_POINT('',(-4.418906643504,-44.89084647424));
#897 = CARTESIAN_POINT('',(-4.432065986591,-45.01624701324));
#898 = CARTESIAN_POINT('',(-4.449560363996,-45.13602683459));
#899 = CARTESIAN_POINT('',(-4.471327928706,-45.2477953253));
#900 = CARTESIAN_POINT('',(-4.519740830355,-45.4358009244));
#901 = CARTESIAN_POINT('',(-4.545747480059,-45.51635063048));
#902 = CARTESIAN_POINT('',(-4.575001020567,-45.58603350604));
#903 = CARTESIAN_POINT('',(-4.606968007563,-45.64148735865));
#904 = CARTESIAN_POINT('',(-4.641003419708,-45.68010607103));
#905 = CARTESIAN_POINT('',(-4.676402332535,-45.7));
#906 = CARTESIAN_POINT('',(-4.712388980385,-45.7));
#907 = ( GEOMETRIC_REPRESENTATION_CONTEXT(2) 
PARAMETRIC_REPRESENTATION_CONTEXT() REPRESENTATION_CONTEXT('2D SPACE',''
  ) );
#908 = PCURVE('',#738,#909);
#909 = DEFINITIONAL_REPRESENTATION('',(#910),#961);
#910 = B_SPLINE_CURVE_WITH_KNOTS('',7,(#911,#912,#913,#914,#915,#916,
    #917,#918,#919,#920,#921,#922,#923,#924,#925,#926,#927,#928,#929,
    #930,#931,#932,#933,#934,#935,#936,#937,#938,#939,#940,#941,#942,
    #943,#944,#945,#946,#947,#948,#949,#950,#951,#952,#953,#954,#955,
    #956,#957,#958,#959,#960),.UNSPECIFIED.,.F.,.F.,(8,6,6,6,6,6,6,6,8),
  (0.,0.126032899058,0.271466016063,0.433251003165,0.580637057456,
    0.676649049098,0.782232539942,0.898911664101,1.),.UNSPECIFIED.);
#911 = CARTESIAN_POINT('',(0.,1.025));
#912 = CARTESIAN_POINT('',(0.119241555885,1.025));
#913 = CARTESIAN_POINT('',(0.236506025563,1.03100957793));
#914 = CARTESIAN_POINT('',(0.351751312308,1.042668407255));
#915 = CARTESIAN_POINT('',(0.464791151597,1.058839374869));
#916 = CARTESIAN_POINT('',(0.575260935291,1.077770966661));
#917 = CARTESIAN_POINT('',(0.682522115397,1.097548165735));
#918 = CARTESIAN_POINT('',(0.904109900077,1.138631779881));
#919 = CARTESIAN_POINT('',(1.019388896868,1.1601507128));
#920 = CARTESIAN_POINT('',(1.132114001919,1.179303363781));
#921 = CARTESIAN_POINT('',(1.242970348932,1.194632648948));
#922 = CARTESIAN_POINT('',(1.352608043005,1.205177131315));
#923 = CARTESIAN_POINT('',(1.461649260642,1.210458471002));
#924 = CARTESIAN_POINT('',(1.692215416569,1.210458471002));
#925 = CARTESIAN_POINT('',(1.813465747382,1.203922805129));
#926 = CARTESIAN_POINT('',(1.935557930932,1.190883446603));
#927 = CARTESIAN_POINT('',(2.059345432606,1.172064439672));
#928 = CARTESIAN_POINT('',(2.185733890921,1.148929338125));
#929 = CARTESIAN_POINT('',(2.315668116904,1.123726081293));
#930 = CARTESIAN_POINT('',(2.573221465642,1.077028485016));
#931 = CARTESIAN_POINT('',(2.703981124345,1.054686481886));
#932 = CARTESIAN_POINT('',(2.839125865415,1.035382626016));
#933 = CARTESIAN_POINT('',(2.976874077527,1.02276211455));
#934 = CARTESIAN_POINT('',(3.115902590826,1.019074225825));
#935 = CARTESIAN_POINT('',(3.255110716732,1.024158822327));
#936 = CARTESIAN_POINT('',(3.482693485363,1.04407413705));
#937 = CARTESIAN_POINT('',(3.57244665609,1.054939812735));
#938 = CARTESIAN_POINT('',(3.662191531524,1.068424796523));
#939 = CARTESIAN_POINT('',(3.751945083827,1.083916708495));
#940 = CARTESIAN_POINT('',(3.841715459451,1.100614950002));
#941 = CARTESIAN_POINT('',(3.931491924033,1.117613348041));
#942 = CARTESIAN_POINT('',(4.119932174539,1.152086928698));
#943 = CARTESIAN_POINT('',(4.218717310995,1.169463531075));
#944 = CARTESIAN_POINT('',(4.317485162985,1.184979794556));
#945 = CARTESIAN_POINT('',(4.416206639326,1.197491265449));
#946 = CARTESIAN_POINT('',(4.514902265887,1.206133796012));
#947 = CARTESIAN_POINT('',(4.613615426624,1.210458471002));
#948 = CARTESIAN_POINT('',(4.821542519928,1.210458471002));
#949 = CARTESIAN_POINT('',(4.930583925903,1.205176509949));
#950 = CARTESIAN_POINT('',(5.040218869406,1.194631851611));
#951 = CARTESIAN_POINT('',(5.151071484897,1.179303180131));
#952 = CARTESIAN_POINT('',(5.263793779053,1.160151208154));
#953 = CARTESIAN_POINT('',(5.379072386214,1.138632339971));
#954 = CARTESIAN_POINT('',(5.600639109597,1.097552630707));
#955 = CARTESIAN_POINT('',(5.707909357868,1.077773703707));
#956 = CARTESIAN_POINT('',(5.818400902604,1.058837146462));
#957 = CARTESIAN_POINT('',(5.931462838737,1.042663124637));
#958 = CARTESIAN_POINT('',(6.046720864238,1.031005975077));
#959 = CARTESIAN_POINT('',(6.163979536177,1.025));
#960 = CARTESIAN_POINT('',(6.28318530718,1.025));
#961 = ( GEOMETRIC_REPRESENTATION_CONTEXT(2) 
PARAMETRIC_REPRESENTATION_CONTEXT() REPRESENTATION_CONTEXT('2D SPACE',''
  ) );
#962 = ADVANCED_FACE('',(#963),#614,.T.);
#963 = FACE_BOUND('',#964,.T.);
#964 = EDGE_LOOP('',(#965));
#965 = ORIENTED_EDGE('',*,*,#599,.T.);
#966 = ADVANCED_FACE('',(#967),#738,.F.);
#967 = FACE_BOUND('',#968,.F.);
#968 = EDGE_LOOP('',(#969,#970,#991,#992));
#969 = ORIENTED_EDGE('',*,*,#628,.F.);
#970 = ORIENTED_EDGE('',*,*,#971,.F.);
#971 = EDGE_CURVE('',#800,#629,#972,.T.);
#972 = SEAM_CURVE('',#973,(#977,#984),.PCURVE_S1.);
#973 = LINE('',#974,#975);
#974 = CARTESIAN_POINT('',(-2.939152317954E-16,-5.,59.7));
#975 = VECTOR('',#976,1.);
#976 = DIRECTION('',(0.,1.,0.));
#977 = PCURVE('',#738,#978);
#978 = DEFINITIONAL_REPRESENTATION('',(#979),#983);
#979 = LINE('',#980,#981);
#980 = CARTESIAN_POINT('',(6.28318530718,-0.));
#981 = VECTOR('',#982,1.);
#982 = DIRECTION('',(0.,1.));
#983 = ( GEOMETRIC_REPRESENTATION_CONTEXT(2) 
PARAMETRIC_REPRESENTATION_CONTEXT() REPRESENTATION_CONTEXT('2D SPACE',''
  ) );
#984 = PCURVE('',#738,#985);
#985 = DEFINITIONAL_REPRESENTATION('',(#986),#990);
#986 = LINE('',#987,#988);
#987 = CARTESIAN_POINT('',(0.,-0.));
#988 = VECTOR('',#989,1.);
#989 = DIRECTION('',(0.,1.));
#990 = ( GEOMETRIC_REPRESENTATION_CONTEXT(2) 
PARAMETRIC_REPRESENTATION_CONTEXT() REPRESENTATION_CONTEXT('2D SPACE',''
  ) );
#991 = ORIENTED_EDGE('',*,*,#799,.T.);
#992 = ORIENTED_EDGE('',*,*,#971,.T.);
#993 = ( GEOMETRIC_REPRESENTATION_CONTEXT(3) 
GLOBAL_UNCERTAINTY_ASSIGNED_CONTEXT((#997)) GLOBAL_UNIT_ASSIGNED_CONTEXT
((#994,#995,#996)) REPRESENTATION_CONTEXT('Context #1',
  '3D Context with UNIT and UNCERTAINTY') );
#994 = ( LENGTH_UNIT() NAMED_UNIT(*) SI_UNIT(.MILLI.,.METRE.) );
#995 = ( NAMED_UNIT(*) PLANE_ANGLE_UNIT() SI_UNIT($,.RADIAN.) );
#996 = ( NAMED_UNIT(*) SI_UNIT($,.STERADIAN.) SOLID_ANGLE_UNIT() );
#997 = UNCERTAINTY_MEASURE_WITH_UNIT(LENGTH_MEASURE(1.E-07),#994,
  'distance_accuracy_value','confusion accuracy');
#998 = PRODUCT_RELATED_PRODUCT_CATEGORY('part',$,(#7));
ENDSEC;
END-ISO-10303-21;
