ISO-10303-21;
HEADER;
FILE_DESCRIPTION(('Open CASCADE Model'),'2;1');
FILE_NAME('Open CASCADE Shape Model','2026-05-11T17:49:36',('Author'),(
    'Open CASCADE'),'Open CASCADE STEP processor 7.8','Open CASCADE 7.8'
  ,'Unknown');
FILE_SCHEMA(('AUTOMOTIVE_DESIGN { 1 0 10303 214 1 1 1 1 }'));
ENDSEC;
DATA;
#1 = APPLICATION_PROTOCOL_DEFINITION('international standard',
  'automotive_design',2000,#2);
#2 = APPLICATION_CONTEXT(
  'core data for automotive mechanical design processes');
#3 = SHAPE_DEFINITION_REPRESENTATION(#4,#10);
#4 = PRODUCT_DEFINITION_SHAPE('','',#5);
#5 = PRODUCT_DEFINITION('design','',#6,#9);
#6 = PRODUCT_DEFINITION_FORMATION('','',#7);
#7 = PRODUCT('Open CASCADE STEP translator 7.8 8',
  'Open CASCADE STEP translator 7.8 8','',(#8));
#8 = PRODUCT_CONTEXT('',#2,'mechanical');
#9 = PRODUCT_DEFINITION_CONTEXT('part definition',#2,'design');
#10 = ADVANCED_BREP_SHAPE_REPRESENTATION('',(#11,#15),#1533);
#11 = AXIS2_PLACEMENT_3D('',#12,#13,#14);
#12 = CARTESIAN_POINT('',(0.,0.,0.));
#13 = DIRECTION('',(0.,0.,1.));
#14 = DIRECTION('',(1.,0.,-0.));
#15 = MANIFOLD_SOLID_BREP('',#16);
#16 = CLOSED_SHELL('',(#17,#931,#989,#1185,#1376,#1432,#1436,#1463,#1469
    ,#1496,#1523,#1529));
#17 = ADVANCED_FACE('',(#18),#49,.T.);
#18 = FACE_BOUND('',#19,.T.);
#19 = EDGE_LOOP('',(#20,#106,#129,#156,#178,#179,#289,#312,#341,#555,
    #762,#784,#785,#859));
#20 = ORIENTED_EDGE('',*,*,#21,.F.);
#21 = EDGE_CURVE('',#22,#24,#26,.T.);
#22 = VERTEX_POINT('',#23);
#23 = CARTESIAN_POINT('',(62.,-12.04030399477,-7.855));
#24 = VERTEX_POINT('',#25);
#25 = CARTESIAN_POINT('',(61.775774105248,-12.,-7.866076912057));
#26 = SURFACE_CURVE('',#27,(#48,#77),.PCURVE_S1.);
#27 = B_SPLINE_CURVE_WITH_KNOTS('',7,(#28,#29,#30,#31,#32,#33,#34,#35,
    #36,#37,#38,#39,#40,#41,#42,#43,#44,#45,#46,#47),.UNSPECIFIED.,.F.,
  .F.,(8,6,6,8),(0.,0.496487965784,0.871105727236,1.),.UNSPECIFIED.);
#28 = CARTESIAN_POINT('',(62.,-12.04030399477,-7.855));
#29 = CARTESIAN_POINT('',(61.948357662716,-12.01868897873,-7.855));
#30 = CARTESIAN_POINT('',(61.890015021991,-12.00371701855,
    -7.856367336859));
#31 = CARTESIAN_POINT('',(61.826629744354,-11.9957055384,-7.859742866667
    ));
#32 = CARTESIAN_POINT('',(61.759862143018,-11.99459856455,-7.86562529429
    ));
#33 = CARTESIAN_POINT('',(61.691462416979,-12.00006140353,
    -7.874239965801));
#34 = CARTESIAN_POINT('',(61.623397735448,-12.01155755989,
    -7.885398086654));
#35 = CARTESIAN_POINT('',(61.508688721698,-12.04112206733,
    -7.908116300897));
#36 = CARTESIAN_POINT('',(61.460861545969,-12.05689169743,
    -7.918910617312));
#37 = CARTESIAN_POINT('',(61.414943168189,-12.07558654233,
    -7.930528169341));
#38 = CARTESIAN_POINT('',(61.371967640262,-12.09716375048,
    -7.942583946381));
#39 = CARTESIAN_POINT('',(61.333596408723,-12.12139175014,
    -7.954344957836));
#40 = CARTESIAN_POINT('',(61.301879484321,-12.14802291049,
    -7.964630851306));
#41 = CARTESIAN_POINT('',(61.271421937756,-12.18680917687,
    -7.974804746444));
#42 = CARTESIAN_POINT('',(61.264702288564,-12.196995306,-7.977086036422)
  );
#43 = CARTESIAN_POINT('',(61.259191803945,-12.20738345241,
    -7.978981545447));
#44 = CARTESIAN_POINT('',(61.254988566374,-12.21792334812,
    -7.980441013618));
#45 = CARTESIAN_POINT('',(61.252158895035,-12.22856847414,
    -7.981428325633));
#46 = CARTESIAN_POINT('',(61.250739472714,-12.23927487946,
    -7.981923264348));
#47 = CARTESIAN_POINT('',(61.250739472714,-12.25,-7.981923264348));
#48 = PCURVE('',#49,#54);
#49 = CYLINDRICAL_SURFACE('',#50,2.275);
#50 = AXIS2_PLACEMENT_3D('',#51,#52,#53);
#51 = CARTESIAN_POINT('',(62.,-14.5,-10.13));
#52 = DIRECTION('',(0.,1.,0.));
#53 = DIRECTION('',(0.,-0.,1.));
#54 = DEFINITIONAL_REPRESENTATION('',(#55),#76);
#55 = B_SPLINE_CURVE_WITH_KNOTS('',7,(#56,#57,#58,#59,#60,#61,#62,#63,
    #64,#65,#66,#67,#68,#69,#70,#71,#72,#73,#74,#75),.UNSPECIFIED.,.F.,
  .F.,(8,6,6,8),(0.,0.496487965784,0.871105727236,1.),.UNSPECIFIED.);
#56 = CARTESIAN_POINT('',(6.28318530718,2.459696005223));
#57 = CARTESIAN_POINT('',(6.260485378703,2.481311021266));
#58 = CARTESIAN_POINT('',(6.234840201795,2.496282981442));
#59 = CARTESIAN_POINT('',(6.206959623188,2.504294461599));
#60 = CARTESIAN_POINT('',(6.177531424724,2.505401435449));
#61 = CARTESIAN_POINT('',(6.147262144711,2.499938596462));
#62 = CARTESIAN_POINT('',(6.116960678658,2.488442440106));
#63 = CARTESIAN_POINT('',(6.065559774869,2.458877932664));
#64 = CARTESIAN_POINT('',(6.04401562126,2.443108302563));
#65 = CARTESIAN_POINT('',(6.02320642251,2.424413457665));
#66 = CARTESIAN_POINT('',(6.003597997815,2.402836249518));
#67 = CARTESIAN_POINT('',(5.985960649202,2.378608249856));
#68 = CARTESIAN_POINT('',(5.971304897799,2.351977089508));
#69 = CARTESIAN_POINT('',(5.957189803179,2.313190823128));
#70 = CARTESIAN_POINT('',(5.954070571795,2.303004693993));
#71 = CARTESIAN_POINT('',(5.951509109476,2.292616547582));
#72 = CARTESIAN_POINT('',(5.949553329637,2.282076651879));
#73 = CARTESIAN_POINT('',(5.948235976625,2.271431525859));
#74 = CARTESIAN_POINT('',(5.947575214235,2.260725120536));
#75 = CARTESIAN_POINT('',(5.947575214235,2.25));
#76 = ( GEOMETRIC_REPRESENTATION_CONTEXT(2) 
PARAMETRIC_REPRESENTATION_CONTEXT() REPRESENTATION_CONTEXT('2D SPACE',''
  ) );
#77 = PCURVE('',#78,#83);
#78 = CYLINDRICAL_SURFACE('',#79,0.25);
#79 = AXIS2_PLACEMENT_3D('',#80,#81,#82);
#80 = CARTESIAN_POINT('',(60.71455053982,-12.25,-8.761334706613));
#81 = DIRECTION('',(0.764344583193,0.,0.644808000993));
#82 = DIRECTION('',(-0.644808000993,0.,0.764344583193));
#83 = DEFINITIONAL_REPRESENTATION('',(#84),#105);
#84 = B_SPLINE_CURVE_WITH_KNOTS('',7,(#85,#86,#87,#88,#89,#90,#91,#92,
    #93,#94,#95,#96,#97,#98,#99,#100,#101,#102,#103,#104),
  .UNSPECIFIED.,.F.,.F.,(8,6,6,8),(0.,0.496487965784,0.871105727236,1.),
  .UNSPECIFIED.);
#85 = CARTESIAN_POINT('',(4.136638669161,1.566938202258));
#86 = CARTESIAN_POINT('',(4.295437079438,1.527465661492));
#87 = CARTESIAN_POINT('',(4.450757865158,1.481990110338));
#88 = CARTESIAN_POINT('',(4.603215784022,1.431365348094));
#89 = CARTESIAN_POINT('',(4.753321884706,1.376538857283));
#90 = CARTESIAN_POINT('',(4.901504853163,1.318703088078));
#91 = CARTESIAN_POINT('',(5.048162575899,1.259483371841));
#92 = CARTESIAN_POINT('',(5.303590202651,1.157157272225));
#93 = CARTESIAN_POINT('',(5.412881886851,1.113640567938));
#94 = CARTESIAN_POINT('',(5.523162778151,1.071052014112));
#95 = CARTESIAN_POINT('',(5.635093394458,1.030430240638));
#96 = CARTESIAN_POINT('',(5.749063412123,0.993517803375));
#97 = CARTESIAN_POINT('',(5.86565946711,0.962642717605));
#98 = CARTESIAN_POINT('',(6.027898946783,0.932802447886));
#99 = CARTESIAN_POINT('',(6.06989064115,0.926195326394));
#100 = CARTESIAN_POINT('',(6.112205752134,0.920761177939));
#101 = CARTESIAN_POINT('',(6.154749999479,0.916607379316));
#102 = CARTESIAN_POINT('',(6.197458816715,0.913807908669));
#103 = CARTESIAN_POINT('',(6.240284825036,0.912403840464));
#104 = CARTESIAN_POINT('',(6.28318530718,0.912403840464));
#105 = ( GEOMETRIC_REPRESENTATION_CONTEXT(2) 
PARAMETRIC_REPRESENTATION_CONTEXT() REPRESENTATION_CONTEXT('2D SPACE',''
  ) );
#106 = ORIENTED_EDGE('',*,*,#107,.T.);
#107 = EDGE_CURVE('',#22,#108,#110,.T.);
#108 = VERTEX_POINT('',#109);
#109 = CARTESIAN_POINT('',(62.,-12.,-7.855));
#110 = SEAM_CURVE('',#111,(#115,#122),.PCURVE_S1.);
#111 = LINE('',#112,#113);
#112 = CARTESIAN_POINT('',(62.,-14.5,-7.855));
#113 = VECTOR('',#114,1.);
#114 = DIRECTION('',(0.,1.,0.));
#115 = PCURVE('',#49,#116);
#116 = DEFINITIONAL_REPRESENTATION('',(#117),#121);
#117 = LINE('',#118,#119);
#118 = CARTESIAN_POINT('',(6.28318530718,-0.));
#119 = VECTOR('',#120,1.);
#120 = DIRECTION('',(0.,1.));
#121 = ( GEOMETRIC_REPRESENTATION_CONTEXT(2) 
PARAMETRIC_REPRESENTATION_CONTEXT() REPRESENTATION_CONTEXT('2D SPACE',''
  ) );
#122 = PCURVE('',#49,#123);
#123 = DEFINITIONAL_REPRESENTATION('',(#124),#128);
#124 = LINE('',#125,#126);
#125 = CARTESIAN_POINT('',(0.,-0.));
#126 = VECTOR('',#127,1.);
#127 = DIRECTION('',(0.,1.));
#128 = ( GEOMETRIC_REPRESENTATION_CONTEXT(2) 
PARAMETRIC_REPRESENTATION_CONTEXT() REPRESENTATION_CONTEXT('2D SPACE',''
  ) );
#129 = ORIENTED_EDGE('',*,*,#130,.F.);
#130 = EDGE_CURVE('',#24,#108,#131,.T.);
#131 = SURFACE_CURVE('',#132,(#137,#144),.PCURVE_S1.);
#132 = CIRCLE('',#133,2.275);
#133 = AXIS2_PLACEMENT_3D('',#134,#135,#136);
#134 = CARTESIAN_POINT('',(62.,-12.,-10.13));
#135 = DIRECTION('',(0.,1.,0.));
#136 = DIRECTION('',(0.,-0.,1.));
#137 = PCURVE('',#49,#138);
#138 = DEFINITIONAL_REPRESENTATION('',(#139),#143);
#139 = LINE('',#140,#141);
#140 = CARTESIAN_POINT('',(0.,2.5));
#141 = VECTOR('',#142,1.);
#142 = DIRECTION('',(1.,0.));
#143 = ( GEOMETRIC_REPRESENTATION_CONTEXT(2) 
PARAMETRIC_REPRESENTATION_CONTEXT() REPRESENTATION_CONTEXT('2D SPACE',''
  ) );
#144 = PCURVE('',#145,#150);
#145 = PLANE('',#146);
#146 = AXIS2_PLACEMENT_3D('',#147,#148,#149);
#147 = CARTESIAN_POINT('',(62.,-12.,-10.13));
#148 = DIRECTION('',(0.,1.,0.));
#149 = DIRECTION('',(0.,-0.,1.));
#150 = DEFINITIONAL_REPRESENTATION('',(#151),#155);
#151 = CIRCLE('',#152,2.275);
#152 = AXIS2_PLACEMENT_2D('',#153,#154);
#153 = CARTESIAN_POINT('',(0.,0.));
#154 = DIRECTION('',(1.,0.));
#155 = ( GEOMETRIC_REPRESENTATION_CONTEXT(2) 
PARAMETRIC_REPRESENTATION_CONTEXT() REPRESENTATION_CONTEXT('2D SPACE',''
  ) );
#156 = ORIENTED_EDGE('',*,*,#157,.F.);
#157 = EDGE_CURVE('',#108,#24,#158,.T.);
#158 = SURFACE_CURVE('',#159,(#164,#171),.PCURVE_S1.);
#159 = CIRCLE('',#160,2.275);
#160 = AXIS2_PLACEMENT_3D('',#161,#162,#163);
#161 = CARTESIAN_POINT('',(62.,-12.,-10.13));
#162 = DIRECTION('',(0.,1.,0.));
#163 = DIRECTION('',(0.,-0.,1.));
#164 = PCURVE('',#49,#165);
#165 = DEFINITIONAL_REPRESENTATION('',(#166),#170);
#166 = LINE('',#167,#168);
#167 = CARTESIAN_POINT('',(0.,2.5));
#168 = VECTOR('',#169,1.);
#169 = DIRECTION('',(1.,0.));
#170 = ( GEOMETRIC_REPRESENTATION_CONTEXT(2) 
PARAMETRIC_REPRESENTATION_CONTEXT() REPRESENTATION_CONTEXT('2D SPACE',''
  ) );
#171 = PCURVE('',#145,#172);
#172 = DEFINITIONAL_REPRESENTATION('',(#173),#177);
#173 = CIRCLE('',#174,2.275);
#174 = AXIS2_PLACEMENT_2D('',#175,#176);
#175 = CARTESIAN_POINT('',(0.,0.));
#176 = DIRECTION('',(1.,0.));
#177 = ( GEOMETRIC_REPRESENTATION_CONTEXT(2) 
PARAMETRIC_REPRESENTATION_CONTEXT() REPRESENTATION_CONTEXT('2D SPACE',''
  ) );
#178 = ORIENTED_EDGE('',*,*,#107,.F.);
#179 = ORIENTED_EDGE('',*,*,#180,.F.);
#180 = EDGE_CURVE('',#181,#22,#183,.T.);
#181 = VERTEX_POINT('',#182);
#182 = CARTESIAN_POINT('',(62.,-12.45969600522,-7.855));
#183 = SURFACE_CURVE('',#184,(#217,#253),.PCURVE_S1.);
#184 = B_SPLINE_CURVE_WITH_KNOTS('',6,(#185,#186,#187,#188,#189,#190,
    #191,#192,#193,#194,#195,#196,#197,#198,#199,#200,#201,#202,#203,
    #204,#205,#206,#207,#208,#209,#210,#211,#212,#213,#214,#215,#216),
  .UNSPECIFIED.,.F.,.F.,(7,5,5,5,5,5,7),(0.,9.619540709229E-02,
    0.168558812371,0.499999208206,0.829467347479,0.902408071432,1.),
  .UNSPECIFIED.);
#185 = CARTESIAN_POINT('',(62.,-12.45969600522,-7.855));
#186 = CARTESIAN_POINT('',(62.010086291601,-12.45547436526,-7.855));
#187 = CARTESIAN_POINT('',(62.019897282254,-12.4509972989,
    -7.855053686508));
#188 = CARTESIAN_POINT('',(62.029418092255,-12.44626962828,
    -7.855155492585));
#189 = CARTESIAN_POINT('',(62.038634416931,-12.44129733315,
    -7.855299706144));
#190 = CARTESIAN_POINT('',(62.047532526636,-12.43608755088,
    -7.855480469945));
#191 = CARTESIAN_POINT('',(62.062543633553,-12.42655708476,
    -7.855850741698));
#192 = CARTESIAN_POINT('',(62.068800508308,-12.42233589076,
    -7.856027009408));
#193 = CARTESIAN_POINT('',(62.074864310153,-12.41798853193,
    -7.856218042223));
#194 = CARTESIAN_POINT('',(62.080729720832,-12.413518897,-7.856421325851
    ));
#195 = CARTESIAN_POINT('',(62.086391684697,-12.408931226,-7.85663437422)
  );
#196 = CARTESIAN_POINT('',(62.116824670527,-12.38269796065,
    -7.857864005277));
#197 = CARTESIAN_POINT('',(62.137427894604,-12.3587924644,
    -7.859026315001));
#198 = CARTESIAN_POINT('',(62.153207727103,-12.33295045132,
    -7.860108074194));
#199 = CARTESIAN_POINT('',(62.163839960839,-12.30574933574,
    -7.860901169848));
#200 = CARTESIAN_POINT('',(62.1691522391,-12.27786919755,-7.86129717239)
  );
#201 = CARTESIAN_POINT('',(62.1691522391,-12.22229663982,-7.86129717239)
  );
#202 = CARTESIAN_POINT('',(62.163902995592,-12.19458262195,
    -7.860905866391));
#203 = CARTESIAN_POINT('',(62.153397072504,-12.16753551371,
    -7.860122204391));
#204 = CARTESIAN_POINT('',(62.137802639458,-12.14182328299,
    -7.859052012653));
#205 = CARTESIAN_POINT('',(62.117436283006,-12.11801431429,
    -7.857898576608));
#206 = CARTESIAN_POINT('',(62.08726665059,-12.09178601324,
    -7.856667757111));
#207 = CARTESIAN_POINT('',(62.081585994722,-12.08714661695,
    -7.856451812335));
#208 = CARTESIAN_POINT('',(62.075698121935,-12.08262670242,
    -7.856245533625));
#209 = CARTESIAN_POINT('',(62.069608189104,-12.07823063798,
    -7.856051463921));
#210 = CARTESIAN_POINT('',(62.063321625606,-12.07396243013,
    -7.855872176889));
#211 = CARTESIAN_POINT('',(62.048177493747,-12.06429096674,
    -7.855493660888));
#212 = CARTESIAN_POINT('',(62.039169015642,-12.05899160499,
    -7.855308130695));
#213 = CARTESIAN_POINT('',(62.029832406186,-12.05393635295,
    -7.855159956628));
#214 = CARTESIAN_POINT('',(62.020181981794,-12.04913269812,
    -7.855055257369));
#215 = CARTESIAN_POINT('',(62.010232668108,-12.04458690095,-7.855));
#216 = CARTESIAN_POINT('',(62.,-12.04030399477,-7.855));
#217 = PCURVE('',#49,#218);
#218 = DEFINITIONAL_REPRESENTATION('',(#219),#252);
#219 = B_SPLINE_CURVE_WITH_KNOTS('',6,(#220,#221,#222,#223,#224,#225,
    #226,#227,#228,#229,#230,#231,#232,#233,#234,#235,#236,#237,#238,
    #239,#240,#241,#242,#243,#244,#245,#246,#247,#248,#249,#250,#251),
  .UNSPECIFIED.,.F.,.F.,(7,5,5,5,5,5,7),(0.,9.619540709229E-02,
    0.168558812371,0.499999208206,0.829467347479,0.902408071432,1.),
  .UNSPECIFIED.);
#220 = CARTESIAN_POINT('',(0.,2.040303994777));
#221 = CARTESIAN_POINT('',(4.433534769757E-03,2.044525634738));
#222 = CARTESIAN_POINT('',(8.746058602158E-03,2.049002701092));
#223 = CARTESIAN_POINT('',(1.29311865962E-02,2.053730371712));
#224 = CARTESIAN_POINT('',(1.698274528806E-02,2.058702666846));
#225 = CARTESIAN_POINT('',(2.08947726511E-02,2.06391244912));
#226 = CARTESIAN_POINT('',(2.749506842268E-02,2.073442915236));
#227 = CARTESIAN_POINT('',(3.024641759486E-02,2.077664109233));
#228 = CARTESIAN_POINT('',(3.291312583847E-02,2.082011468069));
#229 = CARTESIAN_POINT('',(3.549285842898E-02,2.086481102999));
#230 = CARTESIAN_POINT('',(3.798338569131E-02,2.091068773997));
#231 = CARTESIAN_POINT('',(5.137143713916E-02,2.117302039345));
#232 = CARTESIAN_POINT('',(6.044102622857E-02,2.141207535596));
#233 = CARTESIAN_POINT('',(6.73932246375E-02,2.167049548679));
#234 = CARTESIAN_POINT('',(7.207977716897E-02,2.194250664255));
#235 = CARTESIAN_POINT('',(7.442131101292E-02,2.222130802444));
#236 = CARTESIAN_POINT('',(7.442131101292E-02,2.277703360173));
#237 = CARTESIAN_POINT('',(7.210756101982E-02,2.305417378043));
#238 = CARTESIAN_POINT('',(6.747668686059E-02,2.33246448629));
#239 = CARTESIAN_POINT('',(6.060612867321E-02,2.358176717003));
#240 = CARTESIAN_POINT('',(5.164067294973E-02,2.381985685704));
#241 = CARTESIAN_POINT('',(3.836826476272E-02,2.408213986753));
#242 = CARTESIAN_POINT('',(3.586947904859E-02,2.412853383049));
#243 = CARTESIAN_POINT('',(3.327983334632E-02,2.417373297575));
#244 = CARTESIAN_POINT('',(3.060160274013E-02,2.421769362016));
#245 = CARTESIAN_POINT('',(2.783717146124E-02,2.426037569862));
#246 = CARTESIAN_POINT('',(2.117833125029E-02,2.435709033252));
#247 = CARTESIAN_POINT('',(1.721775885295E-02,2.441008395001));
#248 = CARTESIAN_POINT('',(1.311330955912E-02,2.446063647049));
#249 = CARTESIAN_POINT('',(8.871201303348E-03,2.450867301875));
#250 = CARTESIAN_POINT('',(4.497876091335E-03,2.455413099047));
#251 = CARTESIAN_POINT('',(0.,2.459696005223));
#252 = ( GEOMETRIC_REPRESENTATION_CONTEXT(2) 
PARAMETRIC_REPRESENTATION_CONTEXT() REPRESENTATION_CONTEXT('2D SPACE',''
  ) );
#253 = PCURVE('',#78,#254);
#254 = DEFINITIONAL_REPRESENTATION('',(#255),#288);
#255 = B_SPLINE_CURVE_WITH_KNOTS('',6,(#256,#257,#258,#259,#260,#261,
    #262,#263,#264,#265,#266,#267,#268,#269,#270,#271,#272,#273,#274,
    #275,#276,#277,#278,#279,#280,#281,#282,#283,#284,#285,#286,#287),
  .UNSPECIFIED.,.F.,.F.,(7,5,5,5,5,5,7),(0.,9.619540709229E-02,
    0.168558812371,0.499999208206,0.829467347479,0.902408071432,1.),
  .UNSPECIFIED.);
#256 = CARTESIAN_POINT('',(2.146546638018,1.566938202258));
#257 = CARTESIAN_POINT('',(2.17756163765,1.574647604608));
#258 = CARTESIAN_POINT('',(2.208674898463,1.58211196468));
#259 = CARTESIAN_POINT('',(2.23988346894,1.589323498858));
#260 = CARTESIAN_POINT('',(2.271183943713,1.596274956645));
#261 = CARTESIAN_POINT('',(2.302572463558,1.602959620653));
#262 = CARTESIAN_POINT('',(2.357719851086,1.614194524724));
#263 = CARTESIAN_POINT('',(2.381442396204,1.618863274221));
#264 = CARTESIAN_POINT('',(2.40521052536,1.623374928828));
#265 = CARTESIAN_POINT('',(2.429022328181,1.627727044798));
#266 = CARTESIAN_POINT('',(2.452875809317,1.631917360915));
#267 = CARTESIAN_POINT('',(2.586204473626,1.654385772841));
#268 = CARTESIAN_POINT('',(2.696437378558,1.669384268951));
#269 = CARTESIAN_POINT('',(2.807297738138,1.680747971463));
#270 = CARTESIAN_POINT('',(2.918595189905,1.688363267303));
#271 = CARTESIAN_POINT('',(3.030115863367,1.692168332809));
#272 = CARTESIAN_POINT('',(3.252406094282,1.692168332809));
#273 = CARTESIAN_POINT('',(3.363262282999,1.688408419207));
#274 = CARTESIAN_POINT('',(3.473899472777,1.68088358533));
#275 = CARTESIAN_POINT('',(3.584107531965,1.669654133099));
#276 = CARTESIAN_POINT('',(3.693699284934,1.654830963656));
#277 = CARTESIAN_POINT('',(3.826596535062,1.632564610801));
#278 = CARTESIAN_POINT('',(3.85064551873,1.628361875179));
#279 = CARTESIAN_POINT('',(3.874652363946,1.62399452167));
#280 = CARTESIAN_POINT('',(3.898615021496,1.619464852197));
#281 = CARTESIAN_POINT('',(3.922531528666,1.614775357153));
#282 = CARTESIAN_POINT('',(3.978335133075,1.603444092145));
#283 = CARTESIAN_POINT('',(4.01018433507,1.596678142055));
#284 = CARTESIAN_POINT('',(4.041943087813,1.589637299017));
#285 = CARTESIAN_POINT('',(4.073607350074,1.582328560327));
#286 = CARTESIAN_POINT('',(4.105173566808,1.574759486698));
#287 = CARTESIAN_POINT('',(4.136638669161,1.566938202258));
#288 = ( GEOMETRIC_REPRESENTATION_CONTEXT(2) 
PARAMETRIC_REPRESENTATION_CONTEXT() REPRESENTATION_CONTEXT('2D SPACE',''
  ) );
#289 = ORIENTED_EDGE('',*,*,#290,.F.);
#290 = EDGE_CURVE('',#291,#181,#293,.T.);
#291 = VERTEX_POINT('',#292);
#292 = CARTESIAN_POINT('',(62.,-14.5,-7.855));
#293 = SEAM_CURVE('',#294,(#298,#305),.PCURVE_S1.);
#294 = LINE('',#295,#296);
#295 = CARTESIAN_POINT('',(62.,-14.5,-7.855));
#296 = VECTOR('',#297,1.);
#297 = DIRECTION('',(0.,1.,0.));
#298 = PCURVE('',#49,#299);
#299 = DEFINITIONAL_REPRESENTATION('',(#300),#304);
#300 = LINE('',#301,#302);
#301 = CARTESIAN_POINT('',(0.,-0.));
#302 = VECTOR('',#303,1.);
#303 = DIRECTION('',(0.,1.));
#304 = ( GEOMETRIC_REPRESENTATION_CONTEXT(2) 
PARAMETRIC_REPRESENTATION_CONTEXT() REPRESENTATION_CONTEXT('2D SPACE',''
  ) );
#305 = PCURVE('',#49,#306);
#306 = DEFINITIONAL_REPRESENTATION('',(#307),#311);
#307 = LINE('',#308,#309);
#308 = CARTESIAN_POINT('',(6.28318530718,-0.));
#309 = VECTOR('',#310,1.);
#310 = DIRECTION('',(0.,1.));
#311 = ( GEOMETRIC_REPRESENTATION_CONTEXT(2) 
PARAMETRIC_REPRESENTATION_CONTEXT() REPRESENTATION_CONTEXT('2D SPACE',''
  ) );
#312 = ORIENTED_EDGE('',*,*,#313,.T.);
#313 = EDGE_CURVE('',#291,#314,#316,.T.);
#314 = VERTEX_POINT('',#315);
#315 = CARTESIAN_POINT('',(63.95249103222,-14.5,-11.29764882096));
#316 = SURFACE_CURVE('',#317,(#322,#329),.PCURVE_S1.);
#317 = CIRCLE('',#318,2.275);
#318 = AXIS2_PLACEMENT_3D('',#319,#320,#321);
#319 = CARTESIAN_POINT('',(62.,-14.5,-10.13));
#320 = DIRECTION('',(0.,1.,0.));
#321 = DIRECTION('',(0.,-0.,1.));
#322 = PCURVE('',#49,#323);
#323 = DEFINITIONAL_REPRESENTATION('',(#324),#328);
#324 = LINE('',#325,#326);
#325 = CARTESIAN_POINT('',(0.,0.));
#326 = VECTOR('',#327,1.);
#327 = DIRECTION('',(1.,0.));
#328 = ( GEOMETRIC_REPRESENTATION_CONTEXT(2) 
PARAMETRIC_REPRESENTATION_CONTEXT() REPRESENTATION_CONTEXT('2D SPACE',''
  ) );
#329 = PCURVE('',#330,#335);
#330 = PLANE('',#331);
#331 = AXIS2_PLACEMENT_3D('',#332,#333,#334);
#332 = CARTESIAN_POINT('',(62.,-14.5,-10.13));
#333 = DIRECTION('',(0.,1.,0.));
#334 = DIRECTION('',(0.,-0.,1.));
#335 = DEFINITIONAL_REPRESENTATION('',(#336),#340);
#336 = CIRCLE('',#337,2.275);
#337 = AXIS2_PLACEMENT_2D('',#338,#339);
#338 = CARTESIAN_POINT('',(0.,0.));
#339 = DIRECTION('',(1.,0.));
#340 = ( GEOMETRIC_REPRESENTATION_CONTEXT(2) 
PARAMETRIC_REPRESENTATION_CONTEXT() REPRESENTATION_CONTEXT('2D SPACE',''
  ) );
#341 = ORIENTED_EDGE('',*,*,#342,.F.);
#342 = EDGE_CURVE('',#343,#314,#345,.T.);
#343 = VERTEX_POINT('',#344);
#344 = CARTESIAN_POINT('',(64.124458831721,-14.25,-10.94381796018));
#345 = SURFACE_CURVE('',#346,(#412,#481),.PCURVE_S1.);
#346 = B_SPLINE_CURVE_WITH_KNOTS('',8,(#347,#348,#349,#350,#351,#352,
    #353,#354,#355,#356,#357,#358,#359,#360,#361,#362,#363,#364,#365,
    #366,#367,#368,#369,#370,#371,#372,#373,#374,#375,#376,#377,#378,
    #379,#380,#381,#382,#383,#384,#385,#386,#387,#388,#389,#390,#391,
    #392,#393,#394,#395,#396,#397,#398,#399,#400,#401,#402,#403,#404,
    #405,#406,#407,#408,#409,#410,#411),.UNSPECIFIED.,.T.,.F.,(9,7,7,7,7
    ,7,7,7,7,9),(0.,0.217591743756,0.324010522518,0.454054121985,
    0.49961651364,0.539278523653,0.623788338159,0.676042529191,
    0.781905331586,1.),.UNSPECIFIED.);
#347 = CARTESIAN_POINT('',(64.124458831721,-14.25,-10.94381796018));
#348 = CARTESIAN_POINT('',(64.124458831721,-14.29549182323,
    -10.94381796018));
#349 = CARTESIAN_POINT('',(64.11962316239,-14.34099062684,
    -10.95644144229));
#350 = CARTESIAN_POINT('',(64.109949079001,-14.38393301328,
    -10.98169501429));
#351 = CARTESIAN_POINT('',(64.095352276293,-14.42184574687,
    -11.01854487143));
#352 = CARTESIAN_POINT('',(64.075568679128,-14.45283868684,-11.065146087
    ));
#353 = CARTESIAN_POINT('',(64.05047315925,-14.47581198768,
    -11.11920323367));
#354 = CARTESIAN_POINT('',(64.020384340975,-14.4903868093,
    -11.17811910764));
#355 = CARTESIAN_POINT('',(63.969662703703,-14.50011832808,
    -11.26895630941));
#356 = CARTESIAN_POINT('',(63.952023230898,-14.50139725261,
    -11.29934366036));
#357 = CARTESIAN_POINT('',(63.93346796722,-14.50079801571,
    -11.33004944413));
#358 = CARTESIAN_POINT('',(63.914081393454,-14.49837227457,
    -11.36084446732));
#359 = CARTESIAN_POINT('',(63.893971580046,-14.494182408,-11.39150332683
    ));
#360 = CARTESIAN_POINT('',(63.873275540126,-14.48829869822,
    -11.42180165347));
#361 = CARTESIAN_POINT('',(63.85216627869,-14.48079547314,
    -11.45151174938));
#362 = CARTESIAN_POINT('',(63.804827174428,-14.46068802098,
    -11.51569388965));
#363 = CARTESIAN_POINT('',(63.778571268516,-14.44735082381,
    -11.54966347356));
#364 = CARTESIAN_POINT('',(63.752316957082,-14.43181599108,
    -11.58212462292));
#365 = CARTESIAN_POINT('',(63.726498009384,-14.41412267033,
    -11.61266128647));
#366 = CARTESIAN_POINT('',(63.701814159051,-14.39436695013,
    -11.64064436499));
#367 = CARTESIAN_POINT('',(63.679248532979,-14.37269460014,
    -11.66530122319));
#368 = CARTESIAN_POINT('',(63.66002226777,-14.34924976337,
    -11.68576208938));
#369 = CARTESIAN_POINT('',(63.640359824873,-14.31534515588,
    -11.70635631197));
#370 = CARTESIAN_POINT('',(63.635832840799,-14.30634754033,
    -11.71105795014));
#371 = CARTESIAN_POINT('',(63.63195471657,-14.29718504332,
    -11.71505683541));
#372 = CARTESIAN_POINT('',(63.628786284199,-14.28789097007,-11.718305294
    ));
#373 = CARTESIAN_POINT('',(63.626374657378,-14.27849648793,
    -11.72076795743));
#374 = CARTESIAN_POINT('',(63.624752945558,-14.26903109334,
    -11.72242068788));
#375 = CARTESIAN_POINT('',(63.623939968037,-14.25952307884,
    -11.72324950344));
#376 = CARTESIAN_POINT('',(63.623939968037,-14.24171017072,
    -11.72324950344));
#377 = CARTESIAN_POINT('',(63.624555899972,-14.23342920228,
    -11.7226216226));
#378 = CARTESIAN_POINT('',(63.625786022953,-14.22517535969,
    -11.72136790868));
#379 = CARTESIAN_POINT('',(63.627619458126,-14.21696845934,
    -11.71949651044));
#380 = CARTESIAN_POINT('',(63.630036460161,-14.20882955043,
    -11.71702203261));
#381 = CARTESIAN_POINT('',(63.633008688729,-14.20078059643,
    -11.71396589096));
#382 = CARTESIAN_POINT('',(63.636499479991,-14.1928441565,-11.7103566673
    ));
#383 = CARTESIAN_POINT('',(63.648911769355,-14.16842089795,
    -11.69743855933));
#384 = CARTESIAN_POINT('',(63.659486284472,-14.15246292039,
    -11.68632538964));
#385 = CARTESIAN_POINT('',(63.671828770773,-14.13720277962,
    -11.67316681633));
#386 = CARTESIAN_POINT('',(63.685588514333,-14.12268276224,
    -11.65821785318));
#387 = CARTESIAN_POINT('',(63.700436744303,-14.10895030066,
    -11.64172031059));
#388 = CARTESIAN_POINT('',(63.716076576369,-14.09605359761,
    -11.62390554302));
#389 = CARTESIAN_POINT('',(63.732249135328,-14.08403637055,
    -11.60499229998));
#390 = CARTESIAN_POINT('',(63.758929942498,-14.06606547488,
    -11.57292912263));
#391 = CARTESIAN_POINT('',(63.769267596531,-14.0595323932,
    -11.56030656631));
#392 = CARTESIAN_POINT('',(63.779702801106,-14.05334009208,
    -11.54735071688));
#393 = CARTESIAN_POINT('',(63.790195768246,-14.04749534168,
    -11.53409642396));
#394 = CARTESIAN_POINT('',(63.800712399231,-14.04200436012,
    -11.52057483172));
#395 = CARTESIAN_POINT('',(63.811223744045,-14.03687311275,
    -11.50681352879));
#396 = CARTESIAN_POINT('',(63.821705460827,-14.03210761122,
    -11.49283669828));
#397 = CARTESIAN_POINT('',(63.853271295283,-14.01881353965,
    -11.44995508539));
#398 = CARTESIAN_POINT('',(63.874203657046,-14.01143876694,
    -11.42044186196));
#399 = CARTESIAN_POINT('',(63.894723017913,-14.00566193243,
    -11.3903570131));
#400 = CARTESIAN_POINT('',(63.914661106161,-14.00155572705,
    -11.35992323223));
#401 = CARTESIAN_POINT('',(63.933884409104,-13.99918878697,
    -11.32936014563));
#402 = CARTESIAN_POINT('',(63.952287451286,-13.99862197436,
    -11.29888844835));
#403 = CARTESIAN_POINT('',(63.969787662786,-13.99990564672,
    -11.26873252062));
#404 = CARTESIAN_POINT('',(64.020384939167,-14.00961330546,
    -11.17811803634));
#405 = CARTESIAN_POINT('',(64.050473477887,-14.02418838431,
    -11.11920248486));
#406 = CARTESIAN_POINT('',(64.07556882358,-14.04716163033,
    -11.06514573277));
#407 = CARTESIAN_POINT('',(64.095352377503,-14.07815446551,
    -11.0185446465));
#408 = CARTESIAN_POINT('',(64.109949168685,-14.11606722865,
    -10.98169477421));
#409 = CARTESIAN_POINT('',(64.119623208224,-14.15900968206,
    -10.95644132396));
#410 = CARTESIAN_POINT('',(64.124458831721,-14.20450838963,
    -10.94381796018));
#411 = CARTESIAN_POINT('',(64.124458831721,-14.25,-10.94381796018));
#412 = PCURVE('',#49,#413);
#413 = DEFINITIONAL_REPRESENTATION('',(#414),#480);
#414 = B_SPLINE_CURVE_WITH_KNOTS('',8,(#415,#416,#417,#418,#419,#420,
    #421,#422,#423,#424,#425,#426,#427,#428,#429,#430,#431,#432,#433,
    #434,#435,#436,#437,#438,#439,#440,#441,#442,#443,#444,#445,#446,
    #447,#448,#449,#450,#451,#452,#453,#454,#455,#456,#457,#458,#459,
    #460,#461,#462,#463,#464,#465,#466,#467,#468,#469,#470,#471,#472,
    #473,#474,#475,#476,#477,#478,#479),.UNSPECIFIED.,.T.,.F.,(9,7,7,7,7
    ,7,7,7,7,9),(0.,0.217591743756,0.324010522518,0.454054121985,
    0.49961651364,0.539278523653,0.623788338159,0.676042529191,
    0.781905331586,1.),.UNSPECIFIED.);
#415 = CARTESIAN_POINT('',(1.936623848975,0.25));
#416 = CARTESIAN_POINT('',(1.936623848975,0.204508176763));
#417 = CARTESIAN_POINT('',(1.942565858313,0.159009373151));
#418 = CARTESIAN_POINT('',(1.954452712742,0.11606698672));
#419 = CARTESIAN_POINT('',(1.971874627955,7.815425312443E-02));
#420 = CARTESIAN_POINT('',(1.994111879074,4.716131315812E-02));
#421 = CARTESIAN_POINT('',(2.020280025051,2.418801231157E-02));
#422 = CARTESIAN_POINT('',(2.049338968432,9.613190692512E-03));
#423 = CARTESIAN_POINT('',(2.095070329809,-1.183280847393E-04));
#424 = CARTESIAN_POINT('',(2.110512597153,-1.397252614028E-03));
#425 = CARTESIAN_POINT('',(2.126278483927,-7.980157138572E-04));
#426 = CARTESIAN_POINT('',(2.142268318479,1.627725420948E-03));
#427 = CARTESIAN_POINT('',(2.158379466212,5.817591992477E-03));
#428 = CARTESIAN_POINT('',(2.174503285055,1.17013017756E-02));
#429 = CARTESIAN_POINT('',(2.190520859612,1.92045268552E-02));
#430 = CARTESIAN_POINT('',(2.225576563686,3.931197901716E-02));
#431 = CARTESIAN_POINT('',(2.244443736625,5.264917618754E-02));
#432 = CARTESIAN_POINT('',(2.26278789568,6.818400891659E-02));
#433 = CARTESIAN_POINT('',(2.280357329332,8.587732966546E-02));
#434 = CARTESIAN_POINT('',(2.296753383976,0.105633049863));
#435 = CARTESIAN_POINT('',(2.311443209975,0.127305399857));
#436 = CARTESIAN_POINT('',(2.323784193864,0.150750236627));
#437 = CARTESIAN_POINT('',(2.336299967581,0.184654844112));
#438 = CARTESIAN_POINT('',(2.339168861263,0.193652459664));
#439 = CARTESIAN_POINT('',(2.341617428697,0.202814956673));
#440 = CARTESIAN_POINT('',(2.343612046627,0.212109029924));
#441 = CARTESIAN_POINT('',(2.345127137088,0.22150351207));
#442 = CARTESIAN_POINT('',(2.34614493453,0.230968906657));
#443 = CARTESIAN_POINT('',(2.346655252933,0.240476921159));
#444 = CARTESIAN_POINT('',(2.346655252933,0.258289829279));
#445 = CARTESIAN_POINT('',(2.346268638717,0.266570797712));
#446 = CARTESIAN_POINT('',(2.345496586063,0.274824640301));
#447 = CARTESIAN_POINT('',(2.344345003526,0.283031540657));
#448 = CARTESIAN_POINT('',(2.342824552305,0.29117044957));
#449 = CARTESIAN_POINT('',(2.340950666125,0.29921940357));
#450 = CARTESIAN_POINT('',(2.338743571099,0.307155843498));
#451 = CARTESIAN_POINT('',(2.330868904518,0.331579102042));
#452 = CARTESIAN_POINT('',(2.324126016281,0.347537079607));
#453 = CARTESIAN_POINT('',(2.316196169668,0.362797220371));
#454 = CARTESIAN_POINT('',(2.307266225913,0.377317237753));
#455 = CARTESIAN_POINT('',(2.297511294571,0.391049699339));
#456 = CARTESIAN_POINT('',(2.287092570072,0.403946402383));
#457 = CARTESIAN_POINT('',(2.276155089,0.415963629443));
#458 = CARTESIAN_POINT('',(2.257820028716,0.433934525111));
#459 = CARTESIAN_POINT('',(2.250648594576,0.4404676068));
#460 = CARTESIAN_POINT('',(2.24333659375,0.446659907915));
#461 = CARTESIAN_POINT('',(2.235906362168,0.452504658319));
#462 = CARTESIAN_POINT('',(2.228377309912,0.457995639871));
#463 = CARTESIAN_POINT('',(2.22076614754,0.46312688725));
#464 = CARTESIAN_POINT('',(2.213087112406,0.467892388777));
#465 = CARTESIAN_POINT('',(2.189681872269,0.481186460348));
#466 = CARTESIAN_POINT('',(2.173779824127,0.488561233052));
#467 = CARTESIAN_POINT('',(2.157777189047,0.494338067561));
#468 = CARTESIAN_POINT('',(2.141790035913,0.498444272946));
#469 = CARTESIAN_POINT('',(2.125924584658,0.500811213025));
#470 = CARTESIAN_POINT('',(2.110281272373,0.501378025633));
#471 = CARTESIAN_POINT('',(2.094957664894,0.500094353274));
#472 = CARTESIAN_POINT('',(2.049338429094,0.490386694538));
#473 = CARTESIAN_POINT('',(2.02027967009,0.475811615682));
#474 = CARTESIAN_POINT('',(1.994111708632,0.452838369661));
#475 = CARTESIAN_POINT('',(1.971874520937,0.42184553449));
#476 = CARTESIAN_POINT('',(1.954452599767,0.383932771344));
#477 = CARTESIAN_POINT('',(1.942565802553,0.340990317932));
#478 = CARTESIAN_POINT('',(1.936623848975,0.295491610364));
#479 = CARTESIAN_POINT('',(1.936623848975,0.25));
#480 = ( GEOMETRIC_REPRESENTATION_CONTEXT(2) 
PARAMETRIC_REPRESENTATION_CONTEXT() REPRESENTATION_CONTEXT('2D SPACE',''
  ) );
#481 = PCURVE('',#482,#487);
#482 = CYLINDRICAL_SURFACE('',#483,0.25);
#483 = AXIS2_PLACEMENT_3D('',#484,#485,#486);
#484 = CARTESIAN_POINT('',(62.690344065711,-14.25,-11.87615293457));
#485 = DIRECTION('',(0.909059342886,0.,0.416666666667));
#486 = DIRECTION('',(-0.416666666667,0.,0.909059342886));
#487 = DEFINITIONAL_REPRESENTATION('',(#488),#554);
#488 = B_SPLINE_CURVE_WITH_KNOTS('',8,(#489,#490,#491,#492,#493,#494,
    #495,#496,#497,#498,#499,#500,#501,#502,#503,#504,#505,#506,#507,
    #508,#509,#510,#511,#512,#513,#514,#515,#516,#517,#518,#519,#520,
    #521,#522,#523,#524,#525,#526,#527,#528,#529,#530,#531,#532,#533,
    #534,#535,#536,#537,#538,#539,#540,#541,#542,#543,#544,#545,#546,
    #547,#548,#549,#550,#551,#552,#553),.UNSPECIFIED.,.F.,.F.,(9,7,7,7,7
    ,7,7,7,7,9),(0.,0.217591743756,0.324010522518,0.454054121985,
    0.49961651364,0.539278523653,0.623788338159,0.676042529191,
    0.781905331586,1.),.UNSPECIFIED.);
#489 = CARTESIAN_POINT('',(0.,1.692168332809));
#490 = CARTESIAN_POINT('',(0.181967292949,1.692168332809));
#491 = CARTESIAN_POINT('',(0.363962812527,1.682512638212));
#492 = CARTESIAN_POINT('',(0.544911914437,1.66319600066));
#493 = CARTESIAN_POINT('',(0.724125181976,1.634572533638));
#494 = CARTESIAN_POINT('',(0.901107112381,1.597170896645));
#495 = CARTESIAN_POINT('',(1.075427054127,1.551833768722));
#496 = CARTESIAN_POINT('',(1.246610913695,1.499932966534));
#497 = CARTESIAN_POINT('',(1.495444027926,1.415975154215));
#498 = CARTESIAN_POINT('',(1.576342624197,1.387278430429));
#499 = CARTESIAN_POINT('',(1.656533010796,1.357616518051));
#500 = CARTESIAN_POINT('',(1.736126345282,1.327161712378));
#501 = CARTESIAN_POINT('',(1.815230396778,1.296106173821));
#502 = CARTESIAN_POINT('',(1.893957628974,1.264667942604));
#503 = CARTESIAN_POINT('',(1.972435384258,1.233099164645));
#504 = CARTESIAN_POINT('',(2.146601822769,1.163322551184));
#505 = CARTESIAN_POINT('',(2.241985331205,1.125300381314));
#506 = CARTESIAN_POINT('',(2.337905712126,1.087908175313));
#507 = CARTESIAN_POINT('',(2.434879105047,1.051713609874));
#508 = CARTESIAN_POINT('',(2.533216748284,1.01761490906));
#509 = CARTESIAN_POINT('',(2.633210728895,0.986827724936));
#510 = CARTESIAN_POINT('',(2.735333576499,0.960824548007));
#511 = CARTESIAN_POINT('',(2.877340654401,0.934369294505));
#512 = CARTESIAN_POINT('',(2.914544347567,0.928294981435));
#513 = CARTESIAN_POINT('',(2.952017540356,0.923103334176));
#514 = CARTESIAN_POINT('',(2.989693384378,0.918869516716));
#515 = CARTESIAN_POINT('',(3.027522496694,0.915651095058));
#516 = CARTESIAN_POINT('',(3.065467962569,0.913488225091));
#517 = CARTESIAN_POINT('',(3.103500338224,0.912403840464));
#518 = CARTESIAN_POINT('',(3.174751970705,0.912403840464));
#519 = CARTESIAN_POINT('',(3.207875952583,0.913225376161));
#520 = CARTESIAN_POINT('',(3.240946747613,0.914866011746));
#521 = CARTESIAN_POINT('',(3.273940431261,0.917312462388));
#522 = CARTESIAN_POINT('',(3.306826710508,0.920540693098));
#523 = CARTESIAN_POINT('',(3.339568628282,0.924516017601));
#524 = CARTESIAN_POINT('',(3.372122267902,0.929193197204));
#525 = CARTESIAN_POINT('',(3.473289906159,0.945859249804));
#526 = CARTESIAN_POINT('',(3.540850566291,0.960102598941));
#527 = CARTESIAN_POINT('',(3.607377637776,0.976805390305));
#528 = CARTESIAN_POINT('',(3.673043084025,0.995542548391));
#529 = CARTESIAN_POINT('',(3.737952741089,1.015914446649));
#530 = CARTESIAN_POINT('',(3.802166888822,1.037554801931));
#531 = CARTESIAN_POINT('',(3.865720284097,1.060137135682));
#532 = CARTESIAN_POINT('',(3.967547260254,1.097751229947));
#533 = CARTESIAN_POINT('',(4.006300613165,1.112408169394));
#534 = CARTESIAN_POINT('',(4.04492480542,1.127292660205));
#535 = CARTESIAN_POINT('',(4.083444562463,1.142354012066));
#536 = CARTESIAN_POINT('',(4.121886799347,1.157548250486));
#537 = CARTESIAN_POINT('',(4.16028117551,1.172837562915));
#538 = CARTESIAN_POINT('',(4.198660649554,1.188189744866));
#539 = CARTESIAN_POINT('',(4.314860160716,1.2347523003));
#540 = CARTESIAN_POINT('',(4.392760505178,1.266078235758));
#541 = CARTESIAN_POINT('',(4.4709126665,1.297266906154));
#542 = CARTESIAN_POINT('',(4.549440267238,1.328072553587));
#543 = CARTESIAN_POINT('',(4.628452661715,1.358282296143));
#544 = CARTESIAN_POINT('',(4.70805466616,1.38770829411));
#545 = CARTESIAN_POINT('',(4.788354310683,1.416181994763));
#546 = CARTESIAN_POINT('',(5.036577328129,1.499933956701));
#547 = CARTESIAN_POINT('',(5.207760654565,1.551834370387));
#548 = CARTESIAN_POINT('',(5.382079789093,1.597171175556));
#549 = CARTESIAN_POINT('',(5.559061239779,1.634572719366));
#550 = CARTESIAN_POINT('',(5.738274507241,1.66319618222));
#551 = CARTESIAN_POINT('',(5.919223727237,1.682512729183));
#552 = CARTESIAN_POINT('',(6.101218865724,1.692168332809));
#553 = CARTESIAN_POINT('',(6.28318530718,1.692168332809));
#554 = ( GEOMETRIC_REPRESENTATION_CONTEXT(2) 
PARAMETRIC_REPRESENTATION_CONTEXT() REPRESENTATION_CONTEXT('2D SPACE',''
  ) );
#555 = ORIENTED_EDGE('',*,*,#556,.F.);
#556 = EDGE_CURVE('',#314,#343,#557,.T.);
#557 = SURFACE_CURVE('',#558,(#624,#693),.PCURVE_S1.);
#558 = B_SPLINE_CURVE_WITH_KNOTS('',8,(#559,#560,#561,#562,#563,#564,
    #565,#566,#567,#568,#569,#570,#571,#572,#573,#574,#575,#576,#577,
    #578,#579,#580,#581,#582,#583,#584,#585,#586,#587,#588,#589,#590,
    #591,#592,#593,#594,#595,#596,#597,#598,#599,#600,#601,#602,#603,
    #604,#605,#606,#607,#608,#609,#610,#611,#612,#613,#614,#615,#616,
    #617,#618,#619,#620,#621,#622,#623),.UNSPECIFIED.,.T.,.F.,(9,7,7,7,7
    ,7,7,7,7,9),(0.,0.217591743756,0.324010522518,0.454054121985,
    0.49961651364,0.539278523653,0.623788338159,0.676042529191,
    0.781905331586,1.),.UNSPECIFIED.);
#559 = CARTESIAN_POINT('',(64.124458831721,-14.25,-10.94381796018));
#560 = CARTESIAN_POINT('',(64.124458831721,-14.29549182323,
    -10.94381796018));
#561 = CARTESIAN_POINT('',(64.11962316239,-14.34099062684,
    -10.95644144229));
#562 = CARTESIAN_POINT('',(64.109949079001,-14.38393301328,
    -10.98169501429));
#563 = CARTESIAN_POINT('',(64.095352276293,-14.42184574687,
    -11.01854487143));
#564 = CARTESIAN_POINT('',(64.075568679128,-14.45283868684,-11.065146087
    ));
#565 = CARTESIAN_POINT('',(64.05047315925,-14.47581198768,
    -11.11920323367));
#566 = CARTESIAN_POINT('',(64.020384340975,-14.4903868093,
    -11.17811910764));
#567 = CARTESIAN_POINT('',(63.969662703703,-14.50011832808,
    -11.26895630941));
#568 = CARTESIAN_POINT('',(63.952023230898,-14.50139725261,
    -11.29934366036));
#569 = CARTESIAN_POINT('',(63.93346796722,-14.50079801571,
    -11.33004944413));
#570 = CARTESIAN_POINT('',(63.914081393454,-14.49837227457,
    -11.36084446732));
#571 = CARTESIAN_POINT('',(63.893971580046,-14.494182408,-11.39150332683
    ));
#572 = CARTESIAN_POINT('',(63.873275540126,-14.48829869822,
    -11.42180165347));
#573 = CARTESIAN_POINT('',(63.85216627869,-14.48079547314,
    -11.45151174938));
#574 = CARTESIAN_POINT('',(63.804827174428,-14.46068802098,
    -11.51569388965));
#575 = CARTESIAN_POINT('',(63.778571268516,-14.44735082381,
    -11.54966347356));
#576 = CARTESIAN_POINT('',(63.752316957082,-14.43181599108,
    -11.58212462292));
#577 = CARTESIAN_POINT('',(63.726498009384,-14.41412267033,
    -11.61266128647));
#578 = CARTESIAN_POINT('',(63.701814159051,-14.39436695013,
    -11.64064436499));
#579 = CARTESIAN_POINT('',(63.679248532979,-14.37269460014,
    -11.66530122319));
#580 = CARTESIAN_POINT('',(63.66002226777,-14.34924976337,
    -11.68576208938));
#581 = CARTESIAN_POINT('',(63.640359824873,-14.31534515588,
    -11.70635631197));
#582 = CARTESIAN_POINT('',(63.635832840799,-14.30634754033,
    -11.71105795014));
#583 = CARTESIAN_POINT('',(63.63195471657,-14.29718504332,
    -11.71505683541));
#584 = CARTESIAN_POINT('',(63.628786284199,-14.28789097007,-11.718305294
    ));
#585 = CARTESIAN_POINT('',(63.626374657378,-14.27849648793,
    -11.72076795743));
#586 = CARTESIAN_POINT('',(63.624752945558,-14.26903109334,
    -11.72242068788));
#587 = CARTESIAN_POINT('',(63.623939968037,-14.25952307884,
    -11.72324950344));
#588 = CARTESIAN_POINT('',(63.623939968037,-14.24171017072,
    -11.72324950344));
#589 = CARTESIAN_POINT('',(63.624555899972,-14.23342920228,
    -11.7226216226));
#590 = CARTESIAN_POINT('',(63.625786022953,-14.22517535969,
    -11.72136790868));
#591 = CARTESIAN_POINT('',(63.627619458126,-14.21696845934,
    -11.71949651044));
#592 = CARTESIAN_POINT('',(63.630036460161,-14.20882955043,
    -11.71702203261));
#593 = CARTESIAN_POINT('',(63.633008688729,-14.20078059643,
    -11.71396589096));
#594 = CARTESIAN_POINT('',(63.636499479991,-14.1928441565,-11.7103566673
    ));
#595 = CARTESIAN_POINT('',(63.648911769355,-14.16842089795,
    -11.69743855933));
#596 = CARTESIAN_POINT('',(63.659486284472,-14.15246292039,
    -11.68632538964));
#597 = CARTESIAN_POINT('',(63.671828770773,-14.13720277962,
    -11.67316681633));
#598 = CARTESIAN_POINT('',(63.685588514333,-14.12268276224,
    -11.65821785318));
#599 = CARTESIAN_POINT('',(63.700436744303,-14.10895030066,
    -11.64172031059));
#600 = CARTESIAN_POINT('',(63.716076576369,-14.09605359761,
    -11.62390554302));
#601 = CARTESIAN_POINT('',(63.732249135328,-14.08403637055,
    -11.60499229998));
#602 = CARTESIAN_POINT('',(63.758929942498,-14.06606547488,
    -11.57292912263));
#603 = CARTESIAN_POINT('',(63.769267596531,-14.0595323932,
    -11.56030656631));
#604 = CARTESIAN_POINT('',(63.779702801106,-14.05334009208,
    -11.54735071688));
#605 = CARTESIAN_POINT('',(63.790195768246,-14.04749534168,
    -11.53409642396));
#606 = CARTESIAN_POINT('',(63.800712399231,-14.04200436012,
    -11.52057483172));
#607 = CARTESIAN_POINT('',(63.811223744045,-14.03687311275,
    -11.50681352879));
#608 = CARTESIAN_POINT('',(63.821705460827,-14.03210761122,
    -11.49283669828));
#609 = CARTESIAN_POINT('',(63.853271295283,-14.01881353965,
    -11.44995508539));
#610 = CARTESIAN_POINT('',(63.874203657046,-14.01143876694,
    -11.42044186196));
#611 = CARTESIAN_POINT('',(63.894723017913,-14.00566193243,
    -11.3903570131));
#612 = CARTESIAN_POINT('',(63.914661106161,-14.00155572705,
    -11.35992323223));
#613 = CARTESIAN_POINT('',(63.933884409104,-13.99918878697,
    -11.32936014563));
#614 = CARTESIAN_POINT('',(63.952287451286,-13.99862197436,
    -11.29888844835));
#615 = CARTESIAN_POINT('',(63.969787662786,-13.99990564672,
    -11.26873252062));
#616 = CARTESIAN_POINT('',(64.020384939167,-14.00961330546,
    -11.17811803634));
#617 = CARTESIAN_POINT('',(64.050473477887,-14.02418838431,
    -11.11920248486));
#618 = CARTESIAN_POINT('',(64.07556882358,-14.04716163033,
    -11.06514573277));
#619 = CARTESIAN_POINT('',(64.095352377503,-14.07815446551,
    -11.0185446465));
#620 = CARTESIAN_POINT('',(64.109949168685,-14.11606722865,
    -10.98169477421));
#621 = CARTESIAN_POINT('',(64.119623208224,-14.15900968206,
    -10.95644132396));
#622 = CARTESIAN_POINT('',(64.124458831721,-14.20450838963,
    -10.94381796018));
#623 = CARTESIAN_POINT('',(64.124458831721,-14.25,-10.94381796018));
#624 = PCURVE('',#49,#625);
#625 = DEFINITIONAL_REPRESENTATION('',(#626),#692);
#626 = B_SPLINE_CURVE_WITH_KNOTS('',8,(#627,#628,#629,#630,#631,#632,
    #633,#634,#635,#636,#637,#638,#639,#640,#641,#642,#643,#644,#645,
    #646,#647,#648,#649,#650,#651,#652,#653,#654,#655,#656,#657,#658,
    #659,#660,#661,#662,#663,#664,#665,#666,#667,#668,#669,#670,#671,
    #672,#673,#674,#675,#676,#677,#678,#679,#680,#681,#682,#683,#684,
    #685,#686,#687,#688,#689,#690,#691),.UNSPECIFIED.,.T.,.F.,(9,7,7,7,7
    ,7,7,7,7,9),(0.,0.217591743756,0.324010522518,0.454054121985,
    0.49961651364,0.539278523653,0.623788338159,0.676042529191,
    0.781905331586,1.),.UNSPECIFIED.);
#627 = CARTESIAN_POINT('',(1.936623848975,0.25));
#628 = CARTESIAN_POINT('',(1.936623848975,0.204508176763));
#629 = CARTESIAN_POINT('',(1.942565858313,0.159009373151));
#630 = CARTESIAN_POINT('',(1.954452712742,0.11606698672));
#631 = CARTESIAN_POINT('',(1.971874627955,7.815425312443E-02));
#632 = CARTESIAN_POINT('',(1.994111879074,4.716131315812E-02));
#633 = CARTESIAN_POINT('',(2.020280025051,2.418801231157E-02));
#634 = CARTESIAN_POINT('',(2.049338968432,9.613190692512E-03));
#635 = CARTESIAN_POINT('',(2.095070329809,-1.183280847393E-04));
#636 = CARTESIAN_POINT('',(2.110512597153,-1.397252614028E-03));
#637 = CARTESIAN_POINT('',(2.126278483927,-7.980157138572E-04));
#638 = CARTESIAN_POINT('',(2.142268318479,1.627725420948E-03));
#639 = CARTESIAN_POINT('',(2.158379466212,5.817591992477E-03));
#640 = CARTESIAN_POINT('',(2.174503285055,1.17013017756E-02));
#641 = CARTESIAN_POINT('',(2.190520859612,1.92045268552E-02));
#642 = CARTESIAN_POINT('',(2.225576563686,3.931197901716E-02));
#643 = CARTESIAN_POINT('',(2.244443736625,5.264917618754E-02));
#644 = CARTESIAN_POINT('',(2.26278789568,6.818400891659E-02));
#645 = CARTESIAN_POINT('',(2.280357329332,8.587732966546E-02));
#646 = CARTESIAN_POINT('',(2.296753383976,0.105633049863));
#647 = CARTESIAN_POINT('',(2.311443209975,0.127305399857));
#648 = CARTESIAN_POINT('',(2.323784193864,0.150750236627));
#649 = CARTESIAN_POINT('',(2.336299967581,0.184654844112));
#650 = CARTESIAN_POINT('',(2.339168861263,0.193652459664));
#651 = CARTESIAN_POINT('',(2.341617428697,0.202814956673));
#652 = CARTESIAN_POINT('',(2.343612046627,0.212109029924));
#653 = CARTESIAN_POINT('',(2.345127137088,0.22150351207));
#654 = CARTESIAN_POINT('',(2.34614493453,0.230968906657));
#655 = CARTESIAN_POINT('',(2.346655252933,0.240476921159));
#656 = CARTESIAN_POINT('',(2.346655252933,0.258289829279));
#657 = CARTESIAN_POINT('',(2.346268638717,0.266570797712));
#658 = CARTESIAN_POINT('',(2.345496586063,0.274824640301));
#659 = CARTESIAN_POINT('',(2.344345003526,0.283031540657));
#660 = CARTESIAN_POINT('',(2.342824552305,0.29117044957));
#661 = CARTESIAN_POINT('',(2.340950666125,0.29921940357));
#662 = CARTESIAN_POINT('',(2.338743571099,0.307155843498));
#663 = CARTESIAN_POINT('',(2.330868904518,0.331579102042));
#664 = CARTESIAN_POINT('',(2.324126016281,0.347537079607));
#665 = CARTESIAN_POINT('',(2.316196169668,0.362797220371));
#666 = CARTESIAN_POINT('',(2.307266225913,0.377317237753));
#667 = CARTESIAN_POINT('',(2.297511294571,0.391049699339));
#668 = CARTESIAN_POINT('',(2.287092570072,0.403946402383));
#669 = CARTESIAN_POINT('',(2.276155089,0.415963629443));
#670 = CARTESIAN_POINT('',(2.257820028716,0.433934525111));
#671 = CARTESIAN_POINT('',(2.250648594576,0.4404676068));
#672 = CARTESIAN_POINT('',(2.24333659375,0.446659907915));
#673 = CARTESIAN_POINT('',(2.235906362168,0.452504658319));
#674 = CARTESIAN_POINT('',(2.228377309912,0.457995639871));
#675 = CARTESIAN_POINT('',(2.22076614754,0.46312688725));
#676 = CARTESIAN_POINT('',(2.213087112406,0.467892388777));
#677 = CARTESIAN_POINT('',(2.189681872269,0.481186460348));
#678 = CARTESIAN_POINT('',(2.173779824127,0.488561233052));
#679 = CARTESIAN_POINT('',(2.157777189047,0.494338067561));
#680 = CARTESIAN_POINT('',(2.141790035913,0.498444272946));
#681 = CARTESIAN_POINT('',(2.125924584658,0.500811213025));
#682 = CARTESIAN_POINT('',(2.110281272373,0.501378025633));
#683 = CARTESIAN_POINT('',(2.094957664894,0.500094353274));
#684 = CARTESIAN_POINT('',(2.049338429094,0.490386694538));
#685 = CARTESIAN_POINT('',(2.02027967009,0.475811615682));
#686 = CARTESIAN_POINT('',(1.994111708632,0.452838369661));
#687 = CARTESIAN_POINT('',(1.971874520937,0.42184553449));
#688 = CARTESIAN_POINT('',(1.954452599767,0.383932771344));
#689 = CARTESIAN_POINT('',(1.942565802553,0.340990317932));
#690 = CARTESIAN_POINT('',(1.936623848975,0.295491610364));
#691 = CARTESIAN_POINT('',(1.936623848975,0.25));
#692 = ( GEOMETRIC_REPRESENTATION_CONTEXT(2) 
PARAMETRIC_REPRESENTATION_CONTEXT() REPRESENTATION_CONTEXT('2D SPACE',''
  ) );
#693 = PCURVE('',#482,#694);
#694 = DEFINITIONAL_REPRESENTATION('',(#695),#761);
#695 = B_SPLINE_CURVE_WITH_KNOTS('',8,(#696,#697,#698,#699,#700,#701,
    #702,#703,#704,#705,#706,#707,#708,#709,#710,#711,#712,#713,#714,
    #715,#716,#717,#718,#719,#720,#721,#722,#723,#724,#725,#726,#727,
    #728,#729,#730,#731,#732,#733,#734,#735,#736,#737,#738,#739,#740,
    #741,#742,#743,#744,#745,#746,#747,#748,#749,#750,#751,#752,#753,
    #754,#755,#756,#757,#758,#759,#760),.UNSPECIFIED.,.F.,.F.,(9,7,7,7,7
    ,7,7,7,7,9),(0.,0.217591743756,0.324010522518,0.454054121985,
    0.49961651364,0.539278523653,0.623788338159,0.676042529191,
    0.781905331586,1.),.UNSPECIFIED.);
#696 = CARTESIAN_POINT('',(0.,1.692168332809));
#697 = CARTESIAN_POINT('',(0.181967292949,1.692168332809));
#698 = CARTESIAN_POINT('',(0.363962812527,1.682512638212));
#699 = CARTESIAN_POINT('',(0.544911914437,1.66319600066));
#700 = CARTESIAN_POINT('',(0.724125181976,1.634572533638));
#701 = CARTESIAN_POINT('',(0.901107112381,1.597170896645));
#702 = CARTESIAN_POINT('',(1.075427054127,1.551833768722));
#703 = CARTESIAN_POINT('',(1.246610913695,1.499932966534));
#704 = CARTESIAN_POINT('',(1.495444027926,1.415975154215));
#705 = CARTESIAN_POINT('',(1.576342624197,1.387278430429));
#706 = CARTESIAN_POINT('',(1.656533010796,1.357616518051));
#707 = CARTESIAN_POINT('',(1.736126345282,1.327161712378));
#708 = CARTESIAN_POINT('',(1.815230396778,1.296106173821));
#709 = CARTESIAN_POINT('',(1.893957628974,1.264667942604));
#710 = CARTESIAN_POINT('',(1.972435384258,1.233099164645));
#711 = CARTESIAN_POINT('',(2.146601822769,1.163322551184));
#712 = CARTESIAN_POINT('',(2.241985331205,1.125300381314));
#713 = CARTESIAN_POINT('',(2.337905712126,1.087908175313));
#714 = CARTESIAN_POINT('',(2.434879105047,1.051713609874));
#715 = CARTESIAN_POINT('',(2.533216748284,1.01761490906));
#716 = CARTESIAN_POINT('',(2.633210728895,0.986827724936));
#717 = CARTESIAN_POINT('',(2.735333576499,0.960824548007));
#718 = CARTESIAN_POINT('',(2.877340654401,0.934369294505));
#719 = CARTESIAN_POINT('',(2.914544347567,0.928294981435));
#720 = CARTESIAN_POINT('',(2.952017540356,0.923103334176));
#721 = CARTESIAN_POINT('',(2.989693384378,0.918869516716));
#722 = CARTESIAN_POINT('',(3.027522496694,0.915651095058));
#723 = CARTESIAN_POINT('',(3.065467962569,0.913488225091));
#724 = CARTESIAN_POINT('',(3.103500338224,0.912403840464));
#725 = CARTESIAN_POINT('',(3.174751970705,0.912403840464));
#726 = CARTESIAN_POINT('',(3.207875952583,0.913225376161));
#727 = CARTESIAN_POINT('',(3.240946747613,0.914866011746));
#728 = CARTESIAN_POINT('',(3.273940431261,0.917312462388));
#729 = CARTESIAN_POINT('',(3.306826710508,0.920540693098));
#730 = CARTESIAN_POINT('',(3.339568628282,0.924516017601));
#731 = CARTESIAN_POINT('',(3.372122267902,0.929193197204));
#732 = CARTESIAN_POINT('',(3.473289906159,0.945859249804));
#733 = CARTESIAN_POINT('',(3.540850566291,0.960102598941));
#734 = CARTESIAN_POINT('',(3.607377637776,0.976805390305));
#735 = CARTESIAN_POINT('',(3.673043084025,0.995542548391));
#736 = CARTESIAN_POINT('',(3.737952741089,1.015914446649));
#737 = CARTESIAN_POINT('',(3.802166888822,1.037554801931));
#738 = CARTESIAN_POINT('',(3.865720284097,1.060137135682));
#739 = CARTESIAN_POINT('',(3.967547260254,1.097751229947));
#740 = CARTESIAN_POINT('',(4.006300613165,1.112408169394));
#741 = CARTESIAN_POINT('',(4.04492480542,1.127292660205));
#742 = CARTESIAN_POINT('',(4.083444562463,1.142354012066));
#743 = CARTESIAN_POINT('',(4.121886799347,1.157548250486));
#744 = CARTESIAN_POINT('',(4.16028117551,1.172837562915));
#745 = CARTESIAN_POINT('',(4.198660649554,1.188189744866));
#746 = CARTESIAN_POINT('',(4.314860160716,1.2347523003));
#747 = CARTESIAN_POINT('',(4.392760505178,1.266078235758));
#748 = CARTESIAN_POINT('',(4.4709126665,1.297266906154));
#749 = CARTESIAN_POINT('',(4.549440267238,1.328072553587));
#750 = CARTESIAN_POINT('',(4.628452661715,1.358282296143));
#751 = CARTESIAN_POINT('',(4.70805466616,1.38770829411));
#752 = CARTESIAN_POINT('',(4.788354310683,1.416181994763));
#753 = CARTESIAN_POINT('',(5.036577328129,1.499933956701));
#754 = CARTESIAN_POINT('',(5.207760654565,1.551834370387));
#755 = CARTESIAN_POINT('',(5.382079789093,1.597171175556));
#756 = CARTESIAN_POINT('',(5.559061239779,1.634572719366));
#757 = CARTESIAN_POINT('',(5.738274507241,1.66319618222));
#758 = CARTESIAN_POINT('',(5.919223727237,1.682512729183));
#759 = CARTESIAN_POINT('',(6.101218865724,1.692168332809));
#760 = CARTESIAN_POINT('',(6.28318530718,1.692168332809));
#761 = ( GEOMETRIC_REPRESENTATION_CONTEXT(2) 
PARAMETRIC_REPRESENTATION_CONTEXT() REPRESENTATION_CONTEXT('2D SPACE',''
  ) );
#762 = ORIENTED_EDGE('',*,*,#763,.T.);
#763 = EDGE_CURVE('',#314,#291,#764,.T.);
#764 = SURFACE_CURVE('',#765,(#770,#777),.PCURVE_S1.);
#765 = CIRCLE('',#766,2.275);
#766 = AXIS2_PLACEMENT_3D('',#767,#768,#769);
#767 = CARTESIAN_POINT('',(62.,-14.5,-10.13));
#768 = DIRECTION('',(0.,1.,0.));
#769 = DIRECTION('',(0.,-0.,1.));
#770 = PCURVE('',#49,#771);
#771 = DEFINITIONAL_REPRESENTATION('',(#772),#776);
#772 = LINE('',#773,#774);
#773 = CARTESIAN_POINT('',(0.,0.));
#774 = VECTOR('',#775,1.);
#775 = DIRECTION('',(1.,0.));
#776 = ( GEOMETRIC_REPRESENTATION_CONTEXT(2) 
PARAMETRIC_REPRESENTATION_CONTEXT() REPRESENTATION_CONTEXT('2D SPACE',''
  ) );
#777 = PCURVE('',#330,#778);
#778 = DEFINITIONAL_REPRESENTATION('',(#779),#783);
#779 = CIRCLE('',#780,2.275);
#780 = AXIS2_PLACEMENT_2D('',#781,#782);
#781 = CARTESIAN_POINT('',(0.,0.));
#782 = DIRECTION('',(1.,0.));
#783 = ( GEOMETRIC_REPRESENTATION_CONTEXT(2) 
PARAMETRIC_REPRESENTATION_CONTEXT() REPRESENTATION_CONTEXT('2D SPACE',''
  ) );
#784 = ORIENTED_EDGE('',*,*,#290,.T.);
#785 = ORIENTED_EDGE('',*,*,#786,.F.);
#786 = EDGE_CURVE('',#787,#181,#789,.T.);
#787 = VERTEX_POINT('',#788);
#788 = CARTESIAN_POINT('',(61.250739472714,-12.25,-7.981923264347));
#789 = SURFACE_CURVE('',#790,(#811,#835),.PCURVE_S1.);
#790 = B_SPLINE_CURVE_WITH_KNOTS('',7,(#791,#792,#793,#794,#795,#796,
    #797,#798,#799,#800,#801,#802,#803,#804,#805,#806,#807,#808,#809,
    #810),.UNSPECIFIED.,.F.,.F.,(8,6,6,8),(0.,0.353248687157,
    0.503697513142,1.),.UNSPECIFIED.);
#791 = CARTESIAN_POINT('',(61.250739472714,-12.25,-7.981923264348));
#792 = CARTESIAN_POINT('',(61.250739472714,-12.28018513307,
    -7.981923264348));
#793 = CARTESIAN_POINT('',(61.261981787909,-12.30925075476,
    -7.978001801335));
#794 = CARTESIAN_POINT('',(61.282968126473,-12.33697023576,
    -7.970682099815));
#795 = CARTESIAN_POINT('',(61.312128715829,-12.36311013392,
    -7.960925252132));
#796 = CARTESIAN_POINT('',(61.347670569977,-12.38719647479,
    -7.949886443706));
#797 = CARTESIAN_POINT('',(61.387429887299,-12.40864286277,
    -7.93860503429));
#798 = CARTESIAN_POINT('',(61.446458518188,-12.43491568209,
    -7.92329462781));
#799 = CARTESIAN_POINT('',(61.464619506241,-12.44231860545,
    -7.918759924662));
#800 = CARTESIAN_POINT('',(61.48322302099,-12.44926499331,
    -7.914303727565));
#801 = CARTESIAN_POINT('',(61.50219412492,-12.45574445842,
    -7.909958212036));
#802 = CARTESIAN_POINT('',(61.521469225394,-12.46174748899,
    -7.90574870544));
#803 = CARTESIAN_POINT('',(61.540995088988,-12.46726465046,
    -7.901694824969));
#804 = CARTESIAN_POINT('',(61.62582255625,-12.48884957663,
    -7.885001635591));
#805 = CARTESIAN_POINT('',(61.69346784219,-12.50009146148,
    -7.873990021496));
#806 = CARTESIAN_POINT('',(61.761410744689,-12.50537392226,
    -7.865490192685));
#807 = CARTESIAN_POINT('',(61.827741094593,-12.50415561197,
    -7.859682021964));
#808 = CARTESIAN_POINT('',(61.890712610736,-12.49610796355,
    -7.856350684776));
#809 = CARTESIAN_POINT('',(61.948677512629,-12.48117714736,-7.855));
#810 = CARTESIAN_POINT('',(62.,-12.45969600522,-7.855));
#811 = PCURVE('',#49,#812);
#812 = DEFINITIONAL_REPRESENTATION('',(#813),#834);
#813 = B_SPLINE_CURVE_WITH_KNOTS('',7,(#814,#815,#816,#817,#818,#819,
    #820,#821,#822,#823,#824,#825,#826,#827,#828,#829,#830,#831,#832,
    #833),.UNSPECIFIED.,.F.,.F.,(8,6,6,8),(0.,0.353248687157,
    0.503697513142,1.),.UNSPECIFIED.);
#814 = CARTESIAN_POINT('',(5.947575214235,2.25));
#815 = CARTESIAN_POINT('',(5.947575214235,2.219814866928));
#816 = CARTESIAN_POINT('',(5.952808826927,2.190749245236));
#817 = CARTESIAN_POINT('',(5.962578928146,2.163029764232));
#818 = CARTESIAN_POINT('',(5.976093221216,2.13688986608));
#819 = CARTESIAN_POINT('',(5.992444354127,2.112803525204));
#820 = CARTESIAN_POINT('',(6.010606262512,2.091357137224));
#821 = CARTESIAN_POINT('',(6.037411477725,2.06508431791));
#822 = CARTESIAN_POINT('',(6.045639080937,2.057681394545));
#823 = CARTESIAN_POINT('',(6.05404714998,2.050735006686));
#824 = CARTESIAN_POINT('',(6.062601289907,2.044255541577));
#825 = CARTESIAN_POINT('',(6.071272821459,2.038252511005));
#826 = CARTESIAN_POINT('',(6.080038172956,2.032735349538));
#827 = CARTESIAN_POINT('',(6.118040103195,2.011150423365));
#828 = CARTESIAN_POINT('',(6.148149351914,1.999908538517));
#829 = CARTESIAN_POINT('',(6.178214196697,1.994626077734));
#830 = CARTESIAN_POINT('',(6.207448292889,1.995844388022));
#831 = CARTESIAN_POINT('',(6.235146908891,2.003892036449));
#832 = CARTESIAN_POINT('',(6.260625972072,2.018822852632));
#833 = CARTESIAN_POINT('',(6.28318530718,2.040303994777));
#834 = ( GEOMETRIC_REPRESENTATION_CONTEXT(2) 
PARAMETRIC_REPRESENTATION_CONTEXT() REPRESENTATION_CONTEXT('2D SPACE',''
  ) );
#835 = PCURVE('',#78,#836);
#836 = DEFINITIONAL_REPRESENTATION('',(#837),#858);
#837 = B_SPLINE_CURVE_WITH_KNOTS('',7,(#838,#839,#840,#841,#842,#843,
    #844,#845,#846,#847,#848,#849,#850,#851,#852,#853,#854,#855,#856,
    #857),.UNSPECIFIED.,.F.,.F.,(8,6,6,8),(0.,0.353248687157,
    0.503697513142,1.),.UNSPECIFIED.);
#838 = CARTESIAN_POINT('',(0.,0.912403840464));
#839 = CARTESIAN_POINT('',(0.120740532286,0.912403840464));
#840 = CARTESIAN_POINT('',(0.237003161355,0.923525433912));
#841 = CARTESIAN_POINT('',(0.350754505629,0.944286030218));
#842 = CARTESIAN_POINT('',(0.462988008055,0.972866062187));
#843 = CARTESIAN_POINT('',(0.573884478676,1.007150197876));
#844 = CARTESIAN_POINT('',(0.682646585452,1.044814359756));
#845 = CARTESIAN_POINT('',(0.831514054013,1.099804846626));
#846 = CARTESIAN_POINT('',(0.875774788487,1.116610112342));
#847 = CARTESIAN_POINT('',(0.919868641087,1.133702999611));
#848 = CARTESIAN_POINT('',(0.963836308561,1.151005483319));
#849 = CARTESIAN_POINT('',(1.007723239188,1.168452625489));
#850 = CARTESIAN_POINT('',(1.051581122735,1.185991088122));
#851 = CARTESIAN_POINT('',(1.240248519055,1.261592405303));
#852 = CARTESIAN_POINT('',(1.386024392536,1.320397090062));
#853 = CARTESIAN_POINT('',(1.533355401287,1.377809637178));
#854 = CARTESIAN_POINT('',(1.682637425005,1.432254035781));
#855 = CARTESIAN_POINT('',(1.834276370647,1.482534045913));
#856 = CARTESIAN_POINT('',(1.988731755221,1.527710137041));
#857 = CARTESIAN_POINT('',(2.146546638018,1.566938202258));
#858 = ( GEOMETRIC_REPRESENTATION_CONTEXT(2) 
PARAMETRIC_REPRESENTATION_CONTEXT() REPRESENTATION_CONTEXT('2D SPACE',''
  ) );
#859 = ORIENTED_EDGE('',*,*,#860,.F.);
#860 = EDGE_CURVE('',#24,#787,#861,.T.);
#861 = SURFACE_CURVE('',#862,(#883,#907),.PCURVE_S1.);
#862 = B_SPLINE_CURVE_WITH_KNOTS('',7,(#863,#864,#865,#866,#867,#868,
    #869,#870,#871,#872,#873,#874,#875,#876,#877,#878,#879,#880,#881,
    #882),.UNSPECIFIED.,.F.,.F.,(8,6,6,8),(0.,0.496487965784,
    0.871105727236,1.),.UNSPECIFIED.);
#863 = CARTESIAN_POINT('',(62.,-12.04030399477,-7.855));
#864 = CARTESIAN_POINT('',(61.948357662716,-12.01868897873,-7.855));
#865 = CARTESIAN_POINT('',(61.890015021991,-12.00371701855,
    -7.856367336859));
#866 = CARTESIAN_POINT('',(61.826629744354,-11.9957055384,
    -7.859742866667));
#867 = CARTESIAN_POINT('',(61.759862143018,-11.99459856455,
    -7.86562529429));
#868 = CARTESIAN_POINT('',(61.691462416979,-12.00006140353,
    -7.874239965801));
#869 = CARTESIAN_POINT('',(61.623397735448,-12.01155755989,
    -7.885398086654));
#870 = CARTESIAN_POINT('',(61.508688721698,-12.04112206733,
    -7.908116300897));
#871 = CARTESIAN_POINT('',(61.460861545969,-12.05689169743,
    -7.918910617312));
#872 = CARTESIAN_POINT('',(61.414943168189,-12.07558654233,
    -7.930528169341));
#873 = CARTESIAN_POINT('',(61.371967640262,-12.09716375048,
    -7.942583946381));
#874 = CARTESIAN_POINT('',(61.333596408723,-12.12139175014,
    -7.954344957836));
#875 = CARTESIAN_POINT('',(61.301879484321,-12.14802291049,
    -7.964630851306));
#876 = CARTESIAN_POINT('',(61.271421937756,-12.18680917687,
    -7.974804746444));
#877 = CARTESIAN_POINT('',(61.264702288564,-12.196995306,-7.977086036422
    ));
#878 = CARTESIAN_POINT('',(61.259191803945,-12.20738345241,
    -7.978981545447));
#879 = CARTESIAN_POINT('',(61.254988566374,-12.21792334812,
    -7.980441013618));
#880 = CARTESIAN_POINT('',(61.252158895035,-12.22856847414,
    -7.981428325633));
#881 = CARTESIAN_POINT('',(61.250739472714,-12.23927487946,
    -7.981923264348));
#882 = CARTESIAN_POINT('',(61.250739472714,-12.25,-7.981923264348));
#883 = PCURVE('',#49,#884);
#884 = DEFINITIONAL_REPRESENTATION('',(#885),#906);
#885 = B_SPLINE_CURVE_WITH_KNOTS('',7,(#886,#887,#888,#889,#890,#891,
    #892,#893,#894,#895,#896,#897,#898,#899,#900,#901,#902,#903,#904,
    #905),.UNSPECIFIED.,.F.,.F.,(8,6,6,8),(0.,0.496487965784,
    0.871105727236,1.),.UNSPECIFIED.);
#886 = CARTESIAN_POINT('',(6.28318530718,2.459696005223));
#887 = CARTESIAN_POINT('',(6.260485378703,2.481311021266));
#888 = CARTESIAN_POINT('',(6.234840201795,2.496282981442));
#889 = CARTESIAN_POINT('',(6.206959623188,2.504294461599));
#890 = CARTESIAN_POINT('',(6.177531424724,2.505401435449));
#891 = CARTESIAN_POINT('',(6.147262144711,2.499938596462));
#892 = CARTESIAN_POINT('',(6.116960678658,2.488442440106));
#893 = CARTESIAN_POINT('',(6.065559774869,2.458877932664));
#894 = CARTESIAN_POINT('',(6.04401562126,2.443108302563));
#895 = CARTESIAN_POINT('',(6.02320642251,2.424413457665));
#896 = CARTESIAN_POINT('',(6.003597997815,2.402836249518));
#897 = CARTESIAN_POINT('',(5.985960649202,2.378608249856));
#898 = CARTESIAN_POINT('',(5.971304897799,2.351977089508));
#899 = CARTESIAN_POINT('',(5.957189803179,2.313190823128));
#900 = CARTESIAN_POINT('',(5.954070571795,2.303004693993));
#901 = CARTESIAN_POINT('',(5.951509109476,2.292616547582));
#902 = CARTESIAN_POINT('',(5.949553329637,2.282076651879));
#903 = CARTESIAN_POINT('',(5.948235976625,2.271431525859));
#904 = CARTESIAN_POINT('',(5.947575214235,2.260725120536));
#905 = CARTESIAN_POINT('',(5.947575214235,2.25));
#906 = ( GEOMETRIC_REPRESENTATION_CONTEXT(2) 
PARAMETRIC_REPRESENTATION_CONTEXT() REPRESENTATION_CONTEXT('2D SPACE',''
  ) );
#907 = PCURVE('',#78,#908);
#908 = DEFINITIONAL_REPRESENTATION('',(#909),#930);
#909 = B_SPLINE_CURVE_WITH_KNOTS('',7,(#910,#911,#912,#913,#914,#915,
    #916,#917,#918,#919,#920,#921,#922,#923,#924,#925,#926,#927,#928,
    #929),.UNSPECIFIED.,.F.,.F.,(8,6,6,8),(0.,0.496487965784,
    0.871105727236,1.),.UNSPECIFIED.);
#910 = CARTESIAN_POINT('',(4.136638669161,1.566938202258));
#911 = CARTESIAN_POINT('',(4.295437079438,1.527465661492));
#912 = CARTESIAN_POINT('',(4.450757865158,1.481990110338));
#913 = CARTESIAN_POINT('',(4.603215784022,1.431365348094));
#914 = CARTESIAN_POINT('',(4.753321884706,1.376538857283));
#915 = CARTESIAN_POINT('',(4.901504853163,1.318703088078));
#916 = CARTESIAN_POINT('',(5.048162575899,1.259483371841));
#917 = CARTESIAN_POINT('',(5.303590202651,1.157157272225));
#918 = CARTESIAN_POINT('',(5.412881886851,1.113640567938));
#919 = CARTESIAN_POINT('',(5.523162778151,1.071052014112));
#920 = CARTESIAN_POINT('',(5.635093394458,1.030430240638));
#921 = CARTESIAN_POINT('',(5.749063412123,0.993517803375));
#922 = CARTESIAN_POINT('',(5.86565946711,0.962642717605));
#923 = CARTESIAN_POINT('',(6.027898946783,0.932802447886));
#924 = CARTESIAN_POINT('',(6.06989064115,0.926195326394));
#925 = CARTESIAN_POINT('',(6.112205752134,0.920761177939));
#926 = CARTESIAN_POINT('',(6.154749999479,0.916607379316));
#927 = CARTESIAN_POINT('',(6.197458816715,0.913807908669));
#928 = CARTESIAN_POINT('',(6.240284825036,0.912403840464));
#929 = CARTESIAN_POINT('',(6.28318530718,0.912403840464));
#930 = ( GEOMETRIC_REPRESENTATION_CONTEXT(2) 
PARAMETRIC_REPRESENTATION_CONTEXT() REPRESENTATION_CONTEXT('2D SPACE',''
  ) );
#931 = ADVANCED_FACE('',(#932),#78,.T.);
#932 = FACE_BOUND('',#933,.T.);
#933 = EDGE_LOOP('',(#934,#957,#984,#985,#986,#987,#988));
#934 = ORIENTED_EDGE('',*,*,#935,.T.);
#935 = EDGE_CURVE('',#787,#936,#938,.T.);
#936 = VERTEX_POINT('',#937);
#937 = CARTESIAN_POINT('',(66.04957237788,-12.25,-3.933584438222));
#938 = SEAM_CURVE('',#939,(#943,#950),.PCURVE_S1.);
#939 = LINE('',#940,#941);
#940 = CARTESIAN_POINT('',(60.553348539571,-12.25,-8.570248560815));
#941 = VECTOR('',#942,1.);
#942 = DIRECTION('',(0.764344583193,-2.465190328816E-32,0.644808000993)
  );
#943 = PCURVE('',#78,#944);
#944 = DEFINITIONAL_REPRESENTATION('',(#945),#949);
#945 = LINE('',#946,#947);
#946 = CARTESIAN_POINT('',(6.28318530718,-0.));
#947 = VECTOR('',#948,1.);
#948 = DIRECTION('',(0.,1.));
#949 = ( GEOMETRIC_REPRESENTATION_CONTEXT(2) 
PARAMETRIC_REPRESENTATION_CONTEXT() REPRESENTATION_CONTEXT('2D SPACE',''
  ) );
#950 = PCURVE('',#78,#951);
#951 = DEFINITIONAL_REPRESENTATION('',(#952),#956);
#952 = LINE('',#953,#954);
#953 = CARTESIAN_POINT('',(0.,-0.));
#954 = VECTOR('',#955,1.);
#955 = DIRECTION('',(0.,1.));
#956 = ( GEOMETRIC_REPRESENTATION_CONTEXT(2) 
PARAMETRIC_REPRESENTATION_CONTEXT() REPRESENTATION_CONTEXT('2D SPACE',''
  ) );
#957 = ORIENTED_EDGE('',*,*,#958,.F.);
#958 = EDGE_CURVE('',#936,#936,#959,.T.);
#959 = SURFACE_CURVE('',#960,(#965,#972),.PCURVE_S1.);
#960 = CIRCLE('',#961,0.25);
#961 = AXIS2_PLACEMENT_3D('',#962,#963,#964);
#962 = CARTESIAN_POINT('',(66.210774378128,-12.25,-4.12467058402));
#963 = DIRECTION('',(0.764344583193,0.,0.644808000993));
#964 = DIRECTION('',(-0.644808000993,0.,0.764344583193));
#965 = PCURVE('',#78,#966);
#966 = DEFINITIONAL_REPRESENTATION('',(#967),#971);
#967 = LINE('',#968,#969);
#968 = CARTESIAN_POINT('',(0.,7.190767042988));
#969 = VECTOR('',#970,1.);
#970 = DIRECTION('',(1.,0.));
#971 = ( GEOMETRIC_REPRESENTATION_CONTEXT(2) 
PARAMETRIC_REPRESENTATION_CONTEXT() REPRESENTATION_CONTEXT('2D SPACE',''
  ) );
#972 = PCURVE('',#973,#978);
#973 = PLANE('',#974);
#974 = AXIS2_PLACEMENT_3D('',#975,#976,#977);
#975 = CARTESIAN_POINT('',(66.210774378128,-12.25,-4.12467058402));
#976 = DIRECTION('',(0.764344583193,0.,0.644808000993));
#977 = DIRECTION('',(-0.644808000993,0.,0.764344583193));
#978 = DEFINITIONAL_REPRESENTATION('',(#979),#983);
#979 = CIRCLE('',#980,0.25);
#980 = AXIS2_PLACEMENT_2D('',#981,#982);
#981 = CARTESIAN_POINT('',(0.,0.));
#982 = DIRECTION('',(1.,0.));
#983 = ( GEOMETRIC_REPRESENTATION_CONTEXT(2) 
PARAMETRIC_REPRESENTATION_CONTEXT() REPRESENTATION_CONTEXT('2D SPACE',''
  ) );
#984 = ORIENTED_EDGE('',*,*,#935,.F.);
#985 = ORIENTED_EDGE('',*,*,#786,.T.);
#986 = ORIENTED_EDGE('',*,*,#180,.T.);
#987 = ORIENTED_EDGE('',*,*,#21,.T.);
#988 = ORIENTED_EDGE('',*,*,#860,.T.);
#989 = ADVANCED_FACE('',(#990,#994,#1154),#145,.T.);
#990 = FACE_BOUND('',#991,.T.);
#991 = EDGE_LOOP('',(#992,#993));
#992 = ORIENTED_EDGE('',*,*,#130,.T.);
#993 = ORIENTED_EDGE('',*,*,#157,.T.);
#994 = FACE_BOUND('',#995,.T.);
#995 = EDGE_LOOP('',(#996,#1056,#1109,#1135));
#996 = ORIENTED_EDGE('',*,*,#997,.F.);
#997 = EDGE_CURVE('',#998,#1000,#1002,.T.);
#998 = VERTEX_POINT('',#999);
#999 = CARTESIAN_POINT('',(60.978210419787,-12.,-8.538908848064));
#1000 = VERTEX_POINT('',#1001);
#1001 = CARTESIAN_POINT('',(61.035933972417,-12.,-8.696853906514));
#1002 = SURFACE_CURVE('',#1003,(#1008,#1015),.PCURVE_S1.);
#1003 = CIRCLE('',#1004,0.244948974278);
#1004 = AXIS2_PLACEMENT_3D('',#1005,#1006,#1007);
#1005 = CARTESIAN_POINT('',(60.790984998139,-12.,-8.696853906514));
#1006 = DIRECTION('',(0.,1.,0.));
#1007 = DIRECTION('',(0.,-0.,1.));
#1008 = PCURVE('',#145,#1009);
#1009 = DEFINITIONAL_REPRESENTATION('',(#1010),#1014);
#1010 = CIRCLE('',#1011,0.244948974278);
#1011 = AXIS2_PLACEMENT_2D('',#1012,#1013);
#1012 = CARTESIAN_POINT('',(1.433146093486,-1.209015001861));
#1013 = DIRECTION('',(1.,0.));
#1014 = ( GEOMETRIC_REPRESENTATION_CONTEXT(2) 
PARAMETRIC_REPRESENTATION_CONTEXT() REPRESENTATION_CONTEXT('2D SPACE',''
  ) );
#1015 = PCURVE('',#1016,#1021);
#1016 = SPHERICAL_SURFACE('',#1017,0.35);
#1017 = AXIS2_PLACEMENT_3D('',#1018,#1019,#1020);
#1018 = CARTESIAN_POINT('',(60.790984998139,-12.25,-8.696853906514));
#1019 = DIRECTION('',(0.,0.,1.));
#1020 = DIRECTION('',(1.,0.,-0.));
#1021 = DEFINITIONAL_REPRESENTATION('',(#1022),#1055);
#1022 = B_SPLINE_CURVE_WITH_KNOTS('',7,(#1023,#1024,#1025,#1026,#1027,
    #1028,#1029,#1030,#1031,#1032,#1033,#1034,#1035,#1036,#1037,#1038,
    #1039,#1040,#1041,#1042,#1043,#1044,#1045,#1046,#1047,#1048,#1049,
    #1050,#1051,#1052,#1053,#1054),.UNSPECIFIED.,.F.,.F.,(8,6,6,6,6,8),(
    4.712388980385,5.497787143782,6.08683576633,6.528622233241,
    7.191301933608,7.853981633974),.UNSPECIFIED.);
#1023 = CARTESIAN_POINT('',(2.345989700105,0.));
#1024 = CARTESIAN_POINT('',(2.345989700105,7.85234589895E-02));
#1025 = CARTESIAN_POINT('',(2.338646814151,0.157046588392));
#1026 = CARTESIAN_POINT('',(2.323968701855,0.234748180774));
#1027 = CARTESIAN_POINT('',(2.301487420541,0.310795290951));
#1028 = CARTESIAN_POINT('',(2.270397804944,0.384240919189));
#1029 = CARTESIAN_POINT('',(2.229210593247,0.453789965004));
#1030 = CARTESIAN_POINT('',(2.137295084924,0.565610006999));
#1031 = CARTESIAN_POINT('',(2.09152828434,0.610354389684));
#1032 = CARTESIAN_POINT('',(2.038856400915,0.651178014043));
#1033 = CARTESIAN_POINT('',(1.978899433009,0.687214683699));
#1034 = CARTESIAN_POINT('',(1.911459582705,0.71741583355));
#1035 = CARTESIAN_POINT('',(1.837681604305,0.740737226622));
#1036 = CARTESIAN_POINT('',(1.701155545067,0.768385621164));
#1037 = CARTESIAN_POINT('',(1.640264121163,0.776003335686));
#1038 = CARTESIAN_POINT('',(1.577853971557,0.779116469363));
#1039 = CARTESIAN_POINT('',(1.515149836798,0.777568880185));
#1040 = CARTESIAN_POINT('',(1.453442988094,0.771403772458));
#1041 = CARTESIAN_POINT('',(1.393842731977,0.760853520879));
#1042 = CARTESIAN_POINT('',(1.251926150978,0.724311753184));
#1043 = CARTESIAN_POINT('',(1.173155891014,0.69323869489));
#1044 = CARTESIAN_POINT('',(1.103314070431,0.654092958563));
#1045 = CARTESIAN_POINT('',(1.04319281359,0.608470861018));
#1046 = CARTESIAN_POINT('',(0.991941766368,0.55774396978));
#1047 = CARTESIAN_POINT('',(0.948842743716,0.502997256242));
#1048 = CARTESIAN_POINT('',(0.877359302853,0.387256548263));
#1049 = CARTESIAN_POINT('',(0.848980249606,0.32626188454));
#1050 = CARTESIAN_POINT('',(0.827184184803,0.263037134689));
#1051 = CARTESIAN_POINT('',(0.81128718859,0.198267611542));
#1052 = CARTESIAN_POINT('',(0.800828285642,0.132508405203));
#1053 = CARTESIAN_POINT('',(0.795602953485,6.625416852239E-02));
#1054 = CARTESIAN_POINT('',(0.795602953485,0.));
#1055 = ( GEOMETRIC_REPRESENTATION_CONTEXT(2) 
PARAMETRIC_REPRESENTATION_CONTEXT() REPRESENTATION_CONTEXT('2D SPACE',''
  ) );
#1056 = ORIENTED_EDGE('',*,*,#1057,.F.);
#1057 = EDGE_CURVE('',#1058,#998,#1060,.T.);
#1058 = VERTEX_POINT('',#1059);
#1059 = CARTESIAN_POINT('',(60.546036023861,-12.,-8.696853906514));
#1060 = SURFACE_CURVE('',#1061,(#1066,#1073),.PCURVE_S1.);
#1061 = CIRCLE('',#1062,0.244948974278);
#1062 = AXIS2_PLACEMENT_3D('',#1063,#1064,#1065);
#1063 = CARTESIAN_POINT('',(60.790984998139,-12.,-8.696853906514));
#1064 = DIRECTION('',(0.,1.,0.));
#1065 = DIRECTION('',(0.,-0.,1.));
#1066 = PCURVE('',#145,#1067);
#1067 = DEFINITIONAL_REPRESENTATION('',(#1068),#1072);
#1068 = CIRCLE('',#1069,0.244948974278);
#1069 = AXIS2_PLACEMENT_2D('',#1070,#1071);
#1070 = CARTESIAN_POINT('',(1.433146093486,-1.209015001861));
#1071 = DIRECTION('',(1.,0.));
#1072 = ( GEOMETRIC_REPRESENTATION_CONTEXT(2) 
PARAMETRIC_REPRESENTATION_CONTEXT() REPRESENTATION_CONTEXT('2D SPACE',''
  ) );
#1073 = PCURVE('',#1016,#1074);
#1074 = DEFINITIONAL_REPRESENTATION('',(#1075),#1108);
#1075 = B_SPLINE_CURVE_WITH_KNOTS('',7,(#1076,#1077,#1078,#1079,#1080,
    #1081,#1082,#1083,#1084,#1085,#1086,#1087,#1088,#1089,#1090,#1091,
    #1092,#1093,#1094,#1095,#1096,#1097,#1098,#1099,#1100,#1101,#1102,
    #1103,#1104,#1105,#1106,#1107),.UNSPECIFIED.,.F.,.F.,(8,6,6,6,6,8),(
    4.712388980385,5.497787143782,6.08683576633,6.528622233241,
    7.191301933608,7.853981633974),.UNSPECIFIED.);
#1076 = CARTESIAN_POINT('',(2.345989700105,0.));
#1077 = CARTESIAN_POINT('',(2.345989700105,7.85234589895E-02));
#1078 = CARTESIAN_POINT('',(2.338646814151,0.157046588392));
#1079 = CARTESIAN_POINT('',(2.323968701855,0.234748180774));
#1080 = CARTESIAN_POINT('',(2.301487420541,0.310795290951));
#1081 = CARTESIAN_POINT('',(2.270397804944,0.384240919189));
#1082 = CARTESIAN_POINT('',(2.229210593247,0.453789965004));
#1083 = CARTESIAN_POINT('',(2.137295084924,0.565610006999));
#1084 = CARTESIAN_POINT('',(2.09152828434,0.610354389684));
#1085 = CARTESIAN_POINT('',(2.038856400915,0.651178014043));
#1086 = CARTESIAN_POINT('',(1.978899433009,0.687214683699));
#1087 = CARTESIAN_POINT('',(1.911459582705,0.71741583355));
#1088 = CARTESIAN_POINT('',(1.837681604305,0.740737226622));
#1089 = CARTESIAN_POINT('',(1.701155545067,0.768385621164));
#1090 = CARTESIAN_POINT('',(1.640264121163,0.776003335686));
#1091 = CARTESIAN_POINT('',(1.577853971557,0.779116469363));
#1092 = CARTESIAN_POINT('',(1.515149836798,0.777568880185));
#1093 = CARTESIAN_POINT('',(1.453442988094,0.771403772458));
#1094 = CARTESIAN_POINT('',(1.393842731977,0.760853520879));
#1095 = CARTESIAN_POINT('',(1.251926150978,0.724311753184));
#1096 = CARTESIAN_POINT('',(1.173155891014,0.69323869489));
#1097 = CARTESIAN_POINT('',(1.103314070431,0.654092958563));
#1098 = CARTESIAN_POINT('',(1.04319281359,0.608470861018));
#1099 = CARTESIAN_POINT('',(0.991941766368,0.55774396978));
#1100 = CARTESIAN_POINT('',(0.948842743716,0.502997256242));
#1101 = CARTESIAN_POINT('',(0.877359302853,0.387256548263));
#1102 = CARTESIAN_POINT('',(0.848980249606,0.32626188454));
#1103 = CARTESIAN_POINT('',(0.827184184803,0.263037134689));
#1104 = CARTESIAN_POINT('',(0.81128718859,0.198267611542));
#1105 = CARTESIAN_POINT('',(0.800828285642,0.132508405203));
#1106 = CARTESIAN_POINT('',(0.795602953485,6.625416852239E-02));
#1107 = CARTESIAN_POINT('',(0.795602953485,0.));
#1108 = ( GEOMETRIC_REPRESENTATION_CONTEXT(2) 
PARAMETRIC_REPRESENTATION_CONTEXT() REPRESENTATION_CONTEXT('2D SPACE',''
  ) );
#1109 = ORIENTED_EDGE('',*,*,#1110,.T.);
#1110 = EDGE_CURVE('',#1058,#1111,#1113,.T.);
#1111 = VERTEX_POINT('',#1112);
#1112 = CARTESIAN_POINT('',(60.790984998139,-12.,-8.696853906514));
#1113 = SURFACE_CURVE('',#1114,(#1118,#1124),.PCURVE_S1.);
#1114 = LINE('',#1115,#1116);
#1115 = CARTESIAN_POINT('',(61.395492499069,-12.,-8.696853906514));
#1116 = VECTOR('',#1117,1.);
#1117 = DIRECTION('',(1.,0.,0.));
#1118 = PCURVE('',#145,#1119);
#1119 = DEFINITIONAL_REPRESENTATION('',(#1120),#1123);
#1120 = B_SPLINE_CURVE_WITH_KNOTS('',1,(#1121,#1122),.UNSPECIFIED.,.F.,
  .F.,(2,2),(-0.954507500931,-0.254507500931),.PIECEWISE_BEZIER_KNOTS.);
#1121 = CARTESIAN_POINT('',(1.433146093486,-1.559015001861));
#1122 = CARTESIAN_POINT('',(1.433146093486,-0.859015001861));
#1123 = ( GEOMETRIC_REPRESENTATION_CONTEXT(2) 
PARAMETRIC_REPRESENTATION_CONTEXT() REPRESENTATION_CONTEXT('2D SPACE',''
  ) );
#1124 = PCURVE('',#1125,#1130);
#1125 = PLANE('',#1126);
#1126 = AXIS2_PLACEMENT_3D('',#1127,#1128,#1129);
#1127 = CARTESIAN_POINT('',(60.790984998139,-12.25,-8.696853906514));
#1128 = DIRECTION('',(0.,0.,1.));
#1129 = DIRECTION('',(1.,0.,-0.));
#1130 = DEFINITIONAL_REPRESENTATION('',(#1131),#1134);
#1131 = B_SPLINE_CURVE_WITH_KNOTS('',1,(#1132,#1133),.UNSPECIFIED.,.F.,
  .F.,(2,2),(-0.954507500931,-0.254507500931),.PIECEWISE_BEZIER_KNOTS.);
#1132 = CARTESIAN_POINT('',(-0.35,0.25));
#1133 = CARTESIAN_POINT('',(0.35,0.25));
#1134 = ( GEOMETRIC_REPRESENTATION_CONTEXT(2) 
PARAMETRIC_REPRESENTATION_CONTEXT() REPRESENTATION_CONTEXT('2D SPACE',''
  ) );
#1135 = ORIENTED_EDGE('',*,*,#1136,.T.);
#1136 = EDGE_CURVE('',#1111,#1000,#1137,.T.);
#1137 = SURFACE_CURVE('',#1138,(#1142,#1148),.PCURVE_S1.);
#1138 = LINE('',#1139,#1140);
#1139 = CARTESIAN_POINT('',(61.395492499069,-12.,-8.696853906514));
#1140 = VECTOR('',#1141,1.);
#1141 = DIRECTION('',(1.,0.,0.));
#1142 = PCURVE('',#145,#1143);
#1143 = DEFINITIONAL_REPRESENTATION('',(#1144),#1147);
#1144 = B_SPLINE_CURVE_WITH_KNOTS('',1,(#1145,#1146),.UNSPECIFIED.,.F.,
  .F.,(2,2),(-0.954507500931,-0.254507500931),.PIECEWISE_BEZIER_KNOTS.);
#1145 = CARTESIAN_POINT('',(1.433146093486,-1.559015001861));
#1146 = CARTESIAN_POINT('',(1.433146093486,-0.859015001861));
#1147 = ( GEOMETRIC_REPRESENTATION_CONTEXT(2) 
PARAMETRIC_REPRESENTATION_CONTEXT() REPRESENTATION_CONTEXT('2D SPACE',''
  ) );
#1148 = PCURVE('',#1125,#1149);
#1149 = DEFINITIONAL_REPRESENTATION('',(#1150),#1153);
#1150 = B_SPLINE_CURVE_WITH_KNOTS('',1,(#1151,#1152),.UNSPECIFIED.,.F.,
  .F.,(2,2),(-0.954507500931,-0.254507500931),.PIECEWISE_BEZIER_KNOTS.);
#1151 = CARTESIAN_POINT('',(-0.35,0.25));
#1152 = CARTESIAN_POINT('',(0.35,0.25));
#1153 = ( GEOMETRIC_REPRESENTATION_CONTEXT(2) 
PARAMETRIC_REPRESENTATION_CONTEXT() REPRESENTATION_CONTEXT('2D SPACE',''
  ) );
#1154 = FACE_BOUND('',#1155,.T.);
#1155 = EDGE_LOOP('',(#1156));
#1156 = ORIENTED_EDGE('',*,*,#1157,.F.);
#1157 = EDGE_CURVE('',#1158,#1158,#1160,.T.);
#1158 = VERTEX_POINT('',#1159);
#1159 = CARTESIAN_POINT('',(62.,-12.,-8.655));
#1160 = SURFACE_CURVE('',#1161,(#1166,#1173),.PCURVE_S1.);
#1161 = CIRCLE('',#1162,1.475);
#1162 = AXIS2_PLACEMENT_3D('',#1163,#1164,#1165);
#1163 = CARTESIAN_POINT('',(62.,-12.,-10.13));
#1164 = DIRECTION('',(0.,1.,0.));
#1165 = DIRECTION('',(0.,-0.,1.));
#1166 = PCURVE('',#145,#1167);
#1167 = DEFINITIONAL_REPRESENTATION('',(#1168),#1172);
#1168 = CIRCLE('',#1169,1.475);
#1169 = AXIS2_PLACEMENT_2D('',#1170,#1171);
#1170 = CARTESIAN_POINT('',(0.,0.));
#1171 = DIRECTION('',(1.,0.));
#1172 = ( GEOMETRIC_REPRESENTATION_CONTEXT(2) 
PARAMETRIC_REPRESENTATION_CONTEXT() REPRESENTATION_CONTEXT('2D SPACE',''
  ) );
#1173 = PCURVE('',#1174,#1179);
#1174 = CYLINDRICAL_SURFACE('',#1175,1.475);
#1175 = AXIS2_PLACEMENT_3D('',#1176,#1177,#1178);
#1176 = CARTESIAN_POINT('',(62.,-14.7,-10.13));
#1177 = DIRECTION('',(0.,1.,0.));
#1178 = DIRECTION('',(0.,-0.,1.));
#1179 = DEFINITIONAL_REPRESENTATION('',(#1180),#1184);
#1180 = LINE('',#1181,#1182);
#1181 = CARTESIAN_POINT('',(0.,2.7));
#1182 = VECTOR('',#1183,1.);
#1183 = DIRECTION('',(1.,0.));
#1184 = ( GEOMETRIC_REPRESENTATION_CONTEXT(2) 
PARAMETRIC_REPRESENTATION_CONTEXT() REPRESENTATION_CONTEXT('2D SPACE',''
  ) );
#1185 = ADVANCED_FACE('',(#1186,#1190,#1350),#330,.F.);
#1186 = FACE_BOUND('',#1187,.F.);
#1187 = EDGE_LOOP('',(#1188,#1189));
#1188 = ORIENTED_EDGE('',*,*,#763,.T.);
#1189 = ORIENTED_EDGE('',*,*,#313,.T.);
#1190 = FACE_BOUND('',#1191,.F.);
#1191 = EDGE_LOOP('',(#1192,#1252,#1305,#1331));
#1192 = ORIENTED_EDGE('',*,*,#1193,.F.);
#1193 = EDGE_CURVE('',#1194,#1196,#1198,.T.);
#1194 = VERTEX_POINT('',#1195);
#1195 = CARTESIAN_POINT('',(63.003923153598,-14.5,-11.73242419529));
#1196 = VERTEX_POINT('',#1197);
#1197 = CARTESIAN_POINT('',(63.026198974278,-14.5,-11.83448626791));
#1198 = SURFACE_CURVE('',#1199,(#1204,#1211),.PCURVE_S1.);
#1199 = CIRCLE('',#1200,0.244948974278);
#1200 = AXIS2_PLACEMENT_3D('',#1201,#1202,#1203);
#1201 = CARTESIAN_POINT('',(62.78125,-14.5,-11.83448626791));
#1202 = DIRECTION('',(0.,1.,0.));
#1203 = DIRECTION('',(0.,-0.,1.));
#1204 = PCURVE('',#330,#1205);
#1205 = DEFINITIONAL_REPRESENTATION('',(#1206),#1210);
#1206 = CIRCLE('',#1207,0.244948974278);
#1207 = AXIS2_PLACEMENT_2D('',#1208,#1209);
#1208 = CARTESIAN_POINT('',(-1.704486267912,0.78125));
#1209 = DIRECTION('',(1.,0.));
#1210 = ( GEOMETRIC_REPRESENTATION_CONTEXT(2) 
PARAMETRIC_REPRESENTATION_CONTEXT() REPRESENTATION_CONTEXT('2D SPACE',''
  ) );
#1211 = PCURVE('',#1212,#1217);
#1212 = SPHERICAL_SURFACE('',#1213,0.35);
#1213 = AXIS2_PLACEMENT_3D('',#1214,#1215,#1216);
#1214 = CARTESIAN_POINT('',(62.78125,-14.25,-11.83448626791));
#1215 = DIRECTION('',(0.,0.,1.));
#1216 = DIRECTION('',(1.,0.,-0.));
#1217 = DEFINITIONAL_REPRESENTATION('',(#1218),#1251);
#1218 = B_SPLINE_CURVE_WITH_KNOTS('',7,(#1219,#1220,#1221,#1222,#1223,
    #1224,#1225,#1226,#1227,#1228,#1229,#1230,#1231,#1232,#1233,#1234,
    #1235,#1236,#1237,#1238,#1239,#1240,#1241,#1242,#1243,#1244,#1245,
    #1246,#1247,#1248,#1249,#1250),.UNSPECIFIED.,.F.,.F.,(8,6,6,6,6,8),(
    4.712388980385,5.497787143782,6.08683576633,6.528622233241,
    7.191301933608,7.853981633974),.UNSPECIFIED.);
#1219 = CARTESIAN_POINT('',(3.937195607074,0.));
#1220 = CARTESIAN_POINT('',(3.937195607074,7.85234589895E-02));
#1221 = CARTESIAN_POINT('',(3.944538493029,0.157046588392));
#1222 = CARTESIAN_POINT('',(3.959216605324,0.234748180774));
#1223 = CARTESIAN_POINT('',(3.981697886638,0.310795290951));
#1224 = CARTESIAN_POINT('',(4.012787502235,0.384240919189));
#1225 = CARTESIAN_POINT('',(4.053974713932,0.453789965004));
#1226 = CARTESIAN_POINT('',(4.145890222255,0.565610006999));
#1227 = CARTESIAN_POINT('',(4.191657022839,0.610354389684));
#1228 = CARTESIAN_POINT('',(4.244328906267,0.651178014043));
#1229 = CARTESIAN_POINT('',(4.30428587417,0.687214683699));
#1230 = CARTESIAN_POINT('',(4.371725724476,0.71741583355));
#1231 = CARTESIAN_POINT('',(4.445503702874,0.740737226622));
#1232 = CARTESIAN_POINT('',(4.582029762112,0.768385621164));
#1233 = CARTESIAN_POINT('',(4.642921186016,0.776003335686));
#1234 = CARTESIAN_POINT('',(4.705331335622,0.779116469363));
#1235 = CARTESIAN_POINT('',(4.768035470381,0.777568880185));
#1236 = CARTESIAN_POINT('',(4.829742319086,0.771403772458));
#1237 = CARTESIAN_POINT('',(4.889342575203,0.760853520879));
#1238 = CARTESIAN_POINT('',(5.031259156202,0.724311753184));
#1239 = CARTESIAN_POINT('',(5.110029416166,0.69323869489));
#1240 = CARTESIAN_POINT('',(5.179871236749,0.654092958563));
#1241 = CARTESIAN_POINT('',(5.239992493589,0.608470861018));
#1242 = CARTESIAN_POINT('',(5.291243540811,0.55774396978));
#1243 = CARTESIAN_POINT('',(5.334342563464,0.502997256242));
#1244 = CARTESIAN_POINT('',(5.405826004327,0.387256548263));
#1245 = CARTESIAN_POINT('',(5.434205057573,0.32626188454));
#1246 = CARTESIAN_POINT('',(5.456001122376,0.263037134689));
#1247 = CARTESIAN_POINT('',(5.471898118589,0.198267611542));
#1248 = CARTESIAN_POINT('',(5.482357021537,0.132508405203));
#1249 = CARTESIAN_POINT('',(5.487582353695,6.625416852239E-02));
#1250 = CARTESIAN_POINT('',(5.487582353695,0.));
#1251 = ( GEOMETRIC_REPRESENTATION_CONTEXT(2) 
PARAMETRIC_REPRESENTATION_CONTEXT() REPRESENTATION_CONTEXT('2D SPACE',''
  ) );
#1252 = ORIENTED_EDGE('',*,*,#1253,.F.);
#1253 = EDGE_CURVE('',#1254,#1194,#1256,.T.);
#1254 = VERTEX_POINT('',#1255);
#1255 = CARTESIAN_POINT('',(62.536301025722,-14.5,-11.83448626791));
#1256 = SURFACE_CURVE('',#1257,(#1262,#1269),.PCURVE_S1.);
#1257 = CIRCLE('',#1258,0.244948974278);
#1258 = AXIS2_PLACEMENT_3D('',#1259,#1260,#1261);
#1259 = CARTESIAN_POINT('',(62.78125,-14.5,-11.83448626791));
#1260 = DIRECTION('',(0.,1.,0.));
#1261 = DIRECTION('',(0.,-0.,1.));
#1262 = PCURVE('',#330,#1263);
#1263 = DEFINITIONAL_REPRESENTATION('',(#1264),#1268);
#1264 = CIRCLE('',#1265,0.244948974278);
#1265 = AXIS2_PLACEMENT_2D('',#1266,#1267);
#1266 = CARTESIAN_POINT('',(-1.704486267912,0.78125));
#1267 = DIRECTION('',(1.,0.));
#1268 = ( GEOMETRIC_REPRESENTATION_CONTEXT(2) 
PARAMETRIC_REPRESENTATION_CONTEXT() REPRESENTATION_CONTEXT('2D SPACE',''
  ) );
#1269 = PCURVE('',#1212,#1270);
#1270 = DEFINITIONAL_REPRESENTATION('',(#1271),#1304);
#1271 = B_SPLINE_CURVE_WITH_KNOTS('',7,(#1272,#1273,#1274,#1275,#1276,
    #1277,#1278,#1279,#1280,#1281,#1282,#1283,#1284,#1285,#1286,#1287,
    #1288,#1289,#1290,#1291,#1292,#1293,#1294,#1295,#1296,#1297,#1298,
    #1299,#1300,#1301,#1302,#1303),.UNSPECIFIED.,.F.,.F.,(8,6,6,6,6,8),(
    4.712388980385,5.497787143782,6.08683576633,6.528622233241,
    7.191301933608,7.853981633974),.UNSPECIFIED.);
#1272 = CARTESIAN_POINT('',(3.937195607074,0.));
#1273 = CARTESIAN_POINT('',(3.937195607074,7.85234589895E-02));
#1274 = CARTESIAN_POINT('',(3.944538493029,0.157046588392));
#1275 = CARTESIAN_POINT('',(3.959216605324,0.234748180774));
#1276 = CARTESIAN_POINT('',(3.981697886638,0.310795290951));
#1277 = CARTESIAN_POINT('',(4.012787502235,0.384240919189));
#1278 = CARTESIAN_POINT('',(4.053974713932,0.453789965004));
#1279 = CARTESIAN_POINT('',(4.145890222255,0.565610006999));
#1280 = CARTESIAN_POINT('',(4.191657022839,0.610354389684));
#1281 = CARTESIAN_POINT('',(4.244328906267,0.651178014043));
#1282 = CARTESIAN_POINT('',(4.30428587417,0.687214683699));
#1283 = CARTESIAN_POINT('',(4.371725724476,0.71741583355));
#1284 = CARTESIAN_POINT('',(4.445503702874,0.740737226622));
#1285 = CARTESIAN_POINT('',(4.582029762112,0.768385621164));
#1286 = CARTESIAN_POINT('',(4.642921186016,0.776003335686));
#1287 = CARTESIAN_POINT('',(4.705331335622,0.779116469363));
#1288 = CARTESIAN_POINT('',(4.768035470381,0.777568880185));
#1289 = CARTESIAN_POINT('',(4.829742319086,0.771403772458));
#1290 = CARTESIAN_POINT('',(4.889342575203,0.760853520879));
#1291 = CARTESIAN_POINT('',(5.031259156202,0.724311753184));
#1292 = CARTESIAN_POINT('',(5.110029416166,0.69323869489));
#1293 = CARTESIAN_POINT('',(5.179871236749,0.654092958563));
#1294 = CARTESIAN_POINT('',(5.239992493589,0.608470861018));
#1295 = CARTESIAN_POINT('',(5.291243540811,0.55774396978));
#1296 = CARTESIAN_POINT('',(5.334342563464,0.502997256242));
#1297 = CARTESIAN_POINT('',(5.405826004327,0.387256548263));
#1298 = CARTESIAN_POINT('',(5.434205057573,0.32626188454));
#1299 = CARTESIAN_POINT('',(5.456001122376,0.263037134689));
#1300 = CARTESIAN_POINT('',(5.471898118589,0.198267611542));
#1301 = CARTESIAN_POINT('',(5.482357021537,0.132508405203));
#1302 = CARTESIAN_POINT('',(5.487582353695,6.625416852239E-02));
#1303 = CARTESIAN_POINT('',(5.487582353695,0.));
#1304 = ( GEOMETRIC_REPRESENTATION_CONTEXT(2) 
PARAMETRIC_REPRESENTATION_CONTEXT() REPRESENTATION_CONTEXT('2D SPACE',''
  ) );
#1305 = ORIENTED_EDGE('',*,*,#1306,.T.);
#1306 = EDGE_CURVE('',#1254,#1307,#1309,.T.);
#1307 = VERTEX_POINT('',#1308);
#1308 = CARTESIAN_POINT('',(62.78125,-14.5,-11.83448626791));
#1309 = SURFACE_CURVE('',#1310,(#1314,#1320),.PCURVE_S1.);
#1310 = LINE('',#1311,#1312);
#1311 = CARTESIAN_POINT('',(62.390625,-14.5,-11.83448626791));
#1312 = VECTOR('',#1313,1.);
#1313 = DIRECTION('',(1.,0.,0.));
#1314 = PCURVE('',#330,#1315);
#1315 = DEFINITIONAL_REPRESENTATION('',(#1316),#1319);
#1316 = B_SPLINE_CURVE_WITH_KNOTS('',1,(#1317,#1318),.UNSPECIFIED.,.F.,
  .F.,(2,2),(4.0625E-02,0.740625),.PIECEWISE_BEZIER_KNOTS.);
#1317 = CARTESIAN_POINT('',(-1.704486267912,0.43125));
#1318 = CARTESIAN_POINT('',(-1.704486267912,1.13125));
#1319 = ( GEOMETRIC_REPRESENTATION_CONTEXT(2) 
PARAMETRIC_REPRESENTATION_CONTEXT() REPRESENTATION_CONTEXT('2D SPACE',''
  ) );
#1320 = PCURVE('',#1321,#1326);
#1321 = PLANE('',#1322);
#1322 = AXIS2_PLACEMENT_3D('',#1323,#1324,#1325);
#1323 = CARTESIAN_POINT('',(62.78125,-14.25,-11.83448626791));
#1324 = DIRECTION('',(0.,0.,1.));
#1325 = DIRECTION('',(1.,0.,-0.));
#1326 = DEFINITIONAL_REPRESENTATION('',(#1327),#1330);
#1327 = B_SPLINE_CURVE_WITH_KNOTS('',1,(#1328,#1329),.UNSPECIFIED.,.F.,
  .F.,(2,2),(4.0625E-02,0.740625),.PIECEWISE_BEZIER_KNOTS.);
#1328 = CARTESIAN_POINT('',(-0.35,-0.25));
#1329 = CARTESIAN_POINT('',(0.35,-0.25));
#1330 = ( GEOMETRIC_REPRESENTATION_CONTEXT(2) 
PARAMETRIC_REPRESENTATION_CONTEXT() REPRESENTATION_CONTEXT('2D SPACE',''
  ) );
#1331 = ORIENTED_EDGE('',*,*,#1332,.T.);
#1332 = EDGE_CURVE('',#1307,#1196,#1333,.T.);
#1333 = SURFACE_CURVE('',#1334,(#1338,#1344),.PCURVE_S1.);
#1334 = LINE('',#1335,#1336);
#1335 = CARTESIAN_POINT('',(62.390625,-14.5,-11.83448626791));
#1336 = VECTOR('',#1337,1.);
#1337 = DIRECTION('',(1.,0.,0.));
#1338 = PCURVE('',#330,#1339);
#1339 = DEFINITIONAL_REPRESENTATION('',(#1340),#1343);
#1340 = B_SPLINE_CURVE_WITH_KNOTS('',1,(#1341,#1342),.UNSPECIFIED.,.F.,
  .F.,(2,2),(4.0625E-02,0.740625),.PIECEWISE_BEZIER_KNOTS.);
#1341 = CARTESIAN_POINT('',(-1.704486267912,0.43125));
#1342 = CARTESIAN_POINT('',(-1.704486267912,1.13125));
#1343 = ( GEOMETRIC_REPRESENTATION_CONTEXT(2) 
PARAMETRIC_REPRESENTATION_CONTEXT() REPRESENTATION_CONTEXT('2D SPACE',''
  ) );
#1344 = PCURVE('',#1321,#1345);
#1345 = DEFINITIONAL_REPRESENTATION('',(#1346),#1349);
#1346 = B_SPLINE_CURVE_WITH_KNOTS('',1,(#1347,#1348),.UNSPECIFIED.,.F.,
  .F.,(2,2),(4.0625E-02,0.740625),.PIECEWISE_BEZIER_KNOTS.);
#1347 = CARTESIAN_POINT('',(-0.35,-0.25));
#1348 = CARTESIAN_POINT('',(0.35,-0.25));
#1349 = ( GEOMETRIC_REPRESENTATION_CONTEXT(2) 
PARAMETRIC_REPRESENTATION_CONTEXT() REPRESENTATION_CONTEXT('2D SPACE',''
  ) );
#1350 = FACE_BOUND('',#1351,.F.);
#1351 = EDGE_LOOP('',(#1352));
#1352 = ORIENTED_EDGE('',*,*,#1353,.F.);
#1353 = EDGE_CURVE('',#1354,#1354,#1356,.T.);
#1354 = VERTEX_POINT('',#1355);
#1355 = CARTESIAN_POINT('',(62.,-14.5,-8.655));
#1356 = SURFACE_CURVE('',#1357,(#1362,#1369),.PCURVE_S1.);
#1357 = CIRCLE('',#1358,1.475);
#1358 = AXIS2_PLACEMENT_3D('',#1359,#1360,#1361);
#1359 = CARTESIAN_POINT('',(62.,-14.5,-10.13));
#1360 = DIRECTION('',(0.,1.,0.));
#1361 = DIRECTION('',(0.,-0.,1.));
#1362 = PCURVE('',#330,#1363);
#1363 = DEFINITIONAL_REPRESENTATION('',(#1364),#1368);
#1364 = CIRCLE('',#1365,1.475);
#1365 = AXIS2_PLACEMENT_2D('',#1366,#1367);
#1366 = CARTESIAN_POINT('',(0.,0.));
#1367 = DIRECTION('',(1.,0.));
#1368 = ( GEOMETRIC_REPRESENTATION_CONTEXT(2) 
PARAMETRIC_REPRESENTATION_CONTEXT() REPRESENTATION_CONTEXT('2D SPACE',''
  ) );
#1369 = PCURVE('',#1174,#1370);
#1370 = DEFINITIONAL_REPRESENTATION('',(#1371),#1375);
#1371 = LINE('',#1372,#1373);
#1372 = CARTESIAN_POINT('',(0.,0.2));
#1373 = VECTOR('',#1374,1.);
#1374 = DIRECTION('',(1.,0.));
#1375 = ( GEOMETRIC_REPRESENTATION_CONTEXT(2) 
PARAMETRIC_REPRESENTATION_CONTEXT() REPRESENTATION_CONTEXT('2D SPACE',''
  ) );
#1376 = ADVANCED_FACE('',(#1377),#482,.T.);
#1377 = FACE_BOUND('',#1378,.T.);
#1378 = EDGE_LOOP('',(#1379,#1402,#1429,#1430,#1431));
#1379 = ORIENTED_EDGE('',*,*,#1380,.T.);
#1380 = EDGE_CURVE('',#343,#1381,#1383,.T.);
#1381 = VERTEX_POINT('',#1382);
#1382 = CARTESIAN_POINT('',(69.123011361992,-14.25,-8.652735164278));
#1383 = SEAM_CURVE('',#1384,(#1388,#1395),.PCURVE_S1.);
#1384 = LINE('',#1385,#1386);
#1385 = CARTESIAN_POINT('',(62.586177399045,-14.25,-11.64888809885));
#1386 = VECTOR('',#1387,1.);
#1387 = DIRECTION('',(0.909059342886,1.232595164408E-32,0.416666666667)
  );
#1388 = PCURVE('',#482,#1389);
#1389 = DEFINITIONAL_REPRESENTATION('',(#1390),#1394);
#1390 = LINE('',#1391,#1392);
#1391 = CARTESIAN_POINT('',(6.28318530718,-0.));
#1392 = VECTOR('',#1393,1.);
#1393 = DIRECTION('',(0.,1.));
#1394 = ( GEOMETRIC_REPRESENTATION_CONTEXT(2) 
PARAMETRIC_REPRESENTATION_CONTEXT() REPRESENTATION_CONTEXT('2D SPACE',''
  ) );
#1395 = PCURVE('',#482,#1396);
#1396 = DEFINITIONAL_REPRESENTATION('',(#1397),#1401);
#1397 = LINE('',#1398,#1399);
#1398 = CARTESIAN_POINT('',(0.,-0.));
#1399 = VECTOR('',#1400,1.);
#1400 = DIRECTION('',(0.,1.));
#1401 = ( GEOMETRIC_REPRESENTATION_CONTEXT(2) 
PARAMETRIC_REPRESENTATION_CONTEXT() REPRESENTATION_CONTEXT('2D SPACE',''
  ) );
#1402 = ORIENTED_EDGE('',*,*,#1403,.F.);
#1403 = EDGE_CURVE('',#1381,#1381,#1404,.T.);
#1404 = SURFACE_CURVE('',#1405,(#1410,#1417),.PCURVE_S1.);
#1405 = CIRCLE('',#1406,0.25);
#1406 = AXIS2_PLACEMENT_3D('',#1407,#1408,#1409);
#1407 = CARTESIAN_POINT('',(69.227178028659,-14.25,-8.88));
#1408 = DIRECTION('',(0.909059342886,0.,0.416666666667));
#1409 = DIRECTION('',(-0.416666666667,0.,0.909059342886));
#1410 = PCURVE('',#482,#1411);
#1411 = DEFINITIONAL_REPRESENTATION('',(#1412),#1416);
#1412 = LINE('',#1413,#1414);
#1413 = CARTESIAN_POINT('',(0.,7.190767042988));
#1414 = VECTOR('',#1415,1.);
#1415 = DIRECTION('',(1.,0.));
#1416 = ( GEOMETRIC_REPRESENTATION_CONTEXT(2) 
PARAMETRIC_REPRESENTATION_CONTEXT() REPRESENTATION_CONTEXT('2D SPACE',''
  ) );
#1417 = PCURVE('',#1418,#1423);
#1418 = PLANE('',#1419);
#1419 = AXIS2_PLACEMENT_3D('',#1420,#1421,#1422);
#1420 = CARTESIAN_POINT('',(69.227178028659,-14.25,-8.88));
#1421 = DIRECTION('',(0.909059342886,0.,0.416666666667));
#1422 = DIRECTION('',(-0.416666666667,0.,0.909059342886));
#1423 = DEFINITIONAL_REPRESENTATION('',(#1424),#1428);
#1424 = CIRCLE('',#1425,0.25);
#1425 = AXIS2_PLACEMENT_2D('',#1426,#1427);
#1426 = CARTESIAN_POINT('',(0.,0.));
#1427 = DIRECTION('',(1.,0.));
#1428 = ( GEOMETRIC_REPRESENTATION_CONTEXT(2) 
PARAMETRIC_REPRESENTATION_CONTEXT() REPRESENTATION_CONTEXT('2D SPACE',''
  ) );
#1429 = ORIENTED_EDGE('',*,*,#1380,.F.);
#1430 = ORIENTED_EDGE('',*,*,#342,.T.);
#1431 = ORIENTED_EDGE('',*,*,#556,.T.);
#1432 = ADVANCED_FACE('',(#1433),#973,.T.);
#1433 = FACE_BOUND('',#1434,.T.);
#1434 = EDGE_LOOP('',(#1435));
#1435 = ORIENTED_EDGE('',*,*,#958,.T.);
#1436 = ADVANCED_FACE('',(#1437),#1016,.T.);
#1437 = FACE_BOUND('',#1438,.T.);
#1438 = EDGE_LOOP('',(#1439,#1440,#1441));
#1439 = ORIENTED_EDGE('',*,*,#1057,.T.);
#1440 = ORIENTED_EDGE('',*,*,#997,.T.);
#1441 = ORIENTED_EDGE('',*,*,#1442,.T.);
#1442 = EDGE_CURVE('',#1000,#1058,#1443,.T.);
#1443 = SURFACE_CURVE('',#1444,(#1449,#1456),.PCURVE_S1.);
#1444 = CIRCLE('',#1445,0.35);
#1445 = AXIS2_PLACEMENT_3D('',#1446,#1447,#1448);
#1446 = CARTESIAN_POINT('',(60.790984998139,-12.25,-8.696853906514));
#1447 = DIRECTION('',(0.,0.,1.));
#1448 = DIRECTION('',(1.,0.,-0.));
#1449 = PCURVE('',#1016,#1450);
#1450 = DEFINITIONAL_REPRESENTATION('',(#1451),#1455);
#1451 = LINE('',#1452,#1453);
#1452 = CARTESIAN_POINT('',(0.,0.));
#1453 = VECTOR('',#1454,1.);
#1454 = DIRECTION('',(1.,0.));
#1455 = ( GEOMETRIC_REPRESENTATION_CONTEXT(2) 
PARAMETRIC_REPRESENTATION_CONTEXT() REPRESENTATION_CONTEXT('2D SPACE',''
  ) );
#1456 = PCURVE('',#1125,#1457);
#1457 = DEFINITIONAL_REPRESENTATION('',(#1458),#1462);
#1458 = CIRCLE('',#1459,0.35);
#1459 = AXIS2_PLACEMENT_2D('',#1460,#1461);
#1460 = CARTESIAN_POINT('',(0.,0.));
#1461 = DIRECTION('',(1.,0.));
#1462 = ( GEOMETRIC_REPRESENTATION_CONTEXT(2) 
PARAMETRIC_REPRESENTATION_CONTEXT() REPRESENTATION_CONTEXT('2D SPACE',''
  ) );
#1463 = ADVANCED_FACE('',(#1464),#1125,.F.);
#1464 = FACE_BOUND('',#1465,.F.);
#1465 = EDGE_LOOP('',(#1466,#1467,#1468));
#1466 = ORIENTED_EDGE('',*,*,#1110,.T.);
#1467 = ORIENTED_EDGE('',*,*,#1136,.T.);
#1468 = ORIENTED_EDGE('',*,*,#1442,.T.);
#1469 = ADVANCED_FACE('',(#1470),#1174,.F.);
#1470 = FACE_BOUND('',#1471,.F.);
#1471 = EDGE_LOOP('',(#1472,#1473,#1494,#1495));
#1472 = ORIENTED_EDGE('',*,*,#1157,.F.);
#1473 = ORIENTED_EDGE('',*,*,#1474,.F.);
#1474 = EDGE_CURVE('',#1354,#1158,#1475,.T.);
#1475 = SEAM_CURVE('',#1476,(#1480,#1487),.PCURVE_S1.);
#1476 = LINE('',#1477,#1478);
#1477 = CARTESIAN_POINT('',(62.,-14.7,-8.655));
#1478 = VECTOR('',#1479,1.);
#1479 = DIRECTION('',(0.,1.,0.));
#1480 = PCURVE('',#1174,#1481);
#1481 = DEFINITIONAL_REPRESENTATION('',(#1482),#1486);
#1482 = LINE('',#1483,#1484);
#1483 = CARTESIAN_POINT('',(6.28318530718,-0.));
#1484 = VECTOR('',#1485,1.);
#1485 = DIRECTION('',(0.,1.));
#1486 = ( GEOMETRIC_REPRESENTATION_CONTEXT(2) 
PARAMETRIC_REPRESENTATION_CONTEXT() REPRESENTATION_CONTEXT('2D SPACE',''
  ) );
#1487 = PCURVE('',#1174,#1488);
#1488 = DEFINITIONAL_REPRESENTATION('',(#1489),#1493);
#1489 = LINE('',#1490,#1491);
#1490 = CARTESIAN_POINT('',(0.,-0.));
#1491 = VECTOR('',#1492,1.);
#1492 = DIRECTION('',(0.,1.));
#1493 = ( GEOMETRIC_REPRESENTATION_CONTEXT(2) 
PARAMETRIC_REPRESENTATION_CONTEXT() REPRESENTATION_CONTEXT('2D SPACE',''
  ) );
#1494 = ORIENTED_EDGE('',*,*,#1353,.T.);
#1495 = ORIENTED_EDGE('',*,*,#1474,.T.);
#1496 = ADVANCED_FACE('',(#1497),#1212,.T.);
#1497 = FACE_BOUND('',#1498,.T.);
#1498 = EDGE_LOOP('',(#1499,#1500,#1522));
#1499 = ORIENTED_EDGE('',*,*,#1253,.F.);
#1500 = ORIENTED_EDGE('',*,*,#1501,.T.);
#1501 = EDGE_CURVE('',#1254,#1196,#1502,.T.);
#1502 = SURFACE_CURVE('',#1503,(#1508,#1515),.PCURVE_S1.);
#1503 = CIRCLE('',#1504,0.35);
#1504 = AXIS2_PLACEMENT_3D('',#1505,#1506,#1507);
#1505 = CARTESIAN_POINT('',(62.78125,-14.25,-11.83448626791));
#1506 = DIRECTION('',(0.,0.,1.));
#1507 = DIRECTION('',(1.,0.,-0.));
#1508 = PCURVE('',#1212,#1509);
#1509 = DEFINITIONAL_REPRESENTATION('',(#1510),#1514);
#1510 = LINE('',#1511,#1512);
#1511 = CARTESIAN_POINT('',(0.,0.));
#1512 = VECTOR('',#1513,1.);
#1513 = DIRECTION('',(1.,0.));
#1514 = ( GEOMETRIC_REPRESENTATION_CONTEXT(2) 
PARAMETRIC_REPRESENTATION_CONTEXT() REPRESENTATION_CONTEXT('2D SPACE',''
  ) );
#1515 = PCURVE('',#1321,#1516);
#1516 = DEFINITIONAL_REPRESENTATION('',(#1517),#1521);
#1517 = CIRCLE('',#1518,0.35);
#1518 = AXIS2_PLACEMENT_2D('',#1519,#1520);
#1519 = CARTESIAN_POINT('',(0.,0.));
#1520 = DIRECTION('',(1.,0.));
#1521 = ( GEOMETRIC_REPRESENTATION_CONTEXT(2) 
PARAMETRIC_REPRESENTATION_CONTEXT() REPRESENTATION_CONTEXT('2D SPACE',''
  ) );
#1522 = ORIENTED_EDGE('',*,*,#1193,.F.);
#1523 = ADVANCED_FACE('',(#1524),#1321,.F.);
#1524 = FACE_BOUND('',#1525,.F.);
#1525 = EDGE_LOOP('',(#1526,#1527,#1528));
#1526 = ORIENTED_EDGE('',*,*,#1306,.F.);
#1527 = ORIENTED_EDGE('',*,*,#1501,.T.);
#1528 = ORIENTED_EDGE('',*,*,#1332,.F.);
#1529 = ADVANCED_FACE('',(#1530),#1418,.T.);
#1530 = FACE_BOUND('',#1531,.T.);
#1531 = EDGE_LOOP('',(#1532));
#1532 = ORIENTED_EDGE('',*,*,#1403,.T.);
#1533 = ( GEOMETRIC_REPRESENTATION_CONTEXT(3) 
GLOBAL_UNCERTAINTY_ASSIGNED_CONTEXT((#1537)) 
GLOBAL_UNIT_ASSIGNED_CONTEXT((#1534,#1535,#1536)) REPRESENTATION_CONTEXT
('Context #1','3D Context with UNIT and UNCERTAINTY') );
#1534 = ( LENGTH_UNIT() NAMED_UNIT(*) SI_UNIT(.MILLI.,.METRE.) );
#1535 = ( NAMED_UNIT(*) PLANE_ANGLE_UNIT() SI_UNIT($,.RADIAN.) );
#1536 = ( NAMED_UNIT(*) SI_UNIT($,.STERADIAN.) SOLID_ANGLE_UNIT() );
#1537 = UNCERTAINTY_MEASURE_WITH_UNIT(LENGTH_MEASURE(1.E-07),#1534,
  'distance_accuracy_value','confusion accuracy');
#1538 = PRODUCT_RELATED_PRODUCT_CATEGORY('part',$,(#7));
ENDSEC;
END-ISO-10303-21;
