ISO-10303-21;
HEADER;
FILE_DESCRIPTION(('Open CASCADE Model'),'2;1');
FILE_NAME('Open CASCADE Shape Model','2026-05-22T17:24:06',('Author'),(
    'Open CASCADE'),'Open CASCADE STEP processor 7.8','Open CASCADE 7.8'
  ,'Unknown');
FILE_SCHEMA(('AUTOMOTIVE_DESIGN { 1 0 10303 214 1 1 1 1 }'));
ENDSEC;
DATA;
#1 = APPLICATION_PROTOCOL_DEFINITION('international standard',
  'automotive_design',2000,#2);
#2 = APPLICATION_CONTEXT(
  'core data for automotive mechanical design processes');
#3 = SHAPE_DEFINITION_REPRESENTATION(#4,#10);
#4 = PRODUCT_DEFINITION_SHAPE('','',#5);
#5 = PRODUCT_DEFINITION('design','',#6,#9);
#6 = PRODUCT_DEFINITION_FORMATION('','',#7);
#7 = PRODUCT('Open CASCADE STEP translator 7.8 9',
  'Open CASCADE STEP translator 7.8 9','',(#8));
#8 = PRODUCT_CONTEXT('',#2,'mechanical');
#9 = PRODUCT_DEFINITION_CONTEXT('part definition',#2,'design');
#10 = ADVANCED_BREP_SHAPE_REPRESENTATION('',(#11,#15),#767);
#11 = AXIS2_PLACEMENT_3D('',#12,#13,#14);
#12 = CARTESIAN_POINT('',(0.,0.,0.));
#13 = DIRECTION('',(0.,0.,1.));
#14 = DIRECTION('',(1.,0.,-0.));
#15 = MANIFOLD_SOLID_BREP('',#16);
#16 = CLOSED_SHELL('',(#17,#168,#244,#350,#446,#473,#682,#709,#758));
#17 = ADVANCED_FACE('',(#18,#137),#32,.F.);
#18 = FACE_BOUND('',#19,.F.);
#19 = EDGE_LOOP('',(#20,#55,#83,#111));
#20 = ORIENTED_EDGE('',*,*,#21,.T.);
#21 = EDGE_CURVE('',#22,#24,#26,.T.);
#22 = VERTEX_POINT('',#23);
#23 = CARTESIAN_POINT('',(63.381742283273,-14.5,-3.485190483539));
#24 = VERTEX_POINT('',#25);
#25 = CARTESIAN_POINT('',(63.381742283273,-3.5,-3.485190483539));
#26 = SURFACE_CURVE('',#27,(#31,#43),.PCURVE_S1.);
#27 = LINE('',#28,#29);
#28 = CARTESIAN_POINT('',(63.381742283273,-14.5,-3.485190483539));
#29 = VECTOR('',#30,1.);
#30 = DIRECTION('',(0.,1.,0.));
#31 = PCURVE('',#32,#37);
#32 = PLANE('',#33);
#33 = AXIS2_PLACEMENT_3D('',#34,#35,#36);
#34 = CARTESIAN_POINT('',(63.381742283273,-14.5,-3.485190483539));
#35 = DIRECTION('',(-0.841204352159,-0.,-0.540717336423));
#36 = DIRECTION('',(0.540717336423,0.,-0.841204352159));
#37 = DEFINITIONAL_REPRESENTATION('',(#38),#42);
#38 = LINE('',#39,#40);
#39 = CARTESIAN_POINT('',(0.,0.));
#40 = VECTOR('',#41,1.);
#41 = DIRECTION('',(0.,-1.));
#42 = ( GEOMETRIC_REPRESENTATION_CONTEXT(2) 
PARAMETRIC_REPRESENTATION_CONTEXT() REPRESENTATION_CONTEXT('2D SPACE',''
  ) );
#43 = PCURVE('',#44,#49);
#44 = PLANE('',#45);
#45 = AXIS2_PLACEMENT_3D('',#46,#47,#48);
#46 = CARTESIAN_POINT('',(62.103464721335,-14.5,-3.207239993983));
#47 = DIRECTION('',(-0.212476406485,-0.,-0.977166197065));
#48 = DIRECTION('',(0.977166197065,0.,-0.212476406485));
#49 = DEFINITIONAL_REPRESENTATION('',(#50),#54);
#50 = LINE('',#51,#52);
#51 = CARTESIAN_POINT('',(1.308147545195,0.));
#52 = VECTOR('',#53,1.);
#53 = DIRECTION('',(0.,-1.));
#54 = ( GEOMETRIC_REPRESENTATION_CONTEXT(2) 
PARAMETRIC_REPRESENTATION_CONTEXT() REPRESENTATION_CONTEXT('2D SPACE',''
  ) );
#55 = ORIENTED_EDGE('',*,*,#56,.T.);
#56 = EDGE_CURVE('',#24,#57,#59,.T.);
#57 = VERTEX_POINT('',#58);
#58 = CARTESIAN_POINT('',(65.044448092775,-3.5,-6.071893866428));
#59 = SURFACE_CURVE('',#60,(#64,#71),.PCURVE_S1.);
#60 = LINE('',#61,#62);
#61 = CARTESIAN_POINT('',(63.381742283273,-3.5,-3.485190483539));
#62 = VECTOR('',#63,1.);
#63 = DIRECTION('',(0.540717336423,0.,-0.841204352159));
#64 = PCURVE('',#32,#65);
#65 = DEFINITIONAL_REPRESENTATION('',(#66),#70);
#66 = LINE('',#67,#68);
#67 = CARTESIAN_POINT('',(0.,-11.));
#68 = VECTOR('',#69,1.);
#69 = DIRECTION('',(1.,0.));
#70 = ( GEOMETRIC_REPRESENTATION_CONTEXT(2) 
PARAMETRIC_REPRESENTATION_CONTEXT() REPRESENTATION_CONTEXT('2D SPACE',''
  ) );
#71 = PCURVE('',#72,#77);
#72 = PLANE('',#73);
#73 = AXIS2_PLACEMENT_3D('',#74,#75,#76);
#74 = CARTESIAN_POINT('',(62.298665864495,-3.5,-5.387857698964));
#75 = DIRECTION('',(0.,1.,0.));
#76 = DIRECTION('',(-0.540717336423,0.,0.841204352159));
#77 = DEFINITIONAL_REPRESENTATION('',(#78),#82);
#78 = LINE('',#79,#80);
#79 = CARTESIAN_POINT('',(1.014893746022,1.939893746022));
#80 = VECTOR('',#81,1.);
#81 = DIRECTION('',(-1.,0.));
#82 = ( GEOMETRIC_REPRESENTATION_CONTEXT(2) 
PARAMETRIC_REPRESENTATION_CONTEXT() REPRESENTATION_CONTEXT('2D SPACE',''
  ) );
#83 = ORIENTED_EDGE('',*,*,#84,.F.);
#84 = EDGE_CURVE('',#85,#57,#87,.T.);
#85 = VERTEX_POINT('',#86);
#86 = CARTESIAN_POINT('',(65.044448092775,-14.5,-6.071893866428));
#87 = SURFACE_CURVE('',#88,(#92,#99),.PCURVE_S1.);
#88 = LINE('',#89,#90);
#89 = CARTESIAN_POINT('',(65.044448092775,-14.5,-6.071893866428));
#90 = VECTOR('',#91,1.);
#91 = DIRECTION('',(0.,1.,0.));
#92 = PCURVE('',#32,#93);
#93 = DEFINITIONAL_REPRESENTATION('',(#94),#98);
#94 = LINE('',#95,#96);
#95 = CARTESIAN_POINT('',(3.075,0.));
#96 = VECTOR('',#97,1.);
#97 = DIRECTION('',(0.,-1.));
#98 = ( GEOMETRIC_REPRESENTATION_CONTEXT(2) 
PARAMETRIC_REPRESENTATION_CONTEXT() REPRESENTATION_CONTEXT('2D SPACE',''
  ) );
#99 = PCURVE('',#100,#105);
#100 = PLANE('',#101);
#101 = AXIS2_PLACEMENT_3D('',#102,#103,#104);
#102 = CARTESIAN_POINT('',(65.044448092775,-14.5,-6.071893866428));
#103 = DIRECTION('',(-0.540717336423,0.,0.841204352159));
#104 = DIRECTION('',(-0.841204352159,0.,-0.540717336423));
#105 = DEFINITIONAL_REPRESENTATION('',(#106),#110);
#106 = LINE('',#107,#108);
#107 = CARTESIAN_POINT('',(0.,0.));
#108 = VECTOR('',#109,1.);
#109 = DIRECTION('',(0.,-1.));
#110 = ( GEOMETRIC_REPRESENTATION_CONTEXT(2) 
PARAMETRIC_REPRESENTATION_CONTEXT() REPRESENTATION_CONTEXT('2D SPACE',''
  ) );
#111 = ORIENTED_EDGE('',*,*,#112,.F.);
#112 = EDGE_CURVE('',#22,#85,#113,.T.);
#113 = SURFACE_CURVE('',#114,(#118,#125),.PCURVE_S1.);
#114 = LINE('',#115,#116);
#115 = CARTESIAN_POINT('',(63.381742283273,-14.5,-3.485190483539));
#116 = VECTOR('',#117,1.);
#117 = DIRECTION('',(0.540717336423,0.,-0.841204352159));
#118 = PCURVE('',#32,#119);
#119 = DEFINITIONAL_REPRESENTATION('',(#120),#124);
#120 = LINE('',#121,#122);
#121 = CARTESIAN_POINT('',(0.,0.));
#122 = VECTOR('',#123,1.);
#123 = DIRECTION('',(1.,0.));
#124 = ( GEOMETRIC_REPRESENTATION_CONTEXT(2) 
PARAMETRIC_REPRESENTATION_CONTEXT() REPRESENTATION_CONTEXT('2D SPACE',''
  ) );
#125 = PCURVE('',#126,#131);
#126 = PLANE('',#127);
#127 = AXIS2_PLACEMENT_3D('',#128,#129,#130);
#128 = CARTESIAN_POINT('',(62.298665864495,-14.5,-5.387857698964));
#129 = DIRECTION('',(0.,1.,0.));
#130 = DIRECTION('',(-0.540717336423,0.,0.841204352159));
#131 = DEFINITIONAL_REPRESENTATION('',(#132),#136);
#132 = LINE('',#133,#134);
#133 = CARTESIAN_POINT('',(1.014893746022,1.939893746022));
#134 = VECTOR('',#135,1.);
#135 = DIRECTION('',(-1.,0.));
#136 = ( GEOMETRIC_REPRESENTATION_CONTEXT(2) 
PARAMETRIC_REPRESENTATION_CONTEXT() REPRESENTATION_CONTEXT('2D SPACE',''
  ) );
#137 = FACE_BOUND('',#138,.F.);
#138 = EDGE_LOOP('',(#139));
#139 = ORIENTED_EDGE('',*,*,#140,.F.);
#140 = EDGE_CURVE('',#141,#141,#143,.T.);
#141 = VERTEX_POINT('',#142);
#142 = CARTESIAN_POINT('',(63.963013419928,-11.5,-4.38948516211));
#143 = SURFACE_CURVE('',#144,(#149,#156),.PCURVE_S1.);
#144 = CIRCLE('',#145,1.);
#145 = AXIS2_PLACEMENT_3D('',#146,#147,#148);
#146 = CARTESIAN_POINT('',(63.963013419928,-12.5,-4.38948516211));
#147 = DIRECTION('',(-0.841204352159,0.,-0.540717336423));
#148 = DIRECTION('',(0.,1.,0.));
#149 = PCURVE('',#32,#150);
#150 = DEFINITIONAL_REPRESENTATION('',(#151),#155);
#151 = CIRCLE('',#152,1.);
#152 = AXIS2_PLACEMENT_2D('',#153,#154);
#153 = CARTESIAN_POINT('',(1.075,-2.));
#154 = DIRECTION('',(0.,-1.));
#155 = ( GEOMETRIC_REPRESENTATION_CONTEXT(2) 
PARAMETRIC_REPRESENTATION_CONTEXT() REPRESENTATION_CONTEXT('2D SPACE',''
  ) );
#156 = PCURVE('',#157,#162);
#157 = CYLINDRICAL_SURFACE('',#158,1.);
#158 = AXIS2_PLACEMENT_3D('',#159,#160,#161);
#159 = CARTESIAN_POINT('',(60.42995514086,-12.5,-6.660497975087));
#160 = DIRECTION('',(-0.841204352159,-0.,-0.540717336423));
#161 = DIRECTION('',(0.,1.,0.));
#162 = DEFINITIONAL_REPRESENTATION('',(#163),#167);
#163 = LINE('',#164,#165);
#164 = CARTESIAN_POINT('',(-6.28318530718,-4.2));
#165 = VECTOR('',#166,1.);
#166 = DIRECTION('',(1.,-0.));
#167 = ( GEOMETRIC_REPRESENTATION_CONTEXT(2) 
PARAMETRIC_REPRESENTATION_CONTEXT() REPRESENTATION_CONTEXT('2D SPACE',''
  ) );
#168 = ADVANCED_FACE('',(#169),#44,.F.);
#169 = FACE_BOUND('',#170,.F.);
#170 = EDGE_LOOP('',(#171,#201,#222,#223));
#171 = ORIENTED_EDGE('',*,*,#172,.T.);
#172 = EDGE_CURVE('',#173,#175,#177,.T.);
#173 = VERTEX_POINT('',#174);
#174 = CARTESIAN_POINT('',(62.103464721335,-14.5,-3.207239993983));
#175 = VERTEX_POINT('',#176);
#176 = CARTESIAN_POINT('',(62.103464721335,-3.5,-3.207239993983));
#177 = SURFACE_CURVE('',#178,(#182,#189),.PCURVE_S1.);
#178 = LINE('',#179,#180);
#179 = CARTESIAN_POINT('',(62.103464721335,-14.5,-3.207239993983));
#180 = VECTOR('',#181,1.);
#181 = DIRECTION('',(0.,1.,0.));
#182 = PCURVE('',#44,#183);
#183 = DEFINITIONAL_REPRESENTATION('',(#184),#188);
#184 = LINE('',#185,#186);
#185 = CARTESIAN_POINT('',(0.,0.));
#186 = VECTOR('',#187,1.);
#187 = DIRECTION('',(0.,-1.));
#188 = ( GEOMETRIC_REPRESENTATION_CONTEXT(2) 
PARAMETRIC_REPRESENTATION_CONTEXT() REPRESENTATION_CONTEXT('2D SPACE',''
  ) );
#189 = PCURVE('',#190,#195);
#190 = PLANE('',#191);
#191 = AXIS2_PLACEMENT_3D('',#192,#193,#194);
#192 = CARTESIAN_POINT('',(59.516761338445,-14.5,-4.869945803484));
#193 = DIRECTION('',(0.540717336423,0.,-0.841204352159));
#194 = DIRECTION('',(0.841204352159,0.,0.540717336423));
#195 = DEFINITIONAL_REPRESENTATION('',(#196),#200);
#196 = LINE('',#197,#198);
#197 = CARTESIAN_POINT('',(3.075,0.));
#198 = VECTOR('',#199,1.);
#199 = DIRECTION('',(0.,-1.));
#200 = ( GEOMETRIC_REPRESENTATION_CONTEXT(2) 
PARAMETRIC_REPRESENTATION_CONTEXT() REPRESENTATION_CONTEXT('2D SPACE',''
  ) );
#201 = ORIENTED_EDGE('',*,*,#202,.T.);
#202 = EDGE_CURVE('',#175,#24,#203,.T.);
#203 = SURFACE_CURVE('',#204,(#208,#215),.PCURVE_S1.);
#204 = LINE('',#205,#206);
#205 = CARTESIAN_POINT('',(62.103464721335,-3.5,-3.207239993983));
#206 = VECTOR('',#207,1.);
#207 = DIRECTION('',(0.977166197065,0.,-0.212476406485));
#208 = PCURVE('',#44,#209);
#209 = DEFINITIONAL_REPRESENTATION('',(#210),#214);
#210 = LINE('',#211,#212);
#211 = CARTESIAN_POINT('',(0.,-11.));
#212 = VECTOR('',#213,1.);
#213 = DIRECTION('',(1.,0.));
#214 = ( GEOMETRIC_REPRESENTATION_CONTEXT(2) 
PARAMETRIC_REPRESENTATION_CONTEXT() REPRESENTATION_CONTEXT('2D SPACE',''
  ) );
#215 = PCURVE('',#72,#216);
#216 = DEFINITIONAL_REPRESENTATION('',(#217),#221);
#217 = LINE('',#218,#219);
#218 = CARTESIAN_POINT('',(1.939893746022,1.014893746022));
#219 = VECTOR('',#220,1.);
#220 = DIRECTION('',(-0.707106781187,0.707106781187));
#221 = ( GEOMETRIC_REPRESENTATION_CONTEXT(2) 
PARAMETRIC_REPRESENTATION_CONTEXT() REPRESENTATION_CONTEXT('2D SPACE',''
  ) );
#222 = ORIENTED_EDGE('',*,*,#21,.F.);
#223 = ORIENTED_EDGE('',*,*,#224,.F.);
#224 = EDGE_CURVE('',#173,#22,#225,.T.);
#225 = SURFACE_CURVE('',#226,(#230,#237),.PCURVE_S1.);
#226 = LINE('',#227,#228);
#227 = CARTESIAN_POINT('',(62.103464721335,-14.5,-3.207239993983));
#228 = VECTOR('',#229,1.);
#229 = DIRECTION('',(0.977166197065,0.,-0.212476406485));
#230 = PCURVE('',#44,#231);
#231 = DEFINITIONAL_REPRESENTATION('',(#232),#236);
#232 = LINE('',#233,#234);
#233 = CARTESIAN_POINT('',(0.,0.));
#234 = VECTOR('',#235,1.);
#235 = DIRECTION('',(1.,0.));
#236 = ( GEOMETRIC_REPRESENTATION_CONTEXT(2) 
PARAMETRIC_REPRESENTATION_CONTEXT() REPRESENTATION_CONTEXT('2D SPACE',''
  ) );
#237 = PCURVE('',#126,#238);
#238 = DEFINITIONAL_REPRESENTATION('',(#239),#243);
#239 = LINE('',#240,#241);
#240 = CARTESIAN_POINT('',(1.939893746022,1.014893746022));
#241 = VECTOR('',#242,1.);
#242 = DIRECTION('',(-0.707106781187,0.707106781187));
#243 = ( GEOMETRIC_REPRESENTATION_CONTEXT(2) 
PARAMETRIC_REPRESENTATION_CONTEXT() REPRESENTATION_CONTEXT('2D SPACE',''
  ) );
#244 = ADVANCED_FACE('',(#245),#126,.F.);
#245 = FACE_BOUND('',#246,.F.);
#246 = EDGE_LOOP('',(#247,#248,#271,#300,#328,#349));
#247 = ORIENTED_EDGE('',*,*,#112,.T.);
#248 = ORIENTED_EDGE('',*,*,#249,.T.);
#249 = EDGE_CURVE('',#85,#250,#252,.T.);
#250 = VERTEX_POINT('',#251);
#251 = CARTESIAN_POINT('',(63.362039388456,-14.5,-7.153328539274));
#252 = SURFACE_CURVE('',#253,(#257,#264),.PCURVE_S1.);
#253 = LINE('',#254,#255);
#254 = CARTESIAN_POINT('',(65.044448092775,-14.5,-6.071893866428));
#255 = VECTOR('',#256,1.);
#256 = DIRECTION('',(-0.841204352159,0.,-0.540717336423));
#257 = PCURVE('',#126,#258);
#258 = DEFINITIONAL_REPRESENTATION('',(#259),#263);
#259 = LINE('',#260,#261);
#260 = CARTESIAN_POINT('',(-2.060106253978,1.939893746022));
#261 = VECTOR('',#262,1.);
#262 = DIRECTION('',(0.,-1.));
#263 = ( GEOMETRIC_REPRESENTATION_CONTEXT(2) 
PARAMETRIC_REPRESENTATION_CONTEXT() REPRESENTATION_CONTEXT('2D SPACE',''
  ) );
#264 = PCURVE('',#100,#265);
#265 = DEFINITIONAL_REPRESENTATION('',(#266),#270);
#266 = LINE('',#267,#268);
#267 = CARTESIAN_POINT('',(0.,0.));
#268 = VECTOR('',#269,1.);
#269 = DIRECTION('',(1.,-0.));
#270 = ( GEOMETRIC_REPRESENTATION_CONTEXT(2) 
PARAMETRIC_REPRESENTATION_CONTEXT() REPRESENTATION_CONTEXT('2D SPACE',''
  ) );
#271 = ORIENTED_EDGE('',*,*,#272,.T.);
#272 = EDGE_CURVE('',#250,#273,#275,.T.);
#273 = VERTEX_POINT('',#274);
#274 = CARTESIAN_POINT('',(60.598196011292,-14.5,-6.552354507802));
#275 = SURFACE_CURVE('',#276,(#281,#288),.PCURVE_S1.);
#276 = CIRCLE('',#277,2.);
#277 = AXIS2_PLACEMENT_3D('',#278,#279,#280);
#278 = CARTESIAN_POINT('',(62.28060471561,-14.5,-5.470919834956));
#279 = DIRECTION('',(0.,1.,0.));
#280 = DIRECTION('',(0.540717336423,0.,-0.841204352159));
#281 = PCURVE('',#126,#282);
#282 = DEFINITIONAL_REPRESENTATION('',(#283),#287);
#283 = CIRCLE('',#284,2.);
#284 = AXIS2_PLACEMENT_2D('',#285,#286);
#285 = CARTESIAN_POINT('',(-6.010625397807E-02,-6.010625397807E-02));
#286 = DIRECTION('',(-1.,-3.885780586188E-16));
#287 = ( GEOMETRIC_REPRESENTATION_CONTEXT(2) 
PARAMETRIC_REPRESENTATION_CONTEXT() REPRESENTATION_CONTEXT('2D SPACE',''
  ) );
#288 = PCURVE('',#289,#294);
#289 = CYLINDRICAL_SURFACE('',#290,2.);
#290 = AXIS2_PLACEMENT_3D('',#291,#292,#293);
#291 = CARTESIAN_POINT('',(62.28060471561,-14.5,-5.470919834956));
#292 = DIRECTION('',(0.,-1.,-0.));
#293 = DIRECTION('',(0.540717336423,0.,-0.841204352159));
#294 = DEFINITIONAL_REPRESENTATION('',(#295),#299);
#295 = LINE('',#296,#297);
#296 = CARTESIAN_POINT('',(-0.,0.));
#297 = VECTOR('',#298,1.);
#298 = DIRECTION('',(-1.,0.));
#299 = ( GEOMETRIC_REPRESENTATION_CONTEXT(2) 
PARAMETRIC_REPRESENTATION_CONTEXT() REPRESENTATION_CONTEXT('2D SPACE',''
  ) );
#300 = ORIENTED_EDGE('',*,*,#301,.T.);
#301 = EDGE_CURVE('',#273,#302,#304,.T.);
#302 = VERTEX_POINT('',#303);
#303 = CARTESIAN_POINT('',(59.516761338445,-14.5,-4.869945803484));
#304 = SURFACE_CURVE('',#305,(#309,#316),.PCURVE_S1.);
#305 = LINE('',#306,#307);
#306 = CARTESIAN_POINT('',(60.598196011292,-14.5,-6.552354507802));
#307 = VECTOR('',#308,1.);
#308 = DIRECTION('',(-0.540717336423,0.,0.841204352159));
#309 = PCURVE('',#126,#310);
#310 = DEFINITIONAL_REPRESENTATION('',(#311),#315);
#311 = LINE('',#312,#313);
#312 = CARTESIAN_POINT('',(-6.010625397807E-02,-2.060106253978));
#313 = VECTOR('',#314,1.);
#314 = DIRECTION('',(1.,0.));
#315 = ( GEOMETRIC_REPRESENTATION_CONTEXT(2) 
PARAMETRIC_REPRESENTATION_CONTEXT() REPRESENTATION_CONTEXT('2D SPACE',''
  ) );
#316 = PCURVE('',#317,#322);
#317 = PLANE('',#318);
#318 = AXIS2_PLACEMENT_3D('',#319,#320,#321);
#319 = CARTESIAN_POINT('',(60.598196011292,-14.5,-6.552354507802));
#320 = DIRECTION('',(0.841204352159,0.,0.540717336423));
#321 = DIRECTION('',(-0.540717336423,0.,0.841204352159));
#322 = DEFINITIONAL_REPRESENTATION('',(#323),#327);
#323 = LINE('',#324,#325);
#324 = CARTESIAN_POINT('',(0.,0.));
#325 = VECTOR('',#326,1.);
#326 = DIRECTION('',(1.,0.));
#327 = ( GEOMETRIC_REPRESENTATION_CONTEXT(2) 
PARAMETRIC_REPRESENTATION_CONTEXT() REPRESENTATION_CONTEXT('2D SPACE',''
  ) );
#328 = ORIENTED_EDGE('',*,*,#329,.T.);
#329 = EDGE_CURVE('',#302,#173,#330,.T.);
#330 = SURFACE_CURVE('',#331,(#335,#342),.PCURVE_S1.);
#331 = LINE('',#332,#333);
#332 = CARTESIAN_POINT('',(59.516761338445,-14.5,-4.869945803484));
#333 = VECTOR('',#334,1.);
#334 = DIRECTION('',(0.841204352159,0.,0.540717336423));
#335 = PCURVE('',#126,#336);
#336 = DEFINITIONAL_REPRESENTATION('',(#337),#341);
#337 = LINE('',#338,#339);
#338 = CARTESIAN_POINT('',(1.939893746022,-2.060106253978));
#339 = VECTOR('',#340,1.);
#340 = DIRECTION('',(0.,1.));
#341 = ( GEOMETRIC_REPRESENTATION_CONTEXT(2) 
PARAMETRIC_REPRESENTATION_CONTEXT() REPRESENTATION_CONTEXT('2D SPACE',''
  ) );
#342 = PCURVE('',#190,#343);
#343 = DEFINITIONAL_REPRESENTATION('',(#344),#348);
#344 = LINE('',#345,#346);
#345 = CARTESIAN_POINT('',(0.,0.));
#346 = VECTOR('',#347,1.);
#347 = DIRECTION('',(1.,0.));
#348 = ( GEOMETRIC_REPRESENTATION_CONTEXT(2) 
PARAMETRIC_REPRESENTATION_CONTEXT() REPRESENTATION_CONTEXT('2D SPACE',''
  ) );
#349 = ORIENTED_EDGE('',*,*,#224,.T.);
#350 = ADVANCED_FACE('',(#351),#72,.T.);
#351 = FACE_BOUND('',#352,.T.);
#352 = EDGE_LOOP('',(#353,#354,#377,#401,#424,#445));
#353 = ORIENTED_EDGE('',*,*,#56,.T.);
#354 = ORIENTED_EDGE('',*,*,#355,.T.);
#355 = EDGE_CURVE('',#57,#356,#358,.T.);
#356 = VERTEX_POINT('',#357);
#357 = CARTESIAN_POINT('',(63.362039388456,-3.5,-7.153328539274));
#358 = SURFACE_CURVE('',#359,(#363,#370),.PCURVE_S1.);
#359 = LINE('',#360,#361);
#360 = CARTESIAN_POINT('',(65.044448092775,-3.5,-6.071893866428));
#361 = VECTOR('',#362,1.);
#362 = DIRECTION('',(-0.841204352159,0.,-0.540717336423));
#363 = PCURVE('',#72,#364);
#364 = DEFINITIONAL_REPRESENTATION('',(#365),#369);
#365 = LINE('',#366,#367);
#366 = CARTESIAN_POINT('',(-2.060106253978,1.939893746022));
#367 = VECTOR('',#368,1.);
#368 = DIRECTION('',(0.,-1.));
#369 = ( GEOMETRIC_REPRESENTATION_CONTEXT(2) 
PARAMETRIC_REPRESENTATION_CONTEXT() REPRESENTATION_CONTEXT('2D SPACE',''
  ) );
#370 = PCURVE('',#100,#371);
#371 = DEFINITIONAL_REPRESENTATION('',(#372),#376);
#372 = LINE('',#373,#374);
#373 = CARTESIAN_POINT('',(0.,-11.));
#374 = VECTOR('',#375,1.);
#375 = DIRECTION('',(1.,-0.));
#376 = ( GEOMETRIC_REPRESENTATION_CONTEXT(2) 
PARAMETRIC_REPRESENTATION_CONTEXT() REPRESENTATION_CONTEXT('2D SPACE',''
  ) );
#377 = ORIENTED_EDGE('',*,*,#378,.T.);
#378 = EDGE_CURVE('',#356,#379,#381,.T.);
#379 = VERTEX_POINT('',#380);
#380 = CARTESIAN_POINT('',(60.598196011292,-3.5,-6.552354507802));
#381 = SURFACE_CURVE('',#382,(#387,#394),.PCURVE_S1.);
#382 = CIRCLE('',#383,2.);
#383 = AXIS2_PLACEMENT_3D('',#384,#385,#386);
#384 = CARTESIAN_POINT('',(62.28060471561,-3.5,-5.470919834956));
#385 = DIRECTION('',(0.,1.,0.));
#386 = DIRECTION('',(0.540717336423,0.,-0.841204352159));
#387 = PCURVE('',#72,#388);
#388 = DEFINITIONAL_REPRESENTATION('',(#389),#393);
#389 = CIRCLE('',#390,2.);
#390 = AXIS2_PLACEMENT_2D('',#391,#392);
#391 = CARTESIAN_POINT('',(-6.010625397807E-02,-6.010625397807E-02));
#392 = DIRECTION('',(-1.,-3.885780586188E-16));
#393 = ( GEOMETRIC_REPRESENTATION_CONTEXT(2) 
PARAMETRIC_REPRESENTATION_CONTEXT() REPRESENTATION_CONTEXT('2D SPACE',''
  ) );
#394 = PCURVE('',#289,#395);
#395 = DEFINITIONAL_REPRESENTATION('',(#396),#400);
#396 = LINE('',#397,#398);
#397 = CARTESIAN_POINT('',(-0.,-11.));
#398 = VECTOR('',#399,1.);
#399 = DIRECTION('',(-1.,0.));
#400 = ( GEOMETRIC_REPRESENTATION_CONTEXT(2) 
PARAMETRIC_REPRESENTATION_CONTEXT() REPRESENTATION_CONTEXT('2D SPACE',''
  ) );
#401 = ORIENTED_EDGE('',*,*,#402,.T.);
#402 = EDGE_CURVE('',#379,#403,#405,.T.);
#403 = VERTEX_POINT('',#404);
#404 = CARTESIAN_POINT('',(59.516761338445,-3.5,-4.869945803484));
#405 = SURFACE_CURVE('',#406,(#410,#417),.PCURVE_S1.);
#406 = LINE('',#407,#408);
#407 = CARTESIAN_POINT('',(60.598196011292,-3.5,-6.552354507802));
#408 = VECTOR('',#409,1.);
#409 = DIRECTION('',(-0.540717336423,0.,0.841204352159));
#410 = PCURVE('',#72,#411);
#411 = DEFINITIONAL_REPRESENTATION('',(#412),#416);
#412 = LINE('',#413,#414);
#413 = CARTESIAN_POINT('',(-6.010625397807E-02,-2.060106253978));
#414 = VECTOR('',#415,1.);
#415 = DIRECTION('',(1.,0.));
#416 = ( GEOMETRIC_REPRESENTATION_CONTEXT(2) 
PARAMETRIC_REPRESENTATION_CONTEXT() REPRESENTATION_CONTEXT('2D SPACE',''
  ) );
#417 = PCURVE('',#317,#418);
#418 = DEFINITIONAL_REPRESENTATION('',(#419),#423);
#419 = LINE('',#420,#421);
#420 = CARTESIAN_POINT('',(0.,-11.));
#421 = VECTOR('',#422,1.);
#422 = DIRECTION('',(1.,0.));
#423 = ( GEOMETRIC_REPRESENTATION_CONTEXT(2) 
PARAMETRIC_REPRESENTATION_CONTEXT() REPRESENTATION_CONTEXT('2D SPACE',''
  ) );
#424 = ORIENTED_EDGE('',*,*,#425,.T.);
#425 = EDGE_CURVE('',#403,#175,#426,.T.);
#426 = SURFACE_CURVE('',#427,(#431,#438),.PCURVE_S1.);
#427 = LINE('',#428,#429);
#428 = CARTESIAN_POINT('',(59.516761338445,-3.5,-4.869945803484));
#429 = VECTOR('',#430,1.);
#430 = DIRECTION('',(0.841204352159,0.,0.540717336423));
#431 = PCURVE('',#72,#432);
#432 = DEFINITIONAL_REPRESENTATION('',(#433),#437);
#433 = LINE('',#434,#435);
#434 = CARTESIAN_POINT('',(1.939893746022,-2.060106253978));
#435 = VECTOR('',#436,1.);
#436 = DIRECTION('',(0.,1.));
#437 = ( GEOMETRIC_REPRESENTATION_CONTEXT(2) 
PARAMETRIC_REPRESENTATION_CONTEXT() REPRESENTATION_CONTEXT('2D SPACE',''
  ) );
#438 = PCURVE('',#190,#439);
#439 = DEFINITIONAL_REPRESENTATION('',(#440),#444);
#440 = LINE('',#441,#442);
#441 = CARTESIAN_POINT('',(0.,-11.));
#442 = VECTOR('',#443,1.);
#443 = DIRECTION('',(1.,0.));
#444 = ( GEOMETRIC_REPRESENTATION_CONTEXT(2) 
PARAMETRIC_REPRESENTATION_CONTEXT() REPRESENTATION_CONTEXT('2D SPACE',''
  ) );
#445 = ORIENTED_EDGE('',*,*,#202,.T.);
#446 = ADVANCED_FACE('',(#447),#100,.F.);
#447 = FACE_BOUND('',#448,.F.);
#448 = EDGE_LOOP('',(#449,#450,#451,#472));
#449 = ORIENTED_EDGE('',*,*,#84,.T.);
#450 = ORIENTED_EDGE('',*,*,#355,.T.);
#451 = ORIENTED_EDGE('',*,*,#452,.F.);
#452 = EDGE_CURVE('',#250,#356,#453,.T.);
#453 = SURFACE_CURVE('',#454,(#458,#465),.PCURVE_S1.);
#454 = LINE('',#455,#456);
#455 = CARTESIAN_POINT('',(63.362039388456,-14.5,-7.153328539274));
#456 = VECTOR('',#457,1.);
#457 = DIRECTION('',(0.,1.,0.));
#458 = PCURVE('',#100,#459);
#459 = DEFINITIONAL_REPRESENTATION('',(#460),#464);
#460 = LINE('',#461,#462);
#461 = CARTESIAN_POINT('',(2.,-0.));
#462 = VECTOR('',#463,1.);
#463 = DIRECTION('',(0.,-1.));
#464 = ( GEOMETRIC_REPRESENTATION_CONTEXT(2) 
PARAMETRIC_REPRESENTATION_CONTEXT() REPRESENTATION_CONTEXT('2D SPACE',''
  ) );
#465 = PCURVE('',#289,#466);
#466 = DEFINITIONAL_REPRESENTATION('',(#467),#471);
#467 = LINE('',#468,#469);
#468 = CARTESIAN_POINT('',(-0.,0.));
#469 = VECTOR('',#470,1.);
#470 = DIRECTION('',(-0.,-1.));
#471 = ( GEOMETRIC_REPRESENTATION_CONTEXT(2) 
PARAMETRIC_REPRESENTATION_CONTEXT() REPRESENTATION_CONTEXT('2D SPACE',''
  ) );
#472 = ORIENTED_EDGE('',*,*,#249,.F.);
#473 = ADVANCED_FACE('',(#474),#157,.F.);
#474 = FACE_BOUND('',#475,.T.);
#475 = EDGE_LOOP('',(#476,#506,#527,#528,#529));
#476 = ORIENTED_EDGE('',*,*,#477,.T.);
#477 = EDGE_CURVE('',#478,#480,#482,.T.);
#478 = VERTEX_POINT('',#479);
#479 = CARTESIAN_POINT('',(60.598196011292,-13.5,-6.552354507802));
#480 = VERTEX_POINT('',#481);
#481 = CARTESIAN_POINT('',(60.598196011292,-11.5,-6.552354507802));
#482 = SURFACE_CURVE('',#483,(#488,#495),.PCURVE_S1.);
#483 = CIRCLE('',#484,1.);
#484 = AXIS2_PLACEMENT_3D('',#485,#486,#487);
#485 = CARTESIAN_POINT('',(60.598196011292,-12.5,-6.552354507802));
#486 = DIRECTION('',(-0.841204352159,0.,-0.540717336423));
#487 = DIRECTION('',(0.,1.,0.));
#488 = PCURVE('',#157,#489);
#489 = DEFINITIONAL_REPRESENTATION('',(#490),#494);
#490 = LINE('',#491,#492);
#491 = CARTESIAN_POINT('',(-6.28318530718,-0.2));
#492 = VECTOR('',#493,1.);
#493 = DIRECTION('',(1.,-0.));
#494 = ( GEOMETRIC_REPRESENTATION_CONTEXT(2) 
PARAMETRIC_REPRESENTATION_CONTEXT() REPRESENTATION_CONTEXT('2D SPACE',''
  ) );
#495 = PCURVE('',#317,#496);
#496 = DEFINITIONAL_REPRESENTATION('',(#497),#505);
#497 = ( BOUNDED_CURVE() B_SPLINE_CURVE(2,(#498,#499,#500,#501,#502,#503
,#504),.UNSPECIFIED.,.T.,.F.) B_SPLINE_CURVE_WITH_KNOTS((1,2,2,2,2,1),(
    -2.094395102393,0.,2.094395102393,4.188790204786,6.28318530718,
8.377580409573),.UNSPECIFIED.) CURVE() GEOMETRIC_REPRESENTATION_ITEM() 
RATIONAL_B_SPLINE_CURVE((1.,0.5,1.,0.5,1.,0.5,1.)) REPRESENTATION_ITEM(
  '') );
#498 = CARTESIAN_POINT('',(0.,-3.));
#499 = CARTESIAN_POINT('',(-1.732050807569,-3.));
#500 = CARTESIAN_POINT('',(-0.866025403784,-1.5));
#501 = CARTESIAN_POINT('',(-2.449293598295E-16,-4.440892098501E-16));
#502 = CARTESIAN_POINT('',(0.866025403784,-1.5));
#503 = CARTESIAN_POINT('',(1.732050807569,-3.));
#504 = CARTESIAN_POINT('',(0.,-3.));
#505 = ( GEOMETRIC_REPRESENTATION_CONTEXT(2) 
PARAMETRIC_REPRESENTATION_CONTEXT() REPRESENTATION_CONTEXT('2D SPACE',''
  ) );
#506 = ORIENTED_EDGE('',*,*,#507,.T.);
#507 = EDGE_CURVE('',#480,#141,#508,.T.);
#508 = SEAM_CURVE('',#509,(#513,#520),.PCURVE_S1.);
#509 = LINE('',#510,#511);
#510 = CARTESIAN_POINT('',(60.42995514086,-11.5,-6.660497975087));
#511 = VECTOR('',#512,1.);
#512 = DIRECTION('',(0.841204352159,0.,0.540717336423));
#513 = PCURVE('',#157,#514);
#514 = DEFINITIONAL_REPRESENTATION('',(#515),#519);
#515 = LINE('',#516,#517);
#516 = CARTESIAN_POINT('',(-6.28318530718,0.));
#517 = VECTOR('',#518,1.);
#518 = DIRECTION('',(-0.,-1.));
#519 = ( GEOMETRIC_REPRESENTATION_CONTEXT(2) 
PARAMETRIC_REPRESENTATION_CONTEXT() REPRESENTATION_CONTEXT('2D SPACE',''
  ) );
#520 = PCURVE('',#157,#521);
#521 = DEFINITIONAL_REPRESENTATION('',(#522),#526);
#522 = LINE('',#523,#524);
#523 = CARTESIAN_POINT('',(-0.,0.));
#524 = VECTOR('',#525,1.);
#525 = DIRECTION('',(-0.,-1.));
#526 = ( GEOMETRIC_REPRESENTATION_CONTEXT(2) 
PARAMETRIC_REPRESENTATION_CONTEXT() REPRESENTATION_CONTEXT('2D SPACE',''
  ) );
#527 = ORIENTED_EDGE('',*,*,#140,.F.);
#528 = ORIENTED_EDGE('',*,*,#507,.F.);
#529 = ORIENTED_EDGE('',*,*,#530,.F.);
#530 = EDGE_CURVE('',#478,#480,#531,.T.);
#531 = SURFACE_CURVE('',#532,(#580,#631),.PCURVE_S1.);
#532 = B_SPLINE_CURVE_WITH_KNOTS('',6,(#533,#534,#535,#536,#537,#538,
    #539,#540,#541,#542,#543,#544,#545,#546,#547,#548,#549,#550,#551,
    #552,#553,#554,#555,#556,#557,#558,#559,#560,#561,#562,#563,#564,
    #565,#566,#567,#568,#569,#570,#571,#572,#573,#574,#575,#576,#577,
    #578,#579),.UNSPECIFIED.,.F.,.F.,(7,5,5,5,5,5,5,5,5,7),(0.,
    0.137007550375,0.225449060255,0.31139900136,0.403639506947,
    0.500128172976,0.597084942816,0.688888478992,0.863114335723,1.),
  .UNSPECIFIED.);
#533 = CARTESIAN_POINT('',(60.598196011292,-13.5,-6.552354507802));
#534 = CARTESIAN_POINT('',(60.640809114305,-13.5,-6.618648531128));
#535 = CARTESIAN_POINT('',(60.686409133134,-13.49254708552,
    -6.682697486685));
#536 = CARTESIAN_POINT('',(60.734345400578,-13.47773816079,
    -6.74357992321));
#537 = CARTESIAN_POINT('',(60.783725823516,-13.45596372897,
    -6.800554080992));
#538 = CARTESIAN_POINT('',(60.833454995063,-13.42790423828,
    -6.853107059062));
#539 = CARTESIAN_POINT('',(60.913978168097,-13.37306585311,
    -6.931838598348));
#540 = CARTESIAN_POINT('',(60.94531344809,-13.3493057987,-6.960838891834
    ));
#541 = CARTESIAN_POINT('',(60.976200421988,-13.323473597,-6.987971396448
    ));
#542 = CARTESIAN_POINT('',(61.006446469648,-13.29573897597,
    -7.013268795043));
#543 = CARTESIAN_POINT('',(61.035864552806,-13.26626769692,
    -7.036775180574));
#544 = CARTESIAN_POINT('',(61.091887636331,-13.20505327294,
    -7.079696258168));
#545 = CARTESIAN_POINT('',(61.118561136086,-13.1733837867,
    -7.099217216947));
#546 = CARTESIAN_POINT('',(61.144150214655,-13.14034183443,
    -7.117164131236));
#547 = CARTESIAN_POINT('',(61.168513858425,-13.10604380305,
    -7.133597787748));
#548 = CARTESIAN_POINT('',(61.191517223304,-13.07059645366,
    -7.148577659157));
#549 = CARTESIAN_POINT('',(61.236121895527,-12.99492829071,
    -7.176733776505));
#550 = CARTESIAN_POINT('',(61.257505486624,-12.95453420928,
    -7.189702856114));
#551 = CARTESIAN_POINT('',(61.277008494565,-12.91305931672,
    -7.201123027042));
#552 = CARTESIAN_POINT('',(61.294473165967,-12.87063847998,
    -7.211052357766));
#553 = CARTESIAN_POINT('',(61.309760660144,-12.82739837057,
    -7.219542398451));
#554 = CARTESIAN_POINT('',(61.336344124497,-12.73749385053,
    -7.234045362836));
#555 = CARTESIAN_POINT('',(61.347423970837,-12.69076342499,
    -7.239926075443));
#556 = CARTESIAN_POINT('',(61.355839962405,-12.64346136073,
    -7.244307116555));
#557 = CARTESIAN_POINT('',(61.361487873364,-12.59577774916,
    -7.247217543549));
#558 = CARTESIAN_POINT('',(61.364313374545,-12.54789754145,
    -7.248674086333));
#559 = CARTESIAN_POINT('',(61.364313374545,-12.45187008906,
    -7.248674086333));
#560 = CARTESIAN_POINT('',(61.361460394325,-12.40375792161,
    -7.247203374144));
#561 = CARTESIAN_POINT('',(61.355757614607,-12.35584521703,
    -7.244264683917));
#562 = CARTESIAN_POINT('',(61.347260408767,-12.30831951326,
    -7.239840932443));
#563 = CARTESIAN_POINT('',(61.336074962648,-12.26137360808,
    -7.233902478865));
#564 = CARTESIAN_POINT('',(61.309367938808,-12.17149024512,
    -7.219324280708));
#565 = CARTESIAN_POINT('',(61.29410816309,-12.12847187145,
    -7.210844920084));
#566 = CARTESIAN_POINT('',(61.276694011542,-12.08626714078,
    -7.20093913403));
#567 = CARTESIAN_POINT('',(61.257262530904,-12.04500088311,
    -7.189556024828));
#568 = CARTESIAN_POINT('',(61.235969266963,-12.00480597922,
    -7.176638306402));
#569 = CARTESIAN_POINT('',(61.169368546168,-11.89184307524,
    -7.134594933173));
#570 = CARTESIAN_POINT('',(61.119585952141,-11.82209710327,
    -7.101280672079));
#571 = CARTESIAN_POINT('',(61.0647253762,-11.757499581,-7.061733317359)
  );
#572 = CARTESIAN_POINT('',(61.006025776198,-11.6990659792,
    -7.015447117723));
#573 = CARTESIAN_POINT('',(60.944817210801,-11.64795147604,
    -6.961981232865));
#574 = CARTESIAN_POINT('',(60.833556107841,-11.57215275681,
    -6.853213951499));
#575 = CARTESIAN_POINT('',(60.783806020757,-11.54407163756,
    -6.800646616518));
#576 = CARTESIAN_POINT('',(60.734404005234,-11.52228002533,
    -6.743654281599));
#577 = CARTESIAN_POINT('',(60.686446627647,-11.50745912309,
    -6.682750075696));
#578 = CARTESIAN_POINT('',(60.64082685987,-11.5,-6.618676138245));
#579 = CARTESIAN_POINT('',(60.598196011292,-11.5,-6.552354507802));
#580 = PCURVE('',#157,#581);
#581 = DEFINITIONAL_REPRESENTATION('',(#582),#630);
#582 = B_SPLINE_CURVE_WITH_KNOTS('',6,(#583,#584,#585,#586,#587,#588,
    #589,#590,#591,#592,#593,#594,#595,#596,#597,#598,#599,#600,#601,
    #602,#603,#604,#605,#606,#607,#608,#609,#610,#611,#612,#613,#614,
    #615,#616,#617,#618,#619,#620,#621,#622,#623,#624,#625,#626,#627,
    #628,#629),.UNSPECIFIED.,.F.,.F.,(7,5,5,5,5,5,5,5,5,7),(0.,
    0.137007550375,0.225449060255,0.31139900136,0.403639506947,
    0.500128172976,0.597084942816,0.688888478992,0.863114335723,1.),
  .UNSPECIFIED.);
#583 = CARTESIAN_POINT('',(-3.14159265359,-0.2));
#584 = CARTESIAN_POINT('',(-3.220401118091,-0.2));
#585 = CARTESIAN_POINT('',(-3.298935970183,-0.203726553648));
#586 = CARTESIAN_POINT('',(-3.376952176185,-0.211130561536));
#587 = CARTESIAN_POINT('',(-3.454190721004,-0.221862673382));
#588 = CARTESIAN_POINT('',(-3.53033273863,-0.235278762593));
#589 = CARTESIAN_POINT('',(-3.653038122329,-0.260443697984));
#590 = CARTESIAN_POINT('',(-3.700637511057,-0.271122110441));
#591 = CARTESIAN_POINT('',(-3.747741140085,-0.282433351684));
#592 = CARTESIAN_POINT('',(-3.794383418725,-0.294197716624));
#593 = CARTESIAN_POINT('',(-3.840592910842,-0.306234026036));
#594 = CARTESIAN_POINT('',(-3.930902969617,-0.330152716966));
#595 = CARTESIAN_POINT('',(-3.975046529105,-0.342035260211));
#596 = CARTESIAN_POINT('',(-4.01887445782,-0.35385669678));
#597 = CARTESIAN_POINT('',(-4.062435164217,-0.365465536976));
#598 = CARTESIAN_POINT('',(-4.105776668391,-0.376716191458));
#599 = CARTESIAN_POINT('',(-4.195280031443,-0.399013335083));
#600 = CARTESIAN_POINT('',(-4.241432370753,-0.409988698796));
#601 = CARTESIAN_POINT('',(-4.287438638581,-0.420219629551));
#602 = CARTESIAN_POINT('',(-4.333337013023,-0.429542025881));
#603 = CARTESIAN_POINT('',(-4.379171205769,-0.437811220332));
#604 = CARTESIAN_POINT('',(-4.472920900936,-0.452331341968));
#605 = CARTESIAN_POINT('',(-4.52083504579,-0.458471953673));
#606 = CARTESIAN_POINT('',(-4.568729948286,-0.463182617528));
#607 = CARTESIAN_POINT('',(-4.616611160272,-0.466359946475));
#608 = CARTESIAN_POINT('',(-4.664491438933,-0.467949192431));
#609 = CARTESIAN_POINT('',(-4.760518891323,-0.467949192431));
#610 = CARTESIAN_POINT('',(-4.808631132073,-0.46634449263));
#611 = CARTESIAN_POINT('',(-4.856744323416,-0.463136290265));
#612 = CARTESIAN_POINT('',(-4.904871525163,-0.458380402845));
#613 = CARTESIAN_POINT('',(-4.953018428,-0.45218218169));
#614 = CARTESIAN_POINT('',(-5.046784802266,-0.43759880148));
#615 = CARTESIAN_POINT('',(-5.092403081749,-0.429347149024));
#616 = CARTESIAN_POINT('',(-5.138085427061,-0.420054519203));
#617 = CARTESIAN_POINT('',(-5.183875001261,-0.409863717609));
#618 = CARTESIAN_POINT('',(-5.229809555185,-0.398936565611));
#619 = CARTESIAN_POINT('',(-5.36343445018,-0.365645330207));
#620 = CARTESIAN_POINT('',(-5.451744955776,-0.341781593974));
#621 = CARTESIAN_POINT('',(-5.541175873215,-0.317016579037));
#622 = CARTESIAN_POINT('',(-5.632059040095,-0.292665970625));
#623 = CARTESIAN_POINT('',(-5.724746648894,-0.270086989874));
#624 = CARTESIAN_POINT('',(-5.894290402936,-0.235306020509));
#625 = CARTESIAN_POINT('',(-5.970461785368,-0.221880100087));
#626 = CARTESIAN_POINT('',(-6.047730443155,-0.211139653157));
#627 = CARTESIAN_POINT('',(-6.125777478876,-0.203729658406));
#628 = CARTESIAN_POINT('',(-6.204344024116,-0.2));
#629 = CARTESIAN_POINT('',(-6.28318530718,-0.2));
#630 = ( GEOMETRIC_REPRESENTATION_CONTEXT(2) 
PARAMETRIC_REPRESENTATION_CONTEXT() REPRESENTATION_CONTEXT('2D SPACE',''
  ) );
#631 = PCURVE('',#289,#632);
#632 = DEFINITIONAL_REPRESENTATION('',(#633),#681);
#633 = B_SPLINE_CURVE_WITH_KNOTS('',6,(#634,#635,#636,#637,#638,#639,
    #640,#641,#642,#643,#644,#645,#646,#647,#648,#649,#650,#651,#652,
    #653,#654,#655,#656,#657,#658,#659,#660,#661,#662,#663,#664,#665,
    #666,#667,#668,#669,#670,#671,#672,#673,#674,#675,#676,#677,#678,
    #679,#680),.UNSPECIFIED.,.F.,.F.,(7,5,5,5,5,5,5,5,5,7),(0.,
    0.137007550375,0.225449060255,0.31139900136,0.403639506947,
    0.500128172976,0.597084942816,0.688888478992,0.863114335723,1.),
  .UNSPECIFIED.);
#634 = CARTESIAN_POINT('',(-1.570796326795,-1.));
#635 = CARTESIAN_POINT('',(-1.531392094544,-1.));
#636 = CARTESIAN_POINT('',(-1.492124539151,-1.007452914478));
#637 = CARTESIAN_POINT('',(-1.453447455961,-1.022261839206));
#638 = CARTESIAN_POINT('',(-1.415806165085,-1.044036271024));
#639 = CARTESIAN_POINT('',(-1.379657427492,-1.072095761719));
#640 = CARTESIAN_POINT('',(-1.32334882097,-1.126934146889));
#641 = CARTESIAN_POINT('',(-1.302009054989,-1.150694201295));
#642 = CARTESIAN_POINT('',(-1.281462987619,-1.176526402998));
#643 = CARTESIAN_POINT('',(-1.261755403818,-1.204261024028));
#644 = CARTESIAN_POINT('',(-1.242931313782,-1.23373230308));
#645 = CARTESIAN_POINT('',(-1.2076439053,-1.294946727052));
#646 = CARTESIAN_POINT('',(-1.191121074497,-1.326616213293));
#647 = CARTESIAN_POINT('',(-1.175497805794,-1.359658165561));
#648 = CARTESIAN_POINT('',(-1.160806897119,-1.393956196949));
#649 = CARTESIAN_POINT('',(-1.147082821642,-1.429403546337));
#650 = CARTESIAN_POINT('',(-1.120708858495,-1.505071709281));
#651 = CARTESIAN_POINT('',(-1.108206313964,-1.545465790715));
#652 = CARTESIAN_POINT('',(-1.096907693517,-1.586940683272));
#653 = CARTESIAN_POINT('',(-1.086863532025,-1.629361520016));
#654 = CARTESIAN_POINT('',(-1.078120375925,-1.67260162943));
#655 = CARTESIAN_POINT('',(-1.062979235339,-1.762506149467));
#656 = CARTESIAN_POINT('',(-1.056707746475,-1.809236575002));
#657 = CARTESIAN_POINT('',(-1.051963867706,-1.856538639266));
#658 = CARTESIAN_POINT('',(-1.048786940746,-1.904222250838));
#659 = CARTESIAN_POINT('',(-1.047197551197,-1.952102458548));
#660 = CARTESIAN_POINT('',(-1.047197551197,-2.048129910938));
#661 = CARTESIAN_POINT('',(-1.048802398597,-2.096242078388));
#662 = CARTESIAN_POINT('',(-1.052010187825,-2.144154782969));
#663 = CARTESIAN_POINT('',(-1.056799942544,-2.191680486732));
#664 = CARTESIAN_POINT('',(-1.063131593141,-2.238626391916));
#665 = CARTESIAN_POINT('',(-1.078344983493,-2.328509754878));
#666 = CARTESIAN_POINT('',(-1.08707343076,-2.37152812855));
#667 = CARTESIAN_POINT('',(-1.097089819107,-2.413732859213));
#668 = CARTESIAN_POINT('',(-1.108348232215,-2.454999116881));
#669 = CARTESIAN_POINT('',(-1.120798871644,-2.495194020779));
#670 = CARTESIAN_POINT('',(-1.160179391076,-2.608156924753));
#671 = CARTESIAN_POINT('',(-1.190119303743,-2.677902896724));
#672 = CARTESIAN_POINT('',(-1.223900848804,-2.742500418992));
#673 = CARTESIAN_POINT('',(-1.26121518439,-2.800934020791));
#674 = CARTESIAN_POINT('',(-1.301787136531,-2.852048523959));
#675 = CARTESIAN_POINT('',(-1.379583914304,-2.92784724319));
#676 = CARTESIAN_POINT('',(-1.415745030544,-2.95592836244));
#677 = CARTESIAN_POINT('',(-1.453400198645,-2.977719974666));
#678 = CARTESIAN_POINT('',(-1.492092283123,-2.992540876907));
#679 = CARTESIAN_POINT('',(-1.531375685263,-3.));
#680 = CARTESIAN_POINT('',(-1.570796326795,-3.));
#681 = ( GEOMETRIC_REPRESENTATION_CONTEXT(2) 
PARAMETRIC_REPRESENTATION_CONTEXT() REPRESENTATION_CONTEXT('2D SPACE',''
  ) );
#682 = ADVANCED_FACE('',(#683),#190,.F.);
#683 = FACE_BOUND('',#684,.F.);
#684 = EDGE_LOOP('',(#685,#706,#707,#708));
#685 = ORIENTED_EDGE('',*,*,#686,.T.);
#686 = EDGE_CURVE('',#302,#403,#687,.T.);
#687 = SURFACE_CURVE('',#688,(#692,#699),.PCURVE_S1.);
#688 = LINE('',#689,#690);
#689 = CARTESIAN_POINT('',(59.516761338445,-14.5,-4.869945803484));
#690 = VECTOR('',#691,1.);
#691 = DIRECTION('',(0.,1.,0.));
#692 = PCURVE('',#190,#693);
#693 = DEFINITIONAL_REPRESENTATION('',(#694),#698);
#694 = LINE('',#695,#696);
#695 = CARTESIAN_POINT('',(0.,0.));
#696 = VECTOR('',#697,1.);
#697 = DIRECTION('',(0.,-1.));
#698 = ( GEOMETRIC_REPRESENTATION_CONTEXT(2) 
PARAMETRIC_REPRESENTATION_CONTEXT() REPRESENTATION_CONTEXT('2D SPACE',''
  ) );
#699 = PCURVE('',#317,#700);
#700 = DEFINITIONAL_REPRESENTATION('',(#701),#705);
#701 = LINE('',#702,#703);
#702 = CARTESIAN_POINT('',(2.,0.));
#703 = VECTOR('',#704,1.);
#704 = DIRECTION('',(0.,-1.));
#705 = ( GEOMETRIC_REPRESENTATION_CONTEXT(2) 
PARAMETRIC_REPRESENTATION_CONTEXT() REPRESENTATION_CONTEXT('2D SPACE',''
  ) );
#706 = ORIENTED_EDGE('',*,*,#425,.T.);
#707 = ORIENTED_EDGE('',*,*,#172,.F.);
#708 = ORIENTED_EDGE('',*,*,#329,.F.);
#709 = ADVANCED_FACE('',(#710),#289,.T.);
#710 = FACE_BOUND('',#711,.F.);
#711 = EDGE_LOOP('',(#712,#713,#714,#715,#736,#737));
#712 = ORIENTED_EDGE('',*,*,#272,.F.);
#713 = ORIENTED_EDGE('',*,*,#452,.T.);
#714 = ORIENTED_EDGE('',*,*,#378,.T.);
#715 = ORIENTED_EDGE('',*,*,#716,.F.);
#716 = EDGE_CURVE('',#480,#379,#717,.T.);
#717 = SURFACE_CURVE('',#718,(#722,#729),.PCURVE_S1.);
#718 = LINE('',#719,#720);
#719 = CARTESIAN_POINT('',(60.598196011292,-14.5,-6.552354507802));
#720 = VECTOR('',#721,1.);
#721 = DIRECTION('',(0.,1.,0.));
#722 = PCURVE('',#289,#723);
#723 = DEFINITIONAL_REPRESENTATION('',(#724),#728);
#724 = LINE('',#725,#726);
#725 = CARTESIAN_POINT('',(-1.570796326795,0.));
#726 = VECTOR('',#727,1.);
#727 = DIRECTION('',(-0.,-1.));
#728 = ( GEOMETRIC_REPRESENTATION_CONTEXT(2) 
PARAMETRIC_REPRESENTATION_CONTEXT() REPRESENTATION_CONTEXT('2D SPACE',''
  ) );
#729 = PCURVE('',#317,#730);
#730 = DEFINITIONAL_REPRESENTATION('',(#731),#735);
#731 = LINE('',#732,#733);
#732 = CARTESIAN_POINT('',(0.,0.));
#733 = VECTOR('',#734,1.);
#734 = DIRECTION('',(0.,-1.));
#735 = ( GEOMETRIC_REPRESENTATION_CONTEXT(2) 
PARAMETRIC_REPRESENTATION_CONTEXT() REPRESENTATION_CONTEXT('2D SPACE',''
  ) );
#736 = ORIENTED_EDGE('',*,*,#530,.F.);
#737 = ORIENTED_EDGE('',*,*,#738,.F.);
#738 = EDGE_CURVE('',#273,#478,#739,.T.);
#739 = SURFACE_CURVE('',#740,(#744,#751),.PCURVE_S1.);
#740 = LINE('',#741,#742);
#741 = CARTESIAN_POINT('',(60.598196011292,-14.5,-6.552354507802));
#742 = VECTOR('',#743,1.);
#743 = DIRECTION('',(0.,1.,0.));
#744 = PCURVE('',#289,#745);
#745 = DEFINITIONAL_REPRESENTATION('',(#746),#750);
#746 = LINE('',#747,#748);
#747 = CARTESIAN_POINT('',(-1.570796326795,0.));
#748 = VECTOR('',#749,1.);
#749 = DIRECTION('',(-0.,-1.));
#750 = ( GEOMETRIC_REPRESENTATION_CONTEXT(2) 
PARAMETRIC_REPRESENTATION_CONTEXT() REPRESENTATION_CONTEXT('2D SPACE',''
  ) );
#751 = PCURVE('',#317,#752);
#752 = DEFINITIONAL_REPRESENTATION('',(#753),#757);
#753 = LINE('',#754,#755);
#754 = CARTESIAN_POINT('',(0.,0.));
#755 = VECTOR('',#756,1.);
#756 = DIRECTION('',(0.,-1.));
#757 = ( GEOMETRIC_REPRESENTATION_CONTEXT(2) 
PARAMETRIC_REPRESENTATION_CONTEXT() REPRESENTATION_CONTEXT('2D SPACE',''
  ) );
#758 = ADVANCED_FACE('',(#759),#317,.F.);
#759 = FACE_BOUND('',#760,.F.);
#760 = EDGE_LOOP('',(#761,#762,#763,#764,#765,#766));
#761 = ORIENTED_EDGE('',*,*,#477,.T.);
#762 = ORIENTED_EDGE('',*,*,#716,.T.);
#763 = ORIENTED_EDGE('',*,*,#402,.T.);
#764 = ORIENTED_EDGE('',*,*,#686,.F.);
#765 = ORIENTED_EDGE('',*,*,#301,.F.);
#766 = ORIENTED_EDGE('',*,*,#738,.T.);
#767 = ( GEOMETRIC_REPRESENTATION_CONTEXT(3) 
GLOBAL_UNCERTAINTY_ASSIGNED_CONTEXT((#771)) GLOBAL_UNIT_ASSIGNED_CONTEXT
((#768,#769,#770)) REPRESENTATION_CONTEXT('Context #1',
  '3D Context with UNIT and UNCERTAINTY') );
#768 = ( LENGTH_UNIT() NAMED_UNIT(*) SI_UNIT(.MILLI.,.METRE.) );
#769 = ( NAMED_UNIT(*) PLANE_ANGLE_UNIT() SI_UNIT($,.RADIAN.) );
#770 = ( NAMED_UNIT(*) SI_UNIT($,.STERADIAN.) SOLID_ANGLE_UNIT() );
#771 = UNCERTAINTY_MEASURE_WITH_UNIT(LENGTH_MEASURE(1.E-07),#768,
  'distance_accuracy_value','confusion accuracy');
#772 = PRODUCT_RELATED_PRODUCT_CATEGORY('part',$,(#7));
ENDSEC;
END-ISO-10303-21;
